<ttFont>
    <TTGlyph name="A" xMin="-104" yMin="-113" xMax="1405" yMax="1415">
      <contour>
        <pt x="866" y="1415" on="1"/>
        <pt x="1167" y="207" on="1"/>
        <pt x="1405" y="172" on="1"/>
        <pt x="842" y="-68" on="1"/>
        <pt x="1034" y="176" on="1"/>
        <pt x="922" y="455" on="1"/>
        <pt x="406" y="438" on="1"/>
        <pt x="301" y="141" on="1"/>
        <pt x="494" y="-113" on="1"/>
        <pt x="-104" y="123" on="1"/>
        <pt x="190" y="152" on="1"/>
        <pt x="274" y="434" on="1"/>
        <pt x="225" y="434" on="1"/>
        <pt x="141" y="541" on="1"/>
        <pt x="311" y="559" on="1"/>
        <pt x="492" y="1163" on="1"/>
        <pt x="287" y="1270" on="1"/>
      </contour>
      <contour>
        <pt x="453" y="575" on="1"/>
        <pt x="852" y="621" on="1"/>
        <pt x="647" y="1128" on="1"/>
      </contour>
    </TTGlyph>
    <TTGlyph name="AE" xMin="-70" yMin="-113" xMax="1866" yMax="1393">
      <contour>
        <pt x="1544" y="369" on="1"/>
        <pt x="1364" y="627" on="1"/>
        <pt x="1221" y="606" on="1"/>
        <pt x="1233" y="193" on="1"/>
        <pt x="1681" y="152" on="1"/>
        <pt x="1849" y="571" on="1"/>
        <pt x="1866" y="37" on="1"/>
        <pt x="739" y="-8" on="1"/>
        <pt x="989" y="248" on="1"/>
        <pt x="1006" y="463" on="1"/>
        <pt x="596" y="451" on="1"/>
        <pt x="342" y="137" on="1"/>
        <pt x="438" y="-113" on="1"/>
        <pt x="-70" y="123" on="1"/>
        <pt x="233" y="152" on="1"/>
        <pt x="434" y="446" on="1"/>
        <pt x="377" y="444" on="1"/>
        <pt x="293" y="551" on="1"/>
        <pt x="522" y="578" on="1"/>
        <pt x="924" y="1169" on="1"/>
        <pt x="758" y="1317" on="1"/>
        <pt x="1829" y="1393" on="1"/>
        <pt x="1847" y="924" on="1"/>
        <pt x="1661" y="1257" on="1"/>
        <pt x="1204" y="1184" on="1"/>
        <pt x="1219" y="711" on="1"/>
        <pt x="1323" y="725" on="1"/>
        <pt x="1530" y="999" on="1"/>
      </contour>
      <contour>
        <pt x="1020" y="633" on="1"/>
        <pt x="1047" y="1006" on="1"/>
        <pt x="717" y="598" on="1"/>
      </contour>
    </TTGlyph>
    <TTGlyph name="AEacute" xMin="-70" yMin="-113" xMax="1866" yMax="1784">
      <component glyphName="AE" x="0" y="0" flags="0x204"/>
      <component glyphName="acute" x="1163" y="309" flags="0x4"/>
    </TTGlyph>
    <TTGlyph name="Aacute" xMin="-104" yMin="-113" xMax="1405" yMax="1782">
      <component glyphName="A" x="0" y="0" flags="0x204"/>
      <component glyphName="acute" x="616" y="307" flags="0x4"/>
    </TTGlyph>
    <TTGlyph name="Abreve" xMin="-104" yMin="-113" xMax="1405" yMax="1700">
      <component glyphName="A" x="0" y="0" flags="0x204"/>
      <component glyphName="breve" x="424" y="268" flags="0x4"/>
    </TTGlyph>
    <TTGlyph name="Acircumflex" xMin="-104" yMin="-113" xMax="1405" yMax="1792">
      <component glyphName="A" x="0" y="0" flags="0x204"/>
      <component glyphName="circumflex" x="373" y="328" flags="0x4"/>
    </TTGlyph>
    <TTGlyph name="Adieresis" xMin="-104" yMin="-113" xMax="1405" yMax="1691">
      <component glyphName="A" x="0" y="0" flags="0x204"/>
      <component glyphName="dieresis" x="358" y="311" flags="0x4"/>
    </TTGlyph>
    <TTGlyph name="Agrave" xMin="-104" yMin="-113" xMax="1405" yMax="1778">
      <component glyphName="A" x="0" y="0" flags="0x204"/>
      <component glyphName="grave" x="207" y="303" flags="0x4"/>
    </TTGlyph>
    <TTGlyph name="Amacron" xMin="-104" yMin="-113" xMax="1405" yMax="1648">
      <component glyphName="A" x="0" y="0" flags="0x204"/>
      <component glyphName="macron" x="399" y="262" flags="0x4"/>
    </TTGlyph>
    <TTGlyph name="Aogonek" xMin="-104" yMin="-207" xMax="1405" yMax="1415">
      <contour>
        <pt x="866" y="1415" on="1"/>
        <pt x="1167" y="207" on="1"/>
        <pt x="1405" y="172" on="1"/>
        <pt x="1137" y="57" on="1"/>
        <pt x="1102" y="-2" on="0"/>
        <pt x="1102" y="-47" on="1"/>
        <pt x="1102" y="-73" on="0"/>
        <pt x="1129" y="-100" on="0"/>
        <pt x="1149" y="-100" on="1"/>
        <pt x="1174" y="-100" on="0"/>
        <pt x="1223" y="-64" on="0"/>
        <pt x="1237" y="-45" on="1"/>
        <pt x="1272" y="-84" on="1"/>
        <pt x="1270" y="-116" on="0"/>
        <pt x="1235" y="-163" on="0"/>
        <pt x="1190" y="-193" on="0"/>
        <pt x="1144" y="-207" on="0"/>
        <pt x="1130" y="-207" on="1"/>
        <pt x="1112" y="-207" on="0"/>
        <pt x="1071" y="-195" on="0"/>
        <pt x="1036" y="-167" on="0"/>
        <pt x="1014" y="-122" on="0"/>
        <pt x="1014" y="-90" on="1"/>
        <pt x="1014" y="-36" on="0"/>
        <pt x="1051" y="20" on="1"/>
        <pt x="842" y="-68" on="1"/>
        <pt x="1034" y="176" on="1"/>
        <pt x="922" y="453" on="1"/>
        <pt x="406" y="438" on="1"/>
        <pt x="301" y="141" on="1"/>
        <pt x="494" y="-113" on="1"/>
        <pt x="-104" y="123" on="1"/>
        <pt x="190" y="152" on="1"/>
        <pt x="274" y="434" on="1"/>
        <pt x="225" y="434" on="1"/>
        <pt x="141" y="541" on="1"/>
        <pt x="311" y="559" on="1"/>
        <pt x="492" y="1163" on="1"/>
        <pt x="287" y="1270" on="1"/>
      </contour>
      <contour>
        <pt x="453" y="575" on="1"/>
        <pt x="852" y="621" on="1"/>
        <pt x="647" y="1128" on="1"/>
      </contour>
    </TTGlyph>
    <TTGlyph name="Aring" xMin="-104" yMin="-113" xMax="1405" yMax="1655">
      <contour>
        <pt x="836" y="1483" on="1"/>
        <pt x="836" y="1460" on="0"/>
        <pt x="824" y="1419" on="0"/>
        <pt x="813" y="1401" on="1"/>
        <pt x="866" y="1415" on="1"/>
        <pt x="1167" y="207" on="1"/>
        <pt x="1405" y="172" on="1"/>
        <pt x="842" y="-68" on="1"/>
        <pt x="1034" y="176" on="1"/>
        <pt x="922" y="455" on="1"/>
        <pt x="406" y="438" on="1"/>
        <pt x="301" y="141" on="1"/>
        <pt x="494" y="-113" on="1"/>
        <pt x="-104" y="123" on="1"/>
        <pt x="190" y="152" on="1"/>
        <pt x="274" y="434" on="1"/>
        <pt x="225" y="434" on="1"/>
        <pt x="141" y="541" on="1"/>
        <pt x="311" y="559" on="1"/>
        <pt x="492" y="1163" on="1"/>
        <pt x="287" y="1270" on="1"/>
        <pt x="559" y="1337" on="1"/>
        <pt x="521" y="1360" on="0"/>
        <pt x="473" y="1435" on="0"/>
        <pt x="473" y="1483" on="1"/>
        <pt x="473" y="1520" on="0"/>
        <pt x="503" y="1583" on="0"/>
        <pt x="553" y="1629" on="0"/>
        <pt x="619" y="1655" on="0"/>
        <pt x="655" y="1655" on="1"/>
        <pt x="691" y="1655" on="0"/>
        <pt x="756" y="1629" on="0"/>
        <pt x="806" y="1583" on="0"/>
        <pt x="836" y="1520" on="0"/>
      </contour>
      <contour>
        <pt x="453" y="575" on="1"/>
        <pt x="852" y="621" on="1"/>
        <pt x="647" y="1128" on="1"/>
      </contour>
      <contour>
        <pt x="721" y="1483" on="1"/>
        <pt x="721" y="1503" on="0"/>
        <pt x="711" y="1542" on="0"/>
        <pt x="694" y="1572" on="0"/>
        <pt x="670" y="1591" on="0"/>
        <pt x="655" y="1591" on="1"/>
        <pt x="640" y="1591" on="0"/>
        <pt x="616" y="1572" on="0"/>
        <pt x="598" y="1542" on="0"/>
        <pt x="588" y="1503" on="0"/>
        <pt x="588" y="1483" on="1"/>
        <pt x="588" y="1464" on="0"/>
        <pt x="598" y="1426" on="0"/>
        <pt x="616" y="1395" on="0"/>
        <pt x="640" y="1376" on="0"/>
        <pt x="655" y="1376" on="1"/>
        <pt x="667" y="1376" on="0"/>
        <pt x="690" y="1395" on="0"/>
        <pt x="709" y="1426" on="0"/>
        <pt x="721" y="1464" on="0"/>
      </contour>
    </TTGlyph>
    <TTGlyph name="Atilde" xMin="-104" yMin="-113" xMax="1405" yMax="1681">
      <component glyphName="A" x="0" y="0" flags="0x204"/>
      <component glyphName="tilde" x="340" y="270" flags="0x4"/>
    </TTGlyph>
    <TTGlyph name="B" xMin="-45" yMin="-16" xMax="1202" yMax="1405">
      <contour>
        <pt x="1202" y="1028" on="1"/>
        <pt x="1202" y="936" on="0"/>
        <pt x="1148" y="810" on="0"/>
        <pt x="1058" y="728" on="0"/>
        <pt x="942" y="682" on="0"/>
        <pt x="881" y="672" on="1"/>
        <pt x="958" y="644" on="0"/>
        <pt x="1055" y="558" on="0"/>
        <pt x="1110" y="465" on="0"/>
        <pt x="1130" y="376" on="0"/>
        <pt x="1130" y="346" on="1"/>
        <pt x="1130" y="271" on="0"/>
        <pt x="1086" y="159" on="0"/>
        <pt x="1011" y="79" on="0"/>
        <pt x="911" y="27" on="0"/>
        <pt x="798" y="-4" on="0"/>
        <pt x="679" y="-16" on="0"/>
        <pt x="623" y="-16" on="1"/>
        <pt x="604" y="-16" on="0"/>
        <pt x="565" y="-15" on="0"/>
        <pt x="507" y="-12" on="0"/>
        <pt x="420" y="-6" on="0"/>
        <pt x="284" y="4" on="0"/>
        <pt x="90" y="19" on="0"/>
        <pt x="-45" y="29" on="1"/>
        <pt x="197" y="178" on="1"/>
        <pt x="268" y="1235" on="1"/>
        <pt x="6" y="1405" on="1"/>
        <pt x="191" y="1403" on="0"/>
        <pt x="470" y="1399" on="0"/>
        <pt x="566" y="1397" on="1"/>
        <pt x="678" y="1395" on="0"/>
        <pt x="758" y="1393" on="1"/>
        <pt x="836" y="1393" on="0"/>
        <pt x="995" y="1346" on="0"/>
        <pt x="1122" y="1254" on="0"/>
        <pt x="1202" y="1117" on="0"/>
      </contour>
      <contour>
        <pt x="938" y="1022" on="1"/>
        <pt x="938" y="1031" on="0"/>
        <pt x="933" y="1076" on="0"/>
        <pt x="910" y="1133" on="0"/>
        <pt x="862" y="1196" on="0"/>
        <pt x="776" y="1248" on="0"/>
        <pt x="645" y="1283" on="0"/>
        <pt x="551" y="1284" on="1"/>
        <pt x="501" y="1284" on="0"/>
        <pt x="453" y="1278" on="1"/>
        <pt x="453" y="725" on="1"/>
        <pt x="479" y="723" on="0"/>
        <pt x="531" y="723" on="0"/>
        <pt x="551" y="723" on="1"/>
        <pt x="647" y="723" on="0"/>
        <pt x="779" y="761" on="0"/>
        <pt x="865" y="821" on="0"/>
        <pt x="912" y="892" on="0"/>
        <pt x="934" y="959" on="0"/>
        <pt x="938" y="1011" on="0"/>
      </contour>
      <contour>
        <pt x="557" y="616" on="1"/>
        <pt x="535" y="616" on="0"/>
        <pt x="479" y="616" on="0"/>
        <pt x="453" y="614" on="1"/>
        <pt x="453" y="133" on="1"/>
        <pt x="498" y="125" on="0"/>
        <pt x="574" y="119" on="0"/>
        <pt x="612" y="119" on="1"/>
        <pt x="663" y="119" on="0"/>
        <pt x="764" y="142" on="0"/>
        <pt x="845" y="199" on="0"/>
        <pt x="895" y="295" on="0"/>
        <pt x="895" y="367" on="1"/>
        <pt x="895" y="404" on="0"/>
        <pt x="861" y="492" on="0"/>
        <pt x="783" y="566" on="0"/>
        <pt x="653" y="616" on="0"/>
      </contour>
    </TTGlyph>
    <TTGlyph name="C" xMin="63" yMin="-23" xMax="1268" yMax="1454">
      <contour>
        <pt x="674" y="1399" on="1"/>
        <pt x="776" y="1399" on="0"/>
        <pt x="962" y="1328" on="0"/>
        <pt x="1024" y="1260" on="1"/>
        <pt x="1268" y="1454" on="1"/>
        <pt x="989" y="856" on="1"/>
        <pt x="965" y="1147" on="1"/>
        <pt x="932" y="1187" on="0"/>
        <pt x="858" y="1233" on="0"/>
        <pt x="789" y="1256" on="0"/>
        <pt x="734" y="1262" on="0"/>
        <pt x="719" y="1262" on="1"/>
        <pt x="638" y="1262" on="0"/>
        <pt x="499" y="1180" on="0"/>
        <pt x="397" y="1027" on="0"/>
        <pt x="338" y="811" on="0"/>
        <pt x="338" y="678" on="1"/>
        <pt x="338" y="545" on="0"/>
        <pt x="397" y="325" on="0"/>
        <pt x="498" y="167" on="0"/>
        <pt x="634" y="80" on="0"/>
        <pt x="711" y="80" on="1"/>
        <pt x="789" y="80" on="0"/>
        <pt x="901" y="157" on="0"/>
        <pt x="973" y="275" on="0"/>
        <pt x="1006" y="415" on="0"/>
        <pt x="1006" y="479" on="1"/>
        <pt x="1006" y="493" on="0"/>
        <pt x="1006" y="518" on="0"/>
        <pt x="1004" y="532" on="1"/>
        <pt x="1069" y="489" on="0"/>
        <pt x="1130" y="380" on="0"/>
        <pt x="1130" y="322" on="1"/>
        <pt x="1130" y="268" on="0"/>
        <pt x="1077" y="147" on="0"/>
        <pt x="973" y="44" on="0"/>
        <pt x="821" y="-23" on="0"/>
        <pt x="721" y="-23" on="1"/>
        <pt x="640" y="-23" on="0"/>
        <pt x="480" y="11" on="0"/>
        <pt x="334" y="82" on="0"/>
        <pt x="208" y="192" on="0"/>
        <pt x="116" y="344" on="0"/>
        <pt x="63" y="542" on="0"/>
        <pt x="63" y="664" on="1"/>
        <pt x="63" y="783" on="0"/>
        <pt x="112" y="984" on="0"/>
        <pt x="199" y="1147" on="0"/>
        <pt x="316" y="1272" on="0"/>
        <pt x="451" y="1356" on="0"/>
        <pt x="600" y="1399" on="0"/>
      </contour>
    </TTGlyph>
    <TTGlyph name="Cacute" xMin="63" yMin="-23" xMax="1268" yMax="1827">
      <component glyphName="C" x="0" y="0" flags="0x204"/>
      <component glyphName="acute" x="696" y="352" flags="0x4"/>
    </TTGlyph>
    <TTGlyph name="Ccaron" xMin="63" yMin="-23" xMax="1268" yMax="1771">
      <component glyphName="C" x="0" y="0" flags="0x204"/>
      <component glyphName="caron" x="414" y="307" flags="0x4"/>
    </TTGlyph>
    <TTGlyph name="Ccedilla" xMin="63" yMin="-309" xMax="1268" yMax="1454">
      <contour>
        <pt x="559" y="-176" on="1"/>
        <pt x="571" y="-192" on="0"/>
        <pt x="615" y="-223" on="0"/>
        <pt x="641" y="-223" on="1"/>
        <pt x="667" y="-223" on="0"/>
        <pt x="702" y="-186" on="0"/>
        <pt x="702" y="-158" on="1"/>
        <pt x="702" y="-143" on="0"/>
        <pt x="683" y="-126" on="0"/>
        <pt x="656" y="-116" on="0"/>
        <pt x="624" y="-113" on="0"/>
        <pt x="612" y="-113" on="1"/>
        <pt x="594" y="-113" on="0"/>
        <pt x="581" y="-114" on="0"/>
        <pt x="571" y="-117" on="1"/>
        <pt x="639" y="-18" on="1"/>
        <pt x="528" y="-7" on="0"/>
        <pt x="321" y="83" on="0"/>
        <pt x="160" y="249" on="0"/>
        <pt x="63" y="496" on="0"/>
        <pt x="63" y="664" on="1"/>
        <pt x="63" y="783" on="0"/>
        <pt x="112" y="984" on="0"/>
        <pt x="199" y="1147" on="0"/>
        <pt x="316" y="1272" on="0"/>
        <pt x="451" y="1356" on="0"/>
        <pt x="600" y="1399" on="0"/>
        <pt x="674" y="1399" on="1"/>
        <pt x="776" y="1399" on="0"/>
        <pt x="962" y="1328" on="0"/>
        <pt x="1024" y="1260" on="1"/>
        <pt x="1268" y="1454" on="1"/>
        <pt x="989" y="856" on="1"/>
        <pt x="965" y="1147" on="1"/>
        <pt x="932" y="1187" on="0"/>
        <pt x="858" y="1233" on="0"/>
        <pt x="789" y="1256" on="0"/>
        <pt x="734" y="1262" on="0"/>
        <pt x="719" y="1262" on="1"/>
        <pt x="638" y="1262" on="0"/>
        <pt x="499" y="1180" on="0"/>
        <pt x="397" y="1027" on="0"/>
        <pt x="338" y="811" on="0"/>
        <pt x="338" y="678" on="1"/>
        <pt x="338" y="545" on="0"/>
        <pt x="397" y="325" on="0"/>
        <pt x="498" y="167" on="0"/>
        <pt x="634" y="80" on="0"/>
        <pt x="711" y="80" on="1"/>
        <pt x="789" y="80" on="0"/>
        <pt x="901" y="157" on="0"/>
        <pt x="973" y="275" on="0"/>
        <pt x="1006" y="415" on="0"/>
        <pt x="1006" y="479" on="1"/>
        <pt x="1006" y="493" on="0"/>
        <pt x="1006" y="518" on="0"/>
        <pt x="1004" y="532" on="1"/>
        <pt x="1069" y="489" on="0"/>
        <pt x="1130" y="380" on="0"/>
        <pt x="1130" y="322" on="1"/>
        <pt x="1130" y="268" on="0"/>
        <pt x="1077" y="147" on="0"/>
        <pt x="973" y="44" on="0"/>
        <pt x="821" y="-23" on="0"/>
        <pt x="721" y="-23" on="1"/>
        <pt x="709" y="-23" on="1"/>
        <pt x="692" y="-61" on="1"/>
        <pt x="707" y="-61" on="0"/>
        <pt x="744" y="-75" on="0"/>
        <pt x="777" y="-104" on="0"/>
        <pt x="799" y="-149" on="0"/>
        <pt x="799" y="-180" on="1"/>
        <pt x="799" y="-245" on="0"/>
        <pt x="722" y="-309" on="0"/>
        <pt x="662" y="-309" on="1"/>
        <pt x="644" y="-309" on="0"/>
        <pt x="604" y="-295" on="0"/>
        <pt x="567" y="-270" on="0"/>
        <pt x="537" y="-237" on="0"/>
        <pt x="530" y="-219" on="1"/>
      </contour>
    </TTGlyph>
    <TTGlyph name="Ccircumflex" xMin="63" yMin="-23" xMax="1268" yMax="1753">
      <component glyphName="C" x="0" y="0" flags="0x204"/>
      <component glyphName="circumflex" x="385" y="289" flags="0x4"/>
    </TTGlyph>
    <TTGlyph name="Cdotaccent" xMin="63" yMin="-23" xMax="1268" yMax="1669">
      <component glyphName="C" x="0" y="0" flags="0x204"/>
      <component glyphName="dotaccent" x="571" y="270" flags="0x4"/>
    </TTGlyph>
    <TTGlyph name="D" xMin="-47" yMin="-8" xMax="1196" yMax="1374">
      <contour>
        <pt x="272" y="-8" on="1"/>
        <pt x="115" y="-8" on="0"/>
        <pt x="-47" y="16" on="1"/>
        <pt x="225" y="141" on="1"/>
        <pt x="317" y="1174" on="1"/>
        <pt x="8" y="1313" on="1"/>
        <pt x="105" y="1335" on="0"/>
        <pt x="305" y="1360" on="0"/>
        <pt x="389" y="1366" on="1"/>
        <pt x="486" y="1373" on="0"/>
        <pt x="578" y="1374" on="1"/>
        <pt x="646" y="1374" on="0"/>
        <pt x="791" y="1342" on="0"/>
        <pt x="929" y="1273" on="0"/>
        <pt x="1051" y="1165" on="0"/>
        <pt x="1142" y="1015" on="0"/>
        <pt x="1196" y="820" on="0"/>
        <pt x="1196" y="698" on="1"/>
        <pt x="1196" y="563" on="0"/>
        <pt x="1118" y="353" on="0"/>
        <pt x="983" y="197" on="0"/>
        <pt x="803" y="88" on="0"/>
        <pt x="597" y="22" on="0"/>
        <pt x="378" y="-8" on="0"/>
      </contour>
      <contour>
        <pt x="963" y="737" on="1"/>
        <pt x="963" y="788" on="0"/>
        <pt x="948" y="904" on="0"/>
        <pt x="912" y="1018" on="0"/>
        <pt x="852" y="1123" on="0"/>
        <pt x="763" y="1203" on="0"/>
        <pt x="641" y="1251" on="0"/>
        <pt x="561" y="1251" on="1"/>
        <pt x="519" y="1251" on="0"/>
        <pt x="473" y="1245" on="1"/>
        <pt x="473" y="125" on="1"/>
        <pt x="609" y="144" on="0"/>
        <pt x="796" y="248" on="0"/>
        <pt x="912" y="407" on="0"/>
        <pt x="963" y="614" on="0"/>
      </contour>
    </TTGlyph>
    <TTGlyph name="Dcaron" xMin="-47" yMin="-8" xMax="1196" yMax="1743">
      <component glyphName="D" x="0" y="0" flags="0x204"/>
      <component glyphName="caron" x="346" y="279" flags="0x4"/>
    </TTGlyph>
    <TTGlyph name="Dcroat" xMin="-43" yMin="-8" xMax="1200" yMax="1374">
      <component glyphName="Eth" x="0" y="0" flags="0x204"/>
    </TTGlyph>
    <TTGlyph name="E" xMin="-27" yMin="-8" xMax="1100" yMax="1393">
      <contour>
        <pt x="1100" y="37" on="1"/>
        <pt x="-27" y="-8" on="1"/>
        <pt x="223" y="248" on="1"/>
        <pt x="293" y="1169" on="1"/>
        <pt x="-8" y="1317" on="1"/>
        <pt x="1063" y="1393" on="1"/>
        <pt x="1081" y="924" on="1"/>
        <pt x="895" y="1257" on="1"/>
        <pt x="438" y="1184" on="1"/>
        <pt x="453" y="711" on="1"/>
        <pt x="557" y="725" on="1"/>
        <pt x="764" y="999" on="1"/>
        <pt x="778" y="369" on="1"/>
        <pt x="598" y="627" on="1"/>
        <pt x="455" y="606" on="1"/>
        <pt x="467" y="193" on="1"/>
        <pt x="915" y="152" on="1"/>
        <pt x="1083" y="571" on="1"/>
      </contour>
    </TTGlyph>
    <TTGlyph name="Eacute" xMin="-27" yMin="-8" xMax="1100" yMax="1782">
      <component glyphName="E" x="0" y="0" flags="0x204"/>
      <component glyphName="acute" x="567" y="307" flags="0x4"/>
    </TTGlyph>
    <TTGlyph name="Ebreve" xMin="-27" yMin="-8" xMax="1100" yMax="1698">
      <component glyphName="E" x="0" y="0" flags="0x204"/>
      <component glyphName="breve" x="387" y="266" flags="0x4"/>
    </TTGlyph>
    <TTGlyph name="Ecaron" xMin="-27" yMin="-8" xMax="1100" yMax="1749">
      <component glyphName="E" x="0" y="0" flags="0x204"/>
      <component glyphName="caron" x="315" y="285" flags="0x4"/>
    </TTGlyph>
    <TTGlyph name="Ecircumflex" xMin="-27" yMin="-8" xMax="1100" yMax="1747">
      <component glyphName="E" x="0" y="0" flags="0x204"/>
      <component glyphName="circumflex" x="307" y="283" flags="0x4"/>
    </TTGlyph>
    <TTGlyph name="Edieresis" xMin="-27" yMin="-8" xMax="1100" yMax="1652">
      <component glyphName="E" x="0" y="0" flags="0x204"/>
      <component glyphName="dieresis" x="274" y="272" flags="0x4"/>
    </TTGlyph>
    <TTGlyph name="Edotaccent" xMin="-27" yMin="-8" xMax="1100" yMax="1635">
      <component glyphName="E" x="0" y="0" flags="0x204"/>
      <component glyphName="dotaccent" x="489" y="236" flags="0x4"/>
    </TTGlyph>
    <TTGlyph name="Egrave" xMin="-27" yMin="-8" xMax="1100" yMax="1782">
      <component glyphName="E" x="0" y="0" flags="0x204"/>
      <component glyphName="grave" x="168" y="307" flags="0x4"/>
    </TTGlyph>
    <TTGlyph name="Emacron" xMin="-27" yMin="-8" xMax="1100" yMax="1617">
      <component glyphName="E" x="0" y="0" flags="0x204"/>
      <component glyphName="macron" x="338" y="231" flags="0x4"/>
    </TTGlyph>
    <TTGlyph name="Eng" xMin="-20" yMin="-514" xMax="1556" yMax="1436">
      <contour>
        <pt x="1556" y="1337" on="1"/>
        <pt x="1272" y="1255" on="1"/>
        <pt x="1247" y="1014" on="0"/>
        <pt x="1211" y="654" on="0"/>
        <pt x="1186" y="390" on="0"/>
        <pt x="1169" y="210" on="0"/>
        <pt x="1156" y="89" on="0"/>
        <pt x="1147" y="13" on="0"/>
        <pt x="1137" y="-42" on="0"/>
        <pt x="1125" y="-90" on="0"/>
        <pt x="1116" y="-123" on="1"/>
        <pt x="1096" y="-194" on="0"/>
        <pt x="1031" y="-333" on="0"/>
        <pt x="924" y="-445" on="0"/>
        <pt x="768" y="-514" on="0"/>
        <pt x="657" y="-514" on="1"/>
        <pt x="575" y="-514" on="0"/>
        <pt x="432" y="-485" on="0"/>
        <pt x="327" y="-421" on="0"/>
        <pt x="266" y="-317" on="0"/>
        <pt x="266" y="-242" on="1"/>
        <pt x="266" y="-185" on="0"/>
        <pt x="304" y="-104" on="0"/>
        <pt x="371" y="-53" on="0"/>
        <pt x="465" y="-29" on="0"/>
        <pt x="522" y="-29" on="1"/>
        <pt x="569" y="-29" on="0"/>
        <pt x="625" y="-47" on="1"/>
        <pt x="576" y="-63" on="0"/>
        <pt x="515" y="-118" on="0"/>
        <pt x="481" y="-177" on="0"/>
        <pt x="469" y="-231" on="0"/>
        <pt x="469" y="-246" on="1"/>
        <pt x="469" y="-298" on="0"/>
        <pt x="509" y="-360" on="0"/>
        <pt x="564" y="-393" on="0"/>
        <pt x="623" y="-403" on="0"/>
        <pt x="641" y="-403" on="1"/>
        <pt x="711" y="-403" on="0"/>
        <pt x="824" y="-345" on="0"/>
        <pt x="904" y="-231" on="0"/>
        <pt x="948" y="-62" on="0"/>
        <pt x="948" y="49" on="1"/>
        <pt x="948" y="115" on="0"/>
        <pt x="876" y="318" on="0"/>
        <pt x="749" y="564" on="0"/>
        <pt x="578" y="839" on="0"/>
        <pt x="479" y="977" on="1"/>
        <pt x="377" y="203" on="1"/>
        <pt x="655" y="55" on="1"/>
        <pt x="-2" y="6" on="1"/>
        <pt x="258" y="203" on="1"/>
        <pt x="279" y="1204" on="1"/>
        <pt x="-20" y="1309" on="1"/>
        <pt x="633" y="1417" on="1"/>
        <pt x="1022" y="412" on="1"/>
        <pt x="1141" y="1229" on="1"/>
        <pt x="922" y="1436" on="1"/>
      </contour>
    </TTGlyph>
    <TTGlyph name="Eogonek" xMin="-27" yMin="-240" xMax="1100" yMax="1393">
      <contour>
        <pt x="1100" y="37" on="1"/>
        <pt x="975" y="31" on="1"/>
        <pt x="941" y="0" on="0"/>
        <pt x="899" y="-66" on="0"/>
        <pt x="899" y="-94" on="1"/>
        <pt x="899" y="-114" on="0"/>
        <pt x="928" y="-137" on="0"/>
        <pt x="948" y="-137" on="1"/>
        <pt x="971" y="-137" on="0"/>
        <pt x="1017" y="-117" on="0"/>
        <pt x="1032" y="-104" on="1"/>
        <pt x="1057" y="-152" on="1"/>
        <pt x="1051" y="-171" on="0"/>
        <pt x="1020" y="-203" on="0"/>
        <pt x="983" y="-227" on="0"/>
        <pt x="943" y="-240" on="0"/>
        <pt x="928" y="-240" on="1"/>
        <pt x="904" y="-240" on="0"/>
        <pt x="859" y="-227" on="0"/>
        <pt x="824" y="-199" on="0"/>
        <pt x="803" y="-153" on="0"/>
        <pt x="803" y="-121" on="1"/>
        <pt x="803" y="-84" on="0"/>
        <pt x="854" y="-5" on="0"/>
        <pt x="897" y="29" on="1"/>
        <pt x="-27" y="-8" on="1"/>
        <pt x="223" y="248" on="1"/>
        <pt x="293" y="1169" on="1"/>
        <pt x="-8" y="1317" on="1"/>
        <pt x="1063" y="1393" on="1"/>
        <pt x="1081" y="924" on="1"/>
        <pt x="895" y="1257" on="1"/>
        <pt x="438" y="1184" on="1"/>
        <pt x="453" y="711" on="1"/>
        <pt x="557" y="725" on="1"/>
        <pt x="764" y="999" on="1"/>
        <pt x="778" y="369" on="1"/>
        <pt x="598" y="627" on="1"/>
        <pt x="455" y="606" on="1"/>
        <pt x="467" y="193" on="1"/>
        <pt x="915" y="152" on="1"/>
        <pt x="1083" y="571" on="1"/>
      </contour>
    </TTGlyph>
    <TTGlyph name="Eth" xMin="-43" yMin="-8" xMax="1200" yMax="1374">
      <contour>
        <pt x="276" y="-8" on="1"/>
        <pt x="120" y="-8" on="0"/>
        <pt x="-43" y="16" on="1"/>
        <pt x="229" y="141" on="1"/>
        <pt x="270" y="602" on="1"/>
        <pt x="59" y="616" on="1"/>
        <pt x="70" y="766" on="1"/>
        <pt x="287" y="784" on="1"/>
        <pt x="322" y="1174" on="1"/>
        <pt x="12" y="1313" on="1"/>
        <pt x="109" y="1335" on="0"/>
        <pt x="309" y="1360" on="0"/>
        <pt x="393" y="1366" on="1"/>
        <pt x="490" y="1373" on="0"/>
        <pt x="582" y="1374" on="1"/>
        <pt x="650" y="1374" on="0"/>
        <pt x="795" y="1342" on="0"/>
        <pt x="933" y="1273" on="0"/>
        <pt x="1055" y="1165" on="0"/>
        <pt x="1146" y="1015" on="0"/>
        <pt x="1200" y="820" on="0"/>
        <pt x="1200" y="698" on="1"/>
        <pt x="1200" y="563" on="0"/>
        <pt x="1122" y="353" on="0"/>
        <pt x="987" y="197" on="0"/>
        <pt x="807" y="88" on="0"/>
        <pt x="601" y="22" on="0"/>
        <pt x="382" y="-8" on="0"/>
      </contour>
      <contour>
        <pt x="477" y="590" on="1"/>
        <pt x="477" y="125" on="1"/>
        <pt x="613" y="144" on="0"/>
        <pt x="800" y="248" on="0"/>
        <pt x="916" y="407" on="0"/>
        <pt x="967" y="614" on="0"/>
        <pt x="967" y="737" on="1"/>
        <pt x="967" y="788" on="0"/>
        <pt x="952" y="904" on="0"/>
        <pt x="916" y="1018" on="0"/>
        <pt x="856" y="1123" on="0"/>
        <pt x="767" y="1203" on="0"/>
        <pt x="645" y="1251" on="0"/>
        <pt x="565" y="1251" on="1"/>
        <pt x="523" y="1251" on="0"/>
        <pt x="477" y="1245" on="1"/>
        <pt x="477" y="801" on="1"/>
        <pt x="727" y="821" on="1"/>
        <pt x="727" y="573" on="1"/>
      </contour>
    </TTGlyph>
    <TTGlyph name="Euro" xMin="57" yMin="125" xMax="1165" yMax="1307">
      <contour>
        <pt x="434" y="547" on="1"/>
        <pt x="447" y="469" on="0"/>
        <pt x="502" y="344" on="0"/>
        <pt x="578" y="255" on="0"/>
        <pt x="670" y="207" on="0"/>
        <pt x="721" y="207" on="1"/>
        <pt x="783" y="207" on="0"/>
        <pt x="872" y="269" on="0"/>
        <pt x="929" y="363" on="0"/>
        <pt x="956" y="475" on="0"/>
        <pt x="956" y="526" on="1"/>
        <pt x="956" y="537" on="0"/>
        <pt x="956" y="558" on="0"/>
        <pt x="954" y="569" on="1"/>
        <pt x="1007" y="534" on="0"/>
        <pt x="1057" y="447" on="0"/>
        <pt x="1057" y="399" on="1"/>
        <pt x="1057" y="356" on="0"/>
        <pt x="1014" y="260" on="0"/>
        <pt x="931" y="179" on="0"/>
        <pt x="809" y="125" on="0"/>
        <pt x="729" y="125" on="1"/>
        <pt x="644" y="125" on="0"/>
        <pt x="477" y="172" on="0"/>
        <pt x="337" y="273" on="0"/>
        <pt x="235" y="430" on="0"/>
        <pt x="215" y="541" on="1"/>
        <pt x="57" y="537" on="1"/>
        <pt x="90" y="662" on="1"/>
        <pt x="203" y="655" on="1"/>
        <pt x="203" y="674" on="1"/>
        <pt x="203" y="719" on="1"/>
        <pt x="121" y="723" on="1"/>
        <pt x="137" y="809" on="1"/>
        <pt x="215" y="813" on="1"/>
        <pt x="234" y="922" on="0"/>
        <pt x="329" y="1090" on="0"/>
        <pt x="459" y="1204" on="0"/>
        <pt x="612" y="1262" on="0"/>
        <pt x="690" y="1262" on="1"/>
        <pt x="772" y="1262" on="0"/>
        <pt x="921" y="1205" on="0"/>
        <pt x="971" y="1151" on="1"/>
        <pt x="1165" y="1307" on="1"/>
        <pt x="942" y="827" on="1"/>
        <pt x="922" y="1061" on="1"/>
        <pt x="896" y="1092" on="0"/>
        <pt x="837" y="1129" on="0"/>
        <pt x="783" y="1148" on="0"/>
        <pt x="739" y="1153" on="0"/>
        <pt x="727" y="1153" on="1"/>
        <pt x="673" y="1153" on="0"/>
        <pt x="578" y="1108" on="0"/>
        <pt x="501" y="1022" on="0"/>
        <pt x="446" y="900" on="0"/>
        <pt x="432" y="823" on="1"/>
        <pt x="766" y="840" on="1"/>
        <pt x="705" y="700" on="1"/>
        <pt x="422" y="711" on="1"/>
        <pt x="422" y="686" on="1"/>
        <pt x="422" y="647" on="1"/>
        <pt x="688" y="637" on="1"/>
        <pt x="678" y="553" on="1"/>
      </contour>
    </TTGlyph>
    <TTGlyph name="F" xMin="-23" yMin="-20" xMax="1067" yMax="1413">
      <contour>
        <pt x="1067" y="926" on="1"/>
        <pt x="907" y="1268" on="1"/>
        <pt x="397" y="1167" on="1"/>
        <pt x="416" y="801" on="1"/>
        <pt x="567" y="801" on="1"/>
        <pt x="733" y="1042" on="1"/>
        <pt x="733" y="434" on="1"/>
        <pt x="559" y="702" on="1"/>
        <pt x="422" y="686" on="1"/>
        <pt x="449" y="186" on="1"/>
        <pt x="743" y="61" on="1"/>
        <pt x="-20" y="-20" on="1"/>
        <pt x="197" y="174" on="1"/>
        <pt x="250" y="1133" on="1"/>
        <pt x="-23" y="1374" on="1"/>
        <pt x="1067" y="1413" on="1"/>
      </contour>
    </TTGlyph>
    <TTGlyph name="G" xMin="66" yMin="-47" xMax="1280" yMax="1413">
      <contour>
        <pt x="1280" y="666" on="1"/>
        <pt x="1116" y="502" on="1"/>
        <pt x="1081" y="-47" on="1"/>
        <pt x="991" y="123" on="1"/>
        <pt x="916" y="45" on="0"/>
        <pt x="721" y="-39" on="0"/>
        <pt x="621" y="-39" on="1"/>
        <pt x="558" y="-39" on="0"/>
        <pt x="428" y="-4" on="0"/>
        <pt x="304" y="69" on="0"/>
        <pt x="195" y="181" on="0"/>
        <pt x="114" y="334" on="0"/>
        <pt x="66" y="530" on="0"/>
        <pt x="66" y="651" on="1"/>
        <pt x="66" y="794" on="0"/>
        <pt x="132" y="1012" on="0"/>
        <pt x="240" y="1172" on="0"/>
        <pt x="376" y="1278" on="0"/>
        <pt x="516" y="1342" on="0"/>
        <pt x="649" y="1368" on="0"/>
        <pt x="698" y="1368" on="1"/>
        <pt x="750" y="1365" on="0"/>
        <pt x="804" y="1351" on="1"/>
        <pt x="849" y="1339" on="0"/>
        <pt x="955" y="1287" on="0"/>
        <pt x="1001" y="1241" on="1"/>
        <pt x="1229" y="1413" on="1"/>
        <pt x="930" y="874" on="1"/>
        <pt x="930" y="1155" on="1"/>
        <pt x="895" y="1189" on="0"/>
        <pt x="814" y="1225" on="0"/>
        <pt x="744" y="1242" on="0"/>
        <pt x="693" y="1245" on="0"/>
        <pt x="688" y="1245" on="1"/>
        <pt x="615" y="1242" on="0"/>
        <pt x="483" y="1156" on="0"/>
        <pt x="382" y="1003" on="0"/>
        <pt x="322" y="790" on="0"/>
        <pt x="322" y="659" on="1"/>
        <pt x="322" y="527" on="0"/>
        <pt x="382" y="315" on="0"/>
        <pt x="487" y="166" on="0"/>
        <pt x="629" y="86" on="0"/>
        <pt x="711" y="86" on="1"/>
        <pt x="718" y="86" on="0"/>
        <pt x="762" y="89" on="0"/>
        <pt x="824" y="111" on="0"/>
        <pt x="896" y="160" on="0"/>
        <pt x="932" y="205" on="1"/>
        <pt x="897" y="463" on="1"/>
        <pt x="653" y="590" on="1"/>
      </contour>
    </TTGlyph>
    <TTGlyph name="Gbreve" xMin="66" yMin="-47" xMax="1280" yMax="1696">
      <component glyphName="G" x="0" y="0" flags="0x204"/>
      <component glyphName="breve" x="424" y="264" flags="0x4"/>
    </TTGlyph>
    <TTGlyph name="Gcircumflex" xMin="66" yMin="-47" xMax="1280" yMax="1714">
      <component glyphName="G" x="0" y="0" flags="0x204"/>
      <component glyphName="circumflex" x="352" y="250" flags="0x4"/>
    </TTGlyph>
    <TTGlyph name="Gcommaaccent" xMin="66" yMin="-375" xMax="1280" yMax="1413">
      <component glyphName="G" x="0" y="0" flags="0x204"/>
      <component glyphName="uni0326" x="432" y="0" flags="0x4"/>
    </TTGlyph>
    <TTGlyph name="Gdotaccent" xMin="66" yMin="-47" xMax="1280" yMax="1641">
      <component glyphName="G" x="0" y="0" flags="0x204"/>
      <component glyphName="dotaccent" x="573" y="242" flags="0x4"/>
    </TTGlyph>
    <TTGlyph name="H" xMin="-39" yMin="4" xMax="1391" yMax="1401">
      <contour>
        <pt x="657" y="1391" on="1"/>
        <pt x="463" y="1284" on="1"/>
        <pt x="436" y="788" on="1"/>
        <pt x="952" y="772" on="1"/>
        <pt x="965" y="1188" on="1"/>
        <pt x="780" y="1298" on="1"/>
        <pt x="1372" y="1335" on="1"/>
        <pt x="1147" y="1151" on="1"/>
        <pt x="1184" y="145" on="1"/>
        <pt x="1391" y="8" on="1"/>
        <pt x="680" y="4" on="1"/>
        <pt x="932" y="172" on="1"/>
        <pt x="948" y="643" on="1"/>
        <pt x="428" y="653" on="1"/>
        <pt x="406" y="242" on="1"/>
        <pt x="553" y="94" on="1"/>
        <pt x="66" y="94" on="1"/>
        <pt x="238" y="233" on="1"/>
        <pt x="178" y="1270" on="1"/>
        <pt x="-39" y="1401" on="1"/>
      </contour>
    </TTGlyph>
    <TTGlyph name="Hbar" xMin="-39" yMin="4" xMax="1391" yMax="1401">
      <contour>
        <pt x="657" y="1391" on="1"/>
        <pt x="463" y="1284" on="1"/>
        <pt x="449" y="1032" on="1"/>
        <pt x="958" y="1028" on="1"/>
        <pt x="965" y="1188" on="1"/>
        <pt x="780" y="1298" on="1"/>
        <pt x="1372" y="1335" on="1"/>
        <pt x="1147" y="1151" on="1"/>
        <pt x="1151" y="1026" on="1"/>
        <pt x="1305" y="1026" on="1"/>
        <pt x="1290" y="864" on="1"/>
        <pt x="1157" y="866" on="1"/>
        <pt x="1184" y="145" on="1"/>
        <pt x="1391" y="8" on="1"/>
        <pt x="680" y="4" on="1"/>
        <pt x="932" y="172" on="1"/>
        <pt x="948" y="643" on="1"/>
        <pt x="428" y="653" on="1"/>
        <pt x="406" y="242" on="1"/>
        <pt x="553" y="94" on="1"/>
        <pt x="66" y="94" on="1"/>
        <pt x="238" y="233" on="1"/>
        <pt x="199" y="885" on="1"/>
        <pt x="68" y="887" on="1"/>
        <pt x="78" y="1036" on="1"/>
        <pt x="190" y="1034" on="1"/>
        <pt x="178" y="1270" on="1"/>
        <pt x="-39" y="1401" on="1"/>
      </contour>
      <contour>
        <pt x="952" y="772" on="1"/>
        <pt x="954" y="870" on="1"/>
        <pt x="440" y="881" on="1"/>
        <pt x="436" y="788" on="1"/>
      </contour>
    </TTGlyph>
    <TTGlyph name="Hcircumflex" xMin="-39" yMin="4" xMax="1391" yMax="1779">
      <component glyphName="H" x="0" y="0" flags="0x204"/>
      <component glyphName="circumflex" x="436" y="315" flags="0x4"/>
    </TTGlyph>
    <TTGlyph name="I" xMin="-33" yMin="-25" xMax="676" yMax="1311">
      <contour>
        <pt x="440" y="1087" on="1"/>
        <pt x="469" y="182" on="1"/>
        <pt x="676" y="37" on="1"/>
        <pt x="-33" y="-25" on="1"/>
        <pt x="211" y="178" on="1"/>
        <pt x="272" y="1147" on="1"/>
        <pt x="63" y="1311" on="1"/>
        <pt x="672" y="1274" on="1"/>
      </contour>
    </TTGlyph>
    <TTGlyph name="IJ" xMin="-33" yMin="-51" xMax="1911" yMax="1372">
      <component glyphName="I" x="0" y="0" flags="0x4"/>
      <component glyphName="J" x="684" y="0" flags="0x4"/>
    </TTGlyph>
    <TTGlyph name="Iacute" xMin="-33" yMin="-25" xMax="740" yMax="1715">
      <component glyphName="I" x="0" y="0" flags="0x204"/>
      <component glyphName="acute" x="371" y="240" flags="0x4"/>
    </TTGlyph>
    <TTGlyph name="Ibreve" xMin="-33" yMin="-25" xMax="676" yMax="1643">
      <component glyphName="I" x="0" y="0" flags="0x204"/>
      <component glyphName="breve" x="152" y="211" flags="0x4"/>
    </TTGlyph>
    <TTGlyph name="Icircumflex" xMin="-33" yMin="-25" xMax="676" yMax="1714">
      <component glyphName="I" x="0" y="0" flags="0x4"/>
      <component glyphName="circumflex" x="86" y="250" flags="0x4"/>
    </TTGlyph>
    <TTGlyph name="Idieresis" xMin="-33" yMin="-25" xMax="676" yMax="1595">
      <component glyphName="I" x="0" y="0" flags="0x204"/>
      <component glyphName="dieresis" x="96" y="215" flags="0x4"/>
    </TTGlyph>
    <TTGlyph name="Idotaccent" xMin="-33" yMin="-25" xMax="676" yMax="1567">
      <component glyphName="I" x="0" y="0" flags="0x204"/>
      <component glyphName="dotaccent" x="262" y="168" flags="0x4"/>
    </TTGlyph>
    <TTGlyph name="Igrave" xMin="-33" yMin="-25" xMax="676" yMax="1729">
      <component glyphName="I" x="0" y="0" flags="0x204"/>
      <component glyphName="grave" x="-19" y="254" flags="0x4"/>
    </TTGlyph>
    <TTGlyph name="Imacron" xMin="-33" yMin="-25" xMax="676" yMax="1564">
      <component glyphName="I" x="0" y="0" flags="0x204"/>
      <component glyphName="macron" x="104" y="178" flags="0x4"/>
    </TTGlyph>
    <TTGlyph name="Iogonek" xMin="-33" yMin="-264" xMax="676" yMax="1311">
      <contour>
        <pt x="440" y="1087" on="1"/>
        <pt x="469" y="182" on="1"/>
        <pt x="676" y="37" on="1"/>
        <pt x="367" y="10" on="1"/>
        <pt x="333" y="-22" on="0"/>
        <pt x="289" y="-91" on="0"/>
        <pt x="289" y="-119" on="1"/>
        <pt x="289" y="-139" on="0"/>
        <pt x="318" y="-162" on="0"/>
        <pt x="338" y="-162" on="1"/>
        <pt x="361" y="-162" on="0"/>
        <pt x="406" y="-141" on="0"/>
        <pt x="422" y="-129" on="1"/>
        <pt x="446" y="-176" on="1"/>
        <pt x="440" y="-195" on="0"/>
        <pt x="410" y="-227" on="0"/>
        <pt x="372" y="-251" on="0"/>
        <pt x="332" y="-264" on="0"/>
        <pt x="317" y="-264" on="1"/>
        <pt x="293" y="-264" on="0"/>
        <pt x="249" y="-251" on="0"/>
        <pt x="214" y="-223" on="0"/>
        <pt x="193" y="-177" on="0"/>
        <pt x="193" y="-145" on="1"/>
        <pt x="193" y="-108" on="0"/>
        <pt x="243" y="-30" on="0"/>
        <pt x="285" y="2" on="1"/>
        <pt x="-33" y="-25" on="1"/>
        <pt x="211" y="178" on="1"/>
        <pt x="272" y="1147" on="1"/>
        <pt x="63" y="1311" on="1"/>
        <pt x="672" y="1274" on="1"/>
      </contour>
    </TTGlyph>
    <TTGlyph name="Itilde" xMin="-33" yMin="-25" xMax="676" yMax="1612">
      <component glyphName="I" x="0" y="0" flags="0x204"/>
      <component glyphName="tilde" x="51" y="201" flags="0x4"/>
    </TTGlyph>
    <TTGlyph name="J" xMin="2" yMin="-51" xMax="1227" yMax="1372">
      <contour>
        <pt x="1227" y="1372" on="1"/>
        <pt x="1014" y="1210" on="1"/>
        <pt x="1016" y="1150" on="0"/>
        <pt x="1016" y="1043" on="0"/>
        <pt x="1016" y="993" on="1"/>
        <pt x="1016" y="810" on="0"/>
        <pt x="1002" y="563" on="0"/>
        <pt x="994" y="485" on="1"/>
        <pt x="984" y="394" on="0"/>
        <pt x="973" y="340" on="1"/>
        <pt x="954" y="269" on="0"/>
        <pt x="876" y="130" on="0"/>
        <pt x="755" y="18" on="0"/>
        <pt x="586" y="-51" on="0"/>
        <pt x="475" y="-51" on="1"/>
        <pt x="354" y="-51" on="0"/>
        <pt x="176" y="22" on="0"/>
        <pt x="59" y="141" on="0"/>
        <pt x="2" y="290" on="0"/>
        <pt x="2" y="365" on="1"/>
        <pt x="2" y="422" on="0"/>
        <pt x="39" y="528" on="0"/>
        <pt x="107" y="610" on="0"/>
        <pt x="201" y="659" on="0"/>
        <pt x="258" y="659" on="1"/>
        <pt x="306" y="659" on="0"/>
        <pt x="360" y="641" on="1"/>
        <pt x="324" y="620" on="0"/>
        <pt x="273" y="568" on="0"/>
        <pt x="238" y="512" on="0"/>
        <pt x="218" y="457" on="0"/>
        <pt x="208" y="408" on="0"/>
        <pt x="205" y="370" on="0"/>
        <pt x="205" y="360" on="1"/>
        <pt x="205" y="292" on="0"/>
        <pt x="242" y="181" on="0"/>
        <pt x="309" y="102" on="0"/>
        <pt x="403" y="59" on="0"/>
        <pt x="459" y="59" on="1"/>
        <pt x="529" y="59" on="0"/>
        <pt x="642" y="118" on="0"/>
        <pt x="722" y="232" on="0"/>
        <pt x="766" y="401" on="0"/>
        <pt x="766" y="512" on="1"/>
        <pt x="766" y="585" on="0"/>
        <pt x="757" y="748" on="0"/>
        <pt x="742" y="915" on="0"/>
        <pt x="722" y="1081" on="0"/>
        <pt x="711" y="1157" on="1"/>
        <pt x="444" y="1315" on="1"/>
      </contour>
    </TTGlyph>
    <TTGlyph name="Jcircumflex" xMin="2" yMin="-51" xMax="1227" yMax="1724">
      <component glyphName="J" x="0" y="0" flags="0x204"/>
      <component glyphName="circumflex" x="545" y="260" flags="0x4"/>
    </TTGlyph>
    <TTGlyph name="K" xMin="-45" yMin="-10" xMax="1425" yMax="1403">
      <contour>
        <pt x="1425" y="1364" on="1"/>
        <pt x="1139" y="1268" on="1"/>
        <pt x="559" y="557" on="1"/>
        <pt x="651" y="456" on="0"/>
        <pt x="808" y="336" on="0"/>
        <pt x="868" y="304" on="1"/>
        <pt x="937" y="266" on="0"/>
        <pt x="995" y="252" on="1"/>
        <pt x="1032" y="245" on="0"/>
        <pt x="1111" y="255" on="0"/>
        <pt x="1189" y="282" on="0"/>
        <pt x="1263" y="322" on="0"/>
        <pt x="1326" y="365" on="0"/>
        <pt x="1376" y="408" on="0"/>
        <pt x="1391" y="426" on="1"/>
        <pt x="1380" y="356" on="0"/>
        <pt x="1327" y="237" on="0"/>
        <pt x="1255" y="141" on="0"/>
        <pt x="1174" y="68" on="0"/>
        <pt x="1096" y="18" on="0"/>
        <pt x="1030" y="-9" on="0"/>
        <pt x="1010" y="-10" on="1"/>
        <pt x="954" y="-7" on="0"/>
        <pt x="871" y="45" on="1"/>
        <pt x="836" y="67" on="0"/>
        <pt x="747" y="136" on="0"/>
        <pt x="640" y="239" on="0"/>
        <pt x="514" y="380" on="0"/>
        <pt x="442" y="473" on="1"/>
        <pt x="457" y="152" on="1"/>
        <pt x="702" y="35" on="1"/>
        <pt x="-45" y="-10" on="1"/>
        <pt x="225" y="188" on="1"/>
        <pt x="246" y="1237" on="1"/>
        <pt x="-6" y="1378" on="1"/>
        <pt x="664" y="1403" on="1"/>
        <pt x="414" y="1243" on="1"/>
        <pt x="438" y="604" on="1"/>
        <pt x="864" y="1284" on="1"/>
        <pt x="791" y="1403" on="1"/>
      </contour>
    </TTGlyph>
    <TTGlyph name="Kcommaaccent" xMin="-45" yMin="-328" xMax="1425" yMax="1403">
      <component glyphName="K" x="0" y="0" flags="0x204"/>
      <component glyphName="uni0326" x="487" y="47" flags="0x4"/>
    </TTGlyph>
    <TTGlyph name="L" xMin="-31" yMin="0" xMax="1118" yMax="1374">
      <contour>
        <pt x="1118" y="45" on="1"/>
        <pt x="-31" y="0" on="1"/>
        <pt x="223" y="221" on="1"/>
        <pt x="283" y="1188" on="1"/>
        <pt x="8" y="1331" on="1"/>
        <pt x="674" y="1374" on="1"/>
        <pt x="463" y="1231" on="1"/>
        <pt x="475" y="217" on="1"/>
        <pt x="938" y="160" on="1"/>
        <pt x="1118" y="498" on="1"/>
      </contour>
    </TTGlyph>
    <TTGlyph name="Lacute" xMin="-31" yMin="0" xMax="1118" yMax="1792">
      <component glyphName="L" x="0" y="0" flags="0x204"/>
      <component glyphName="acute" x="395" y="317" flags="0x4"/>
    </TTGlyph>
    <TTGlyph name="Lcaron" xMin="-31" yMin="0" xMax="1118" yMax="1491">
      <component glyphName="L" x="0" y="0" flags="0x204"/>
      <component glyphName="uni0315" x="678" y="129" flags="0x4"/>
    </TTGlyph>
    <TTGlyph name="Lcommaaccent" xMin="-31" yMin="-336" xMax="1118" yMax="1374">
      <component glyphName="L" x="0" y="0" flags="0x204"/>
      <component glyphName="uni0326" x="383" y="39" flags="0x4"/>
    </TTGlyph>
    <TTGlyph name="Ldot" xMin="-31" yMin="0" xMax="1513" yMax="1374">
      <component glyphName="L" x="0" y="0" flags="0x4"/>
      <component glyphName="periodcentered" x="1114" y="0" flags="0x4"/>
    </TTGlyph>
    <TTGlyph name="Lslash" xMin="-29" yMin="0" xMax="1120" yMax="1374">
      <contour>
        <pt x="473" y="610" on="1"/>
        <pt x="477" y="217" on="1"/>
        <pt x="940" y="160" on="1"/>
        <pt x="1120" y="498" on="1"/>
        <pt x="1120" y="45" on="1"/>
        <pt x="-29" y="0" on="1"/>
        <pt x="225" y="221" on="1"/>
        <pt x="244" y="496" on="1"/>
        <pt x="82" y="416" on="1"/>
        <pt x="51" y="567" on="1"/>
        <pt x="256" y="709" on="1"/>
        <pt x="285" y="1188" on="1"/>
        <pt x="10" y="1331" on="1"/>
        <pt x="676" y="1374" on="1"/>
        <pt x="465" y="1231" on="1"/>
        <pt x="469" y="854" on="1"/>
        <pt x="621" y="958" on="1"/>
        <pt x="688" y="719" on="1"/>
      </contour>
    </TTGlyph>
    <TTGlyph name="M" xMin="-25" yMin="-31" xMax="1663" yMax="1372">
      <contour>
        <pt x="1663" y="1348" on="1"/>
        <pt x="1413" y="1161" on="1"/>
        <pt x="1452" y="188" on="1"/>
        <pt x="1653" y="96" on="1"/>
        <pt x="1044" y="-31" on="1"/>
        <pt x="1292" y="188" on="1"/>
        <pt x="1128" y="981" on="1"/>
        <pt x="905" y="96" on="1"/>
        <pt x="422" y="901" on="1"/>
        <pt x="291" y="176" on="1"/>
        <pt x="483" y="14" on="1"/>
        <pt x="-25" y="-12" on="1"/>
        <pt x="176" y="170" on="1"/>
        <pt x="238" y="1214" on="1"/>
        <pt x="27" y="1348" on="1"/>
        <pt x="520" y="1372" on="1"/>
        <pt x="852" y="434" on="1"/>
        <pt x="1106" y="1362" on="1"/>
      </contour>
    </TTGlyph>
    <TTGlyph name="N" xMin="-20" yMin="-20" xMax="1556" yMax="1436">
      <contour>
        <pt x="1556" y="1337" on="1"/>
        <pt x="1272" y="1255" on="1"/>
        <pt x="1126" y="-20" on="1"/>
        <pt x="479" y="977" on="1"/>
        <pt x="377" y="203" on="1"/>
        <pt x="655" y="55" on="1"/>
        <pt x="-2" y="6" on="1"/>
        <pt x="260" y="203" on="1"/>
        <pt x="279" y="1204" on="1"/>
        <pt x="-20" y="1309" on="1"/>
        <pt x="633" y="1417" on="1"/>
        <pt x="1022" y="412" on="1"/>
        <pt x="1141" y="1229" on="1"/>
        <pt x="922" y="1436" on="1"/>
      </contour>
    </TTGlyph>
    <TTGlyph name="Nacute" xMin="-20" yMin="-20" xMax="1556" yMax="1809">
      <component glyphName="N" x="0" y="0" flags="0x204"/>
      <component glyphName="acute" x="786" y="334" flags="0x4"/>
    </TTGlyph>
    <TTGlyph name="Ncaron" xMin="-20" yMin="-20" xMax="1556" yMax="1773">
      <component glyphName="N" x="0" y="0" flags="0x204"/>
      <component glyphName="caron" x="500" y="309" flags="0x4"/>
    </TTGlyph>
    <TTGlyph name="Ncommaaccent" xMin="-20" yMin="-332" xMax="1556" yMax="1436">
      <component glyphName="N" x="0" y="0" flags="0x204"/>
      <component glyphName="uni0326" x="526" y="43" flags="0x4"/>
    </TTGlyph>
    <TTGlyph name="Ntilde" xMin="-20" yMin="-20" xMax="1556" yMax="1728">
      <component glyphName="N" x="0" y="0" flags="0x204"/>
      <component glyphName="tilde" x="500" y="317" flags="0x4"/>
    </TTGlyph>
    <TTGlyph name="O" xMin="61" yMin="0" xMax="1393" yMax="1409">
      <contour>
        <pt x="1393" y="707" on="1"/>
        <pt x="1393" y="540" on="0"/>
        <pt x="1290" y="277" on="0"/>
        <pt x="1112" y="96" on="0"/>
        <pt x="875" y="0" on="0"/>
        <pt x="741" y="0" on="1"/>
        <pt x="653" y="0" on="0"/>
        <pt x="484" y="42" on="0"/>
        <pt x="333" y="122" on="0"/>
        <pt x="205" y="237" on="0"/>
        <pt x="113" y="386" on="0"/>
        <pt x="61" y="565" on="0"/>
        <pt x="61" y="668" on="1"/>
        <pt x="61" y="828" on="0"/>
        <pt x="166" y="1099" on="0"/>
        <pt x="353" y="1297" on="0"/>
        <pt x="608" y="1409" on="0"/>
        <pt x="758" y="1409" on="1"/>
        <pt x="884" y="1409" on="0"/>
        <pt x="1114" y="1316" on="0"/>
        <pt x="1289" y="1136" on="0"/>
        <pt x="1393" y="875" on="0"/>
      </contour>
      <contour>
        <pt x="1124" y="688" on="1"/>
        <pt x="1124" y="812" on="0"/>
        <pt x="1040" y="999" on="0"/>
        <pt x="906" y="1125" on="0"/>
        <pt x="736" y="1188" on="0"/>
        <pt x="651" y="1188" on="1"/>
        <pt x="553" y="1188" on="0"/>
        <pt x="385" y="1116" on="0"/>
        <pt x="261" y="981" on="0"/>
        <pt x="190" y="788" on="0"/>
        <pt x="190" y="668" on="1"/>
        <pt x="190" y="554" on="0"/>
        <pt x="260" y="376" on="0"/>
        <pt x="382" y="253" on="0"/>
        <pt x="545" y="188" on="0"/>
        <pt x="637" y="188" on="1"/>
        <pt x="730" y="188" on="0"/>
        <pt x="905" y="253" on="0"/>
        <pt x="1042" y="380" on="0"/>
        <pt x="1124" y="567" on="0"/>
      </contour>
    </TTGlyph>
    <TTGlyph name="OE" xMin="61" yMin="0" xMax="2042" yMax="1413">
      <contour>
        <pt x="2042" y="57" on="1"/>
        <pt x="911" y="20" on="1"/>
        <pt x="869" y="9" on="0"/>
        <pt x="785" y="0" on="0"/>
        <pt x="741" y="0" on="1"/>
        <pt x="653" y="0" on="0"/>
        <pt x="484" y="42" on="0"/>
        <pt x="333" y="122" on="0"/>
        <pt x="205" y="237" on="0"/>
        <pt x="113" y="386" on="0"/>
        <pt x="61" y="565" on="0"/>
        <pt x="61" y="668" on="1"/>
        <pt x="61" y="828" on="0"/>
        <pt x="166" y="1099" on="0"/>
        <pt x="353" y="1297" on="0"/>
        <pt x="608" y="1409" on="0"/>
        <pt x="758" y="1409" on="1"/>
        <pt x="832" y="1409" on="0"/>
        <pt x="973" y="1375" on="0"/>
        <pt x="1038" y="1343" on="1"/>
        <pt x="2005" y="1413" on="1"/>
        <pt x="2023" y="944" on="1"/>
        <pt x="1837" y="1278" on="1"/>
        <pt x="1380" y="1204" on="1"/>
        <pt x="1395" y="711" on="1"/>
        <pt x="1499" y="725" on="1"/>
        <pt x="1706" y="999" on="1"/>
        <pt x="1720" y="369" on="1"/>
        <pt x="1540" y="627" on="1"/>
        <pt x="1399" y="606" on="1"/>
        <pt x="1409" y="213" on="1"/>
        <pt x="1858" y="172" on="1"/>
        <pt x="2025" y="592" on="1"/>
      </contour>
      <contour>
        <pt x="1124" y="688" on="1"/>
        <pt x="1124" y="812" on="0"/>
        <pt x="1040" y="999" on="0"/>
        <pt x="906" y="1125" on="0"/>
        <pt x="736" y="1188" on="0"/>
        <pt x="651" y="1188" on="1"/>
        <pt x="553" y="1188" on="0"/>
        <pt x="385" y="1116" on="0"/>
        <pt x="261" y="981" on="0"/>
        <pt x="190" y="788" on="0"/>
        <pt x="190" y="668" on="1"/>
        <pt x="190" y="554" on="0"/>
        <pt x="260" y="376" on="0"/>
        <pt x="382" y="253" on="0"/>
        <pt x="545" y="188" on="0"/>
        <pt x="637" y="188" on="1"/>
        <pt x="730" y="188" on="0"/>
        <pt x="905" y="253" on="0"/>
        <pt x="1042" y="380" on="0"/>
        <pt x="1124" y="567" on="0"/>
      </contour>
      <contour>
        <pt x="1235" y="1188" on="1"/>
        <pt x="1235" y="1190" on="1"/>
        <pt x="1231" y="1192" on="1"/>
      </contour>
    </TTGlyph>
    <TTGlyph name="Oacute" xMin="61" yMin="0" xMax="1393" yMax="1821">
      <component glyphName="O" x="0" y="0" flags="0x204"/>
      <component glyphName="acute" x="670" y="346" flags="0x4"/>
    </TTGlyph>
    <TTGlyph name="Obreve" xMin="61" yMin="0" xMax="1393" yMax="1737">
      <component glyphName="O" x="0" y="0" flags="0x204"/>
      <component glyphName="breve" x="520" y="305" flags="0x4"/>
    </TTGlyph>
    <TTGlyph name="Ocircumflex" xMin="61" yMin="0" xMax="1393" yMax="1796">
      <component glyphName="O" x="0" y="0" flags="0x204"/>
      <component glyphName="circumflex" x="424" y="332" flags="0x4"/>
    </TTGlyph>
    <TTGlyph name="Odieresis" xMin="61" yMin="0" xMax="1393" yMax="1689">
      <component glyphName="O" x="0" y="0" flags="0x204"/>
      <component glyphName="dieresis" x="469" y="309" flags="0x4"/>
    </TTGlyph>
    <TTGlyph name="Ograve" xMin="61" yMin="0" xMax="1393" yMax="1827">
      <component glyphName="O" x="0" y="0" flags="0x204"/>
      <component glyphName="grave" x="287" y="352" flags="0x4"/>
    </TTGlyph>
    <TTGlyph name="Ohungarumlaut" xMin="61" yMin="0" xMax="1393" yMax="1853">
      <component glyphName="O" x="0" y="0" flags="0x204"/>
      <component glyphName="hungarumlaut" x="649" y="354" flags="0x4"/>
    </TTGlyph>
    <TTGlyph name="Omacron" xMin="61" yMin="0" xMax="1393" yMax="1642">
      <component glyphName="O" x="0" y="0" flags="0x204"/>
      <component glyphName="macron" x="469" y="256" flags="0x4"/>
    </TTGlyph>
    <TTGlyph name="Oslash" xMin="61" yMin="-35" xMax="1393" yMax="1470">
      <contour>
        <pt x="1178" y="1247" on="1"/>
        <pt x="1275" y="1158" on="0"/>
        <pt x="1393" y="885" on="0"/>
        <pt x="1393" y="707" on="1"/>
        <pt x="1393" y="540" on="0"/>
        <pt x="1290" y="277" on="0"/>
        <pt x="1112" y="96" on="0"/>
        <pt x="875" y="0" on="0"/>
        <pt x="741" y="0" on="1"/>
        <pt x="658" y="0" on="0"/>
        <pt x="498" y="37" on="0"/>
        <pt x="426" y="72" on="1"/>
        <pt x="356" y="-35" on="1"/>
        <pt x="268" y="14" on="1"/>
        <pt x="328" y="131" on="1"/>
        <pt x="269" y="174" on="0"/>
        <pt x="170" y="286" on="0"/>
        <pt x="100" y="421" on="0"/>
        <pt x="61" y="579" on="0"/>
        <pt x="61" y="668" on="1"/>
        <pt x="61" y="828" on="0"/>
        <pt x="166" y="1099" on="0"/>
        <pt x="353" y="1297" on="0"/>
        <pt x="608" y="1409" on="0"/>
        <pt x="758" y="1409" on="1"/>
        <pt x="815" y="1409" on="0"/>
        <pt x="924" y="1389" on="0"/>
        <pt x="977" y="1370" on="1"/>
        <pt x="1030" y="1470" on="1"/>
        <pt x="1282" y="1411" on="1"/>
      </contour>
      <contour>
        <pt x="190" y="668" on="1"/>
        <pt x="190" y="523" on="0"/>
        <pt x="302" y="314" on="0"/>
        <pt x="393" y="256" on="1"/>
        <pt x="856" y="1141" on="1"/>
        <pt x="807" y="1164" on="0"/>
        <pt x="704" y="1188" on="0"/>
        <pt x="651" y="1188" on="1"/>
        <pt x="553" y="1188" on="0"/>
        <pt x="385" y="1116" on="0"/>
        <pt x="261" y="981" on="0"/>
        <pt x="190" y="788" on="0"/>
      </contour>
      <contour>
        <pt x="1124" y="688" on="1"/>
        <pt x="1124" y="787" on="0"/>
        <pt x="1068" y="946" on="0"/>
        <pt x="1022" y="1006" on="1"/>
        <pt x="510" y="205" on="1"/>
        <pt x="541" y="196" on="0"/>
        <pt x="603" y="188" on="0"/>
        <pt x="637" y="188" on="1"/>
        <pt x="730" y="188" on="0"/>
        <pt x="905" y="253" on="0"/>
        <pt x="1042" y="380" on="0"/>
        <pt x="1124" y="567" on="0"/>
      </contour>
    </TTGlyph>
    <TTGlyph name="Oslashacute" xMin="61" yMin="-35" xMax="1393" yMax="1837">
      <component glyphName="Oslash" x="0" y="0" flags="0x204"/>
      <component glyphName="acute" x="762" y="362" flags="0x4"/>
    </TTGlyph>
    <TTGlyph name="Otilde" xMin="61" yMin="0" xMax="1393" yMax="1706">
      <component glyphName="O" x="0" y="0" flags="0x204"/>
      <component glyphName="tilde" x="418" y="295" flags="0x4"/>
    </TTGlyph>
    <TTGlyph name="P" xMin="-31" yMin="14" xMax="1214" yMax="1397">
      <contour>
        <pt x="461" y="428" on="1"/>
        <pt x="461" y="139" on="1"/>
        <pt x="713" y="14" on="1"/>
        <pt x="-31" y="14" on="1"/>
        <pt x="217" y="162" on="1"/>
        <pt x="287" y="1190" on="1"/>
        <pt x="-12" y="1372" on="1"/>
        <pt x="40" y="1380" on="0"/>
        <pt x="149" y="1390" on="0"/>
        <pt x="256" y="1395" on="0"/>
        <pt x="357" y="1397" on="0"/>
        <pt x="401" y="1397" on="1"/>
        <pt x="501" y="1397" on="0"/>
        <pt x="699" y="1383" on="0"/>
        <pt x="880" y="1344" on="0"/>
        <pt x="1035" y="1276" on="0"/>
        <pt x="1149" y="1169" on="0"/>
        <pt x="1214" y="1017" on="0"/>
        <pt x="1214" y="915" on="1"/>
        <pt x="1214" y="822" on="0"/>
        <pt x="1155" y="678" on="0"/>
        <pt x="1054" y="569" on="0"/>
        <pt x="918" y="495" on="0"/>
        <pt x="766" y="448" on="0"/>
        <pt x="606" y="428" on="0"/>
        <pt x="530" y="428" on="1"/>
      </contour>
      <contour>
        <pt x="461" y="1264" on="1"/>
        <pt x="461" y="528" on="1"/>
        <pt x="578" y="528" on="0"/>
        <pt x="740" y="574" on="0"/>
        <pt x="848" y="645" on="0"/>
        <pt x="909" y="732" on="0"/>
        <pt x="939" y="813" on="0"/>
        <pt x="946" y="878" on="0"/>
        <pt x="946" y="893" on="1"/>
        <pt x="946" y="913" on="0"/>
        <pt x="939" y="984" on="0"/>
        <pt x="911" y="1066" on="0"/>
        <pt x="855" y="1151" on="0"/>
        <pt x="755" y="1220" on="0"/>
        <pt x="606" y="1264" on="0"/>
        <pt x="500" y="1264" on="1"/>
      </contour>
    </TTGlyph>
    <TTGlyph name="Q" xMin="57" yMin="-270" xMax="1386" yMax="1421">
      <contour>
        <pt x="1028" y="-270" on="1"/>
        <pt x="965" y="-270" on="0"/>
        <pt x="878" y="-223" on="0"/>
        <pt x="816" y="-144" on="0"/>
        <pt x="775" y="-42" on="0"/>
        <pt x="758" y="12" on="1"/>
        <pt x="731" y="12" on="1"/>
        <pt x="642" y="12" on="0"/>
        <pt x="474" y="53" on="0"/>
        <pt x="324" y="133" on="0"/>
        <pt x="198" y="250" on="0"/>
        <pt x="108" y="402" on="0"/>
        <pt x="57" y="588" on="0"/>
        <pt x="57" y="696" on="1"/>
        <pt x="57" y="803" on="0"/>
        <pt x="113" y="994" on="0"/>
        <pt x="210" y="1155" on="0"/>
        <pt x="341" y="1283" on="0"/>
        <pt x="491" y="1373" on="0"/>
        <pt x="652" y="1421" on="0"/>
        <pt x="731" y="1421" on="1"/>
        <pt x="866" y="1421" on="0"/>
        <pt x="1105" y="1328" on="0"/>
        <pt x="1283" y="1150" on="0"/>
        <pt x="1386" y="892" on="0"/>
        <pt x="1386" y="727" on="1"/>
        <pt x="1386" y="589" on="0"/>
        <pt x="1319" y="363" on="0"/>
        <pt x="1200" y="190" on="0"/>
        <pt x="1037" y="73" on="0"/>
        <pt x="940" y="43" on="1"/>
        <pt x="951" y="15" on="0"/>
        <pt x="978" y="-38" on="0"/>
        <pt x="1011" y="-79" on="0"/>
        <pt x="1053" y="-104" on="0"/>
        <pt x="1079" y="-104" on="1"/>
        <pt x="1105" y="-104" on="0"/>
        <pt x="1142" y="-85" on="0"/>
        <pt x="1165" y="-55" on="0"/>
        <pt x="1176" y="-16" on="0"/>
        <pt x="1176" y="4" on="1"/>
        <pt x="1176" y="33" on="0"/>
        <pt x="1156" y="83" on="0"/>
        <pt x="1139" y="92" on="1"/>
        <pt x="1204" y="92" on="0"/>
        <pt x="1278" y="11" on="0"/>
        <pt x="1278" y="-51" on="1"/>
        <pt x="1278" y="-102" on="0"/>
        <pt x="1231" y="-183" on="0"/>
        <pt x="1157" y="-240" on="0"/>
        <pt x="1069" y="-270" on="0"/>
      </contour>
      <contour>
        <pt x="1118" y="688" on="1"/>
        <pt x="1118" y="812" on="0"/>
        <pt x="1034" y="999" on="0"/>
        <pt x="899" y="1125" on="0"/>
        <pt x="730" y="1188" on="0"/>
        <pt x="645" y="1188" on="1"/>
        <pt x="547" y="1188" on="0"/>
        <pt x="379" y="1116" on="0"/>
        <pt x="255" y="981" on="0"/>
        <pt x="184" y="788" on="0"/>
        <pt x="184" y="668" on="1"/>
        <pt x="184" y="550" on="0"/>
        <pt x="257" y="369" on="0"/>
        <pt x="322" y="307" on="1"/>
        <pt x="355" y="359" on="0"/>
        <pt x="444" y="417" on="0"/>
        <pt x="485" y="431" on="1"/>
        <pt x="533" y="448" on="0"/>
        <pt x="582" y="451" on="1"/>
        <pt x="645" y="451" on="0"/>
        <pt x="739" y="421" on="0"/>
        <pt x="808" y="368" on="0"/>
        <pt x="856" y="294" on="0"/>
        <pt x="874" y="250" on="1"/>
        <pt x="927" y="279" on="0"/>
        <pt x="1017" y="364" on="0"/>
        <pt x="1082" y="474" on="0"/>
        <pt x="1118" y="609" on="0"/>
      </contour>
      <contour>
        <pt x="526" y="350" on="1"/>
        <pt x="475" y="350" on="0"/>
        <pt x="397" y="301" on="0"/>
        <pt x="371" y="266" on="1"/>
        <pt x="426" y="228" on="0"/>
        <pt x="556" y="188" on="0"/>
        <pt x="631" y="188" on="1"/>
        <pt x="648" y="188" on="0"/>
        <pt x="683" y="191" on="0"/>
        <pt x="700" y="193" on="1"/>
        <pt x="687" y="227" on="0"/>
        <pt x="656" y="284" on="0"/>
        <pt x="614" y="325" on="0"/>
        <pt x="560" y="349" on="0"/>
      </contour>
    </TTGlyph>
    <TTGlyph name="R" xMin="-20" yMin="-59" xMax="1290" yMax="1343">
      <contour>
        <pt x="1290" y="397" on="1"/>
        <pt x="1263" y="260" on="0"/>
        <pt x="1179" y="83" on="0"/>
        <pt x="1093" y="-19" on="0"/>
        <pt x="1018" y="-59" on="0"/>
        <pt x="999" y="-59" on="1"/>
        <pt x="969" y="-59" on="0"/>
        <pt x="875" y="-7" on="0"/>
        <pt x="762" y="75" on="0"/>
        <pt x="641" y="178" on="0"/>
        <pt x="529" y="280" on="0"/>
        <pt x="435" y="370" on="0"/>
        <pt x="406" y="399" on="1"/>
        <pt x="414" y="152" on="1"/>
        <pt x="625" y="35" on="1"/>
        <pt x="-10" y="-10" on="1"/>
        <pt x="203" y="186" on="1"/>
        <pt x="240" y="1192" on="1"/>
        <pt x="-20" y="1317" on="1"/>
        <pt x="175" y="1328" on="0"/>
        <pt x="447" y="1339" on="0"/>
        <pt x="625" y="1343" on="0"/>
        <pt x="721" y="1343" on="0"/>
        <pt x="741" y="1343" on="1"/>
        <pt x="784" y="1343" on="0"/>
        <pt x="885" y="1328" on="0"/>
        <pt x="985" y="1293" on="0"/>
        <pt x="1079" y="1239" on="0"/>
        <pt x="1151" y="1161" on="0"/>
        <pt x="1194" y="1058" on="0"/>
        <pt x="1194" y="993" on="1"/>
        <pt x="1194" y="978" on="0"/>
        <pt x="1187" y="925" on="0"/>
        <pt x="1165" y="856" on="0"/>
        <pt x="1121" y="779" on="0"/>
        <pt x="1046" y="702" on="0"/>
        <pt x="936" y="630" on="0"/>
        <pt x="781" y="574" on="0"/>
        <pt x="576" y="539" on="0"/>
        <pt x="444" y="537" on="1"/>
        <pt x="509" y="488" on="0"/>
        <pt x="661" y="377" on="0"/>
        <pt x="817" y="284" on="0"/>
        <pt x="967" y="223" on="0"/>
        <pt x="1032" y="223" on="1"/>
        <pt x="1063" y="223" on="0"/>
        <pt x="1134" y="237" on="0"/>
        <pt x="1203" y="276" on="0"/>
        <pt x="1266" y="343" on="0"/>
      </contour>
      <contour>
        <pt x="905" y="946" on="1"/>
        <pt x="905" y="977" on="0"/>
        <pt x="895" y="1039" on="0"/>
        <pt x="863" y="1095" on="0"/>
        <pt x="803" y="1145" on="0"/>
        <pt x="702" y="1181" on="0"/>
        <pt x="554" y="1202" on="0"/>
        <pt x="451" y="1202" on="1"/>
        <pt x="435" y="1202" on="0"/>
        <pt x="405" y="1202" on="0"/>
        <pt x="389" y="1200" on="1"/>
        <pt x="399" y="666" on="1"/>
        <pt x="462" y="667" on="0"/>
        <pt x="586" y="686" on="0"/>
        <pt x="698" y="720" on="0"/>
        <pt x="795" y="768" on="0"/>
        <pt x="865" y="829" on="0"/>
        <pt x="905" y="903" on="0"/>
      </contour>
    </TTGlyph>
    <TTGlyph name="Racute" xMin="-20" yMin="-59" xMax="1290" yMax="1774">
      <component glyphName="R" x="0" y="0" flags="0x204"/>
      <component glyphName="acute" x="584" y="299" flags="0x4"/>
    </TTGlyph>
    <TTGlyph name="Rcaron" xMin="-20" yMin="-59" xMax="1290" yMax="1714">
      <component glyphName="R" x="0" y="0" flags="0x204"/>
      <component glyphName="caron" x="362" y="250" flags="0x4"/>
    </TTGlyph>
    <TTGlyph name="Rcommaaccent" xMin="-20" yMin="-336" xMax="1290" yMax="1343">
      <component glyphName="R" x="0" y="0" flags="0x204"/>
      <component glyphName="uni0326" x="434" y="39" flags="0x4"/>
    </TTGlyph>
    <TTGlyph name="S" xMin="-57" yMin="-55" xMax="1229" yMax="1389">
      <contour>
        <pt x="549" y="1354" on="1"/>
        <pt x="617" y="1354" on="0"/>
        <pt x="742" y="1329" on="0"/>
        <pt x="850" y="1288" on="0"/>
        <pt x="938" y="1236" on="0"/>
        <pt x="969" y="1210" on="1"/>
        <pt x="1229" y="1389" on="1"/>
        <pt x="930" y="815" on="1"/>
        <pt x="907" y="1116" on="1"/>
        <pt x="878" y="1136" on="0"/>
        <pt x="811" y="1167" on="0"/>
        <pt x="744" y="1188" on="0"/>
        <pt x="682" y="1201" on="0"/>
        <pt x="634" y="1209" on="0"/>
        <pt x="605" y="1212" on="0"/>
        <pt x="604" y="1212" on="1"/>
        <pt x="536" y="1212" on="0"/>
        <pt x="444" y="1182" on="0"/>
        <pt x="387" y="1134" on="0"/>
        <pt x="362" y="1073" on="0"/>
        <pt x="362" y="1042" on="1"/>
        <pt x="362" y="979" on="0"/>
        <pt x="414" y="892" on="0"/>
        <pt x="520" y="824" on="0"/>
        <pt x="684" y="765" on="0"/>
        <pt x="795" y="731" on="1"/>
        <pt x="862" y="710" on="0"/>
        <pt x="981" y="639" on="0"/>
        <pt x="1069" y="544" on="0"/>
        <pt x="1120" y="427" on="0"/>
        <pt x="1120" y="360" on="1"/>
        <pt x="1120" y="282" on="0"/>
        <pt x="1076" y="161" on="0"/>
        <pt x="1003" y="70" on="0"/>
        <pt x="907" y="7" on="0"/>
        <pt x="804" y="-32" on="0"/>
        <pt x="699" y="-49" on="0"/>
        <pt x="653" y="-49" on="1"/>
        <pt x="518" y="-49" on="0"/>
        <pt x="298" y="43" on="0"/>
        <pt x="203" y="123" on="1"/>
        <pt x="-57" y="-55" on="1"/>
        <pt x="233" y="459" on="1"/>
        <pt x="245" y="387" on="0"/>
        <pt x="306" y="254" on="0"/>
        <pt x="396" y="150" on="0"/>
        <pt x="514" y="88" on="0"/>
        <pt x="584" y="88" on="1"/>
        <pt x="640" y="88" on="0"/>
        <pt x="733" y="122" on="0"/>
        <pt x="799" y="179" on="0"/>
        <pt x="836" y="254" on="0"/>
        <pt x="836" y="295" on="1"/>
        <pt x="836" y="352" on="0"/>
        <pt x="772" y="435" on="0"/>
        <pt x="668" y="500" on="0"/>
        <pt x="535" y="555" on="0"/>
        <pt x="395" y="613" on="0"/>
        <pt x="262" y="683" on="0"/>
        <pt x="158" y="778" on="0"/>
        <pt x="94" y="906" on="0"/>
        <pt x="94" y="993" on="1"/>
        <pt x="94" y="1060" on="0"/>
        <pt x="147" y="1189" on="0"/>
        <pt x="258" y="1291" on="0"/>
        <pt x="430" y="1354" on="0"/>
      </contour>
    </TTGlyph>
    <TTGlyph name="Sacute" xMin="-57" yMin="-55" xMax="1229" yMax="1784">
      <component glyphName="S" x="0" y="0" flags="0x204"/>
      <component glyphName="acute" x="586" y="309" flags="0x4"/>
    </TTGlyph>
    <TTGlyph name="Scaron" xMin="-57" yMin="-55" xMax="1229" yMax="1740">
      <component glyphName="S" x="0" y="0" flags="0x204"/>
      <component glyphName="caron" x="346" y="276" flags="0x4"/>
    </TTGlyph>
    <TTGlyph name="Scedilla" xMin="-57" yMin="-358" xMax="1229" yMax="1389">
      <contour>
        <pt x="442" y="-225" on="1"/>
        <pt x="455" y="-241" on="0"/>
        <pt x="498" y="-272" on="0"/>
        <pt x="524" y="-272" on="1"/>
        <pt x="550" y="-272" on="0"/>
        <pt x="586" y="-235" on="0"/>
        <pt x="586" y="-207" on="1"/>
        <pt x="586" y="-192" on="0"/>
        <pt x="567" y="-175" on="0"/>
        <pt x="539" y="-165" on="0"/>
        <pt x="508" y="-162" on="0"/>
        <pt x="496" y="-162" on="1"/>
        <pt x="477" y="-162" on="0"/>
        <pt x="464" y="-163" on="0"/>
        <pt x="455" y="-166" on="1"/>
        <pt x="541" y="-41" on="1"/>
        <pt x="444" y="-24" on="0"/>
        <pt x="277" y="60" on="0"/>
        <pt x="203" y="123" on="1"/>
        <pt x="-57" y="-55" on="1"/>
        <pt x="233" y="459" on="1"/>
        <pt x="245" y="387" on="0"/>
        <pt x="306" y="254" on="0"/>
        <pt x="396" y="150" on="0"/>
        <pt x="514" y="88" on="0"/>
        <pt x="584" y="88" on="1"/>
        <pt x="640" y="88" on="0"/>
        <pt x="733" y="122" on="0"/>
        <pt x="799" y="179" on="0"/>
        <pt x="836" y="254" on="0"/>
        <pt x="836" y="295" on="1"/>
        <pt x="836" y="352" on="0"/>
        <pt x="772" y="435" on="0"/>
        <pt x="668" y="500" on="0"/>
        <pt x="535" y="555" on="0"/>
        <pt x="395" y="613" on="0"/>
        <pt x="262" y="683" on="0"/>
        <pt x="158" y="778" on="0"/>
        <pt x="94" y="906" on="0"/>
        <pt x="94" y="993" on="1"/>
        <pt x="94" y="1060" on="0"/>
        <pt x="147" y="1189" on="0"/>
        <pt x="258" y="1291" on="0"/>
        <pt x="430" y="1354" on="0"/>
        <pt x="549" y="1354" on="1"/>
        <pt x="617" y="1354" on="0"/>
        <pt x="742" y="1329" on="0"/>
        <pt x="850" y="1288" on="0"/>
        <pt x="938" y="1236" on="0"/>
        <pt x="969" y="1210" on="1"/>
        <pt x="1229" y="1389" on="1"/>
        <pt x="930" y="815" on="1"/>
        <pt x="907" y="1116" on="1"/>
        <pt x="878" y="1136" on="0"/>
        <pt x="811" y="1167" on="0"/>
        <pt x="744" y="1188" on="0"/>
        <pt x="682" y="1201" on="0"/>
        <pt x="634" y="1209" on="0"/>
        <pt x="605" y="1212" on="0"/>
        <pt x="604" y="1212" on="1"/>
        <pt x="536" y="1212" on="0"/>
        <pt x="444" y="1182" on="0"/>
        <pt x="387" y="1134" on="0"/>
        <pt x="362" y="1073" on="0"/>
        <pt x="362" y="1042" on="1"/>
        <pt x="362" y="979" on="0"/>
        <pt x="414" y="892" on="0"/>
        <pt x="520" y="824" on="0"/>
        <pt x="684" y="765" on="0"/>
        <pt x="795" y="731" on="1"/>
        <pt x="862" y="710" on="0"/>
        <pt x="981" y="639" on="0"/>
        <pt x="1069" y="544" on="0"/>
        <pt x="1120" y="427" on="0"/>
        <pt x="1120" y="360" on="1"/>
        <pt x="1120" y="282" on="0"/>
        <pt x="1076" y="161" on="0"/>
        <pt x="1003" y="70" on="0"/>
        <pt x="907" y="7" on="0"/>
        <pt x="804" y="-32" on="0"/>
        <pt x="699" y="-49" on="0"/>
        <pt x="653" y="-49" on="1"/>
        <pt x="641" y="-49" on="0"/>
        <pt x="617" y="-47" on="0"/>
        <pt x="604" y="-47" on="1"/>
        <pt x="575" y="-111" on="1"/>
        <pt x="590" y="-111" on="0"/>
        <pt x="627" y="-125" on="0"/>
        <pt x="660" y="-154" on="0"/>
        <pt x="682" y="-198" on="0"/>
        <pt x="682" y="-229" on="1"/>
        <pt x="682" y="-294" on="0"/>
        <pt x="605" y="-358" on="0"/>
        <pt x="545" y="-358" on="1"/>
        <pt x="527" y="-358" on="0"/>
        <pt x="487" y="-344" on="0"/>
        <pt x="450" y="-319" on="0"/>
        <pt x="421" y="-286" on="0"/>
        <pt x="414" y="-268" on="1"/>
      </contour>
    </TTGlyph>
    <TTGlyph name="Scircumflex" xMin="-57" yMin="-55" xMax="1229" yMax="1720">
      <component glyphName="S" x="0" y="0" flags="0x204"/>
      <component glyphName="circumflex" x="324" y="256" flags="0x4"/>
    </TTGlyph>
    <TTGlyph name="T" xMin="45" yMin="-35" xMax="1192" yMax="1360">
      <contour>
        <pt x="1192" y="1360" on="1"/>
        <pt x="1114" y="774" on="1"/>
        <pt x="999" y="1202" on="1"/>
        <pt x="692" y="1167" on="1"/>
        <pt x="733" y="168" on="1"/>
        <pt x="981" y="41" on="1"/>
        <pt x="182" y="-35" on="1"/>
        <pt x="473" y="176" on="1"/>
        <pt x="524" y="1157" on="1"/>
        <pt x="207" y="1169" on="1"/>
        <pt x="84" y="805" on="1"/>
        <pt x="45" y="1343" on="1"/>
      </contour>
    </TTGlyph>
    <TTGlyph name="Tbar" xMin="45" yMin="-35" xMax="1192" yMax="1360">
      <contour>
        <pt x="719" y="487" on="1"/>
        <pt x="733" y="168" on="1"/>
        <pt x="981" y="41" on="1"/>
        <pt x="182" y="-35" on="1"/>
        <pt x="473" y="176" on="1"/>
        <pt x="489" y="500" on="1"/>
        <pt x="203" y="516" on="1"/>
        <pt x="213" y="666" on="1"/>
        <pt x="500" y="684" on="1"/>
        <pt x="524" y="1157" on="1"/>
        <pt x="207" y="1169" on="1"/>
        <pt x="84" y="805" on="1"/>
        <pt x="45" y="1343" on="1"/>
        <pt x="1192" y="1360" on="1"/>
        <pt x="1114" y="774" on="1"/>
        <pt x="999" y="1202" on="1"/>
        <pt x="692" y="1167" on="1"/>
        <pt x="711" y="698" on="1"/>
        <pt x="1024" y="721" on="1"/>
        <pt x="1024" y="473" on="1"/>
      </contour>
    </TTGlyph>
    <TTGlyph name="Tcaron" xMin="45" yMin="-35" xMax="1192" yMax="1730">
      <component glyphName="T" x="0" y="0" flags="0x204"/>
      <component glyphName="caron" x="326" y="266" flags="0x4"/>
    </TTGlyph>
    <TTGlyph name="Tcommaaccent" xMin="45" yMin="-375" xMax="1192" yMax="1360">
      <component glyphName="T" x="0" y="0" flags="0x204"/>
      <component glyphName="uni0326" x="408" y="0" flags="0x4"/>
    </TTGlyph>
    <TTGlyph name="Thorn" xMin="-31" yMin="14" xMax="1214" yMax="1425">
      <contour>
        <pt x="678" y="1425" on="1"/>
        <pt x="461" y="1292" on="1"/>
        <pt x="461" y="1233" on="1"/>
        <pt x="556" y="1231" on="0"/>
        <pt x="741" y="1212" on="0"/>
        <pt x="908" y="1170" on="0"/>
        <pt x="1051" y="1101" on="0"/>
        <pt x="1155" y="995" on="0"/>
        <pt x="1214" y="849" on="0"/>
        <pt x="1214" y="752" on="1"/>
        <pt x="1214" y="659" on="0"/>
        <pt x="1155" y="514" on="0"/>
        <pt x="1054" y="405" on="0"/>
        <pt x="918" y="331" on="0"/>
        <pt x="766" y="284" on="0"/>
        <pt x="606" y="264" on="0"/>
        <pt x="530" y="264" on="1"/>
        <pt x="461" y="264" on="1"/>
        <pt x="461" y="139" on="1"/>
        <pt x="713" y="14" on="1"/>
        <pt x="-31" y="14" on="1"/>
        <pt x="217" y="162" on="1"/>
        <pt x="287" y="1192" on="1"/>
        <pt x="-6" y="1378" on="1"/>
      </contour>
      <contour>
        <pt x="500" y="1100" on="1"/>
        <pt x="492" y="1100" on="0"/>
        <pt x="472" y="1100" on="0"/>
        <pt x="461" y="1098" on="1"/>
        <pt x="461" y="365" on="1"/>
        <pt x="578" y="365" on="0"/>
        <pt x="740" y="411" on="0"/>
        <pt x="848" y="482" on="0"/>
        <pt x="909" y="568" on="0"/>
        <pt x="939" y="649" on="0"/>
        <pt x="946" y="714" on="0"/>
        <pt x="946" y="729" on="1"/>
        <pt x="946" y="749" on="0"/>
        <pt x="939" y="820" on="0"/>
        <pt x="911" y="902" on="0"/>
        <pt x="855" y="987" on="0"/>
        <pt x="755" y="1056" on="0"/>
        <pt x="606" y="1100" on="0"/>
      </contour>
    </TTGlyph>
    <TTGlyph name="U" xMin="-41" yMin="-12" xMax="1288" yMax="1384">
      <contour>
        <pt x="1288" y="1362" on="1"/>
        <pt x="1085" y="1198" on="1"/>
        <pt x="1087" y="1156" on="0"/>
        <pt x="1090" y="1070" on="0"/>
        <pt x="1090" y="1036" on="1"/>
        <pt x="1090" y="901" on="0"/>
        <pt x="1087" y="642" on="0"/>
        <pt x="1063" y="409" on="0"/>
        <pt x="1012" y="212" on="0"/>
        <pt x="916" y="69" on="0"/>
        <pt x="768" y="-12" on="0"/>
        <pt x="659" y="-12" on="1"/>
        <pt x="549" y="-12" on="0"/>
        <pt x="393" y="94" on="0"/>
        <pt x="286" y="274" on="0"/>
        <pt x="221" y="513" on="0"/>
        <pt x="183" y="781" on="0"/>
        <pt x="166" y="1061" on="0"/>
        <pt x="160" y="1192" on="1"/>
        <pt x="-41" y="1311" on="1"/>
        <pt x="659" y="1384" on="1"/>
        <pt x="440" y="1221" on="1"/>
        <pt x="438" y="1190" on="0"/>
        <pt x="438" y="1129" on="0"/>
        <pt x="438" y="1098" on="1"/>
        <pt x="438" y="1028" on="0"/>
        <pt x="438" y="868" on="0"/>
        <pt x="444" y="701" on="0"/>
        <pt x="456" y="534" on="0"/>
        <pt x="479" y="380" on="0"/>
        <pt x="515" y="248" on="0"/>
        <pt x="569" y="150" on="0"/>
        <pt x="642" y="94" on="0"/>
        <pt x="690" y="94" on="1"/>
        <pt x="754" y="94" on="0"/>
        <pt x="860" y="162" on="0"/>
        <pt x="936" y="307" on="0"/>
        <pt x="979" y="535" on="0"/>
        <pt x="979" y="696" on="1"/>
        <pt x="979" y="892" on="0"/>
        <pt x="952" y="1136" on="0"/>
        <pt x="940" y="1196" on="1"/>
        <pt x="737" y="1292" on="1"/>
      </contour>
    </TTGlyph>
    <TTGlyph name="Uacute" xMin="-41" yMin="-12" xMax="1288" yMax="1762">
      <component glyphName="U" x="0" y="0" flags="0x204"/>
      <component glyphName="acute" x="713" y="287" flags="0x4"/>
    </TTGlyph>
    <TTGlyph name="Ubreve" xMin="-41" yMin="-12" xMax="1288" yMax="1723">
      <component glyphName="U" x="0" y="0" flags="0x204"/>
      <component glyphName="breve" x="438" y="291" flags="0x4"/>
    </TTGlyph>
    <TTGlyph name="Ucircumflex" xMin="-41" yMin="-12" xMax="1288" yMax="1771">
      <component glyphName="U" x="0" y="0" flags="0x204"/>
      <component glyphName="circumflex" x="399" y="307" flags="0x4"/>
    </TTGlyph>
    <TTGlyph name="Udieresis" xMin="-41" yMin="-12" xMax="1288" yMax="1652">
      <component glyphName="U" x="0" y="0" flags="0x204"/>
      <component glyphName="dieresis" x="438" y="272" flags="0x4"/>
    </TTGlyph>
    <TTGlyph name="Ugrave" xMin="-41" yMin="-12" xMax="1288" yMax="1797">
      <component glyphName="U" x="0" y="0" flags="0x204"/>
      <component glyphName="grave" x="332" y="322" flags="0x4"/>
    </TTGlyph>
    <TTGlyph name="Uhungarumlaut" xMin="-41" yMin="-12" xMax="1288" yMax="1829">
      <component glyphName="U" x="0" y="0" flags="0x204"/>
      <component glyphName="hungarumlaut" x="573" y="330" flags="0x4"/>
    </TTGlyph>
    <TTGlyph name="Umacron" xMin="-41" yMin="-12" xMax="1288" yMax="1617">
      <component glyphName="U" x="0" y="0" flags="0x204"/>
      <component glyphName="macron" x="399" y="231" flags="0x4"/>
    </TTGlyph>
    <TTGlyph name="Uogonek" xMin="-41" yMin="-274" xMax="1288" yMax="1384">
      <contour>
        <pt x="1288" y="1362" on="1"/>
        <pt x="1085" y="1198" on="1"/>
        <pt x="1087" y="1156" on="0"/>
        <pt x="1090" y="1070" on="0"/>
        <pt x="1090" y="1036" on="1"/>
        <pt x="1090" y="917" on="0"/>
        <pt x="1088" y="685" on="0"/>
        <pt x="1071" y="473" on="0"/>
        <pt x="1036" y="286" on="0"/>
        <pt x="970" y="137" on="0"/>
        <pt x="868" y="31" on="0"/>
        <pt x="793" y="6" on="1"/>
        <pt x="755" y="-28" on="0"/>
        <pt x="707" y="-100" on="0"/>
        <pt x="707" y="-129" on="1"/>
        <pt x="707" y="-149" on="0"/>
        <pt x="736" y="-172" on="0"/>
        <pt x="756" y="-172" on="1"/>
        <pt x="779" y="-172" on="0"/>
        <pt x="824" y="-152" on="0"/>
        <pt x="840" y="-139" on="1"/>
        <pt x="864" y="-186" on="1"/>
        <pt x="858" y="-206" on="0"/>
        <pt x="828" y="-238" on="0"/>
        <pt x="790" y="-261" on="0"/>
        <pt x="750" y="-274" on="0"/>
        <pt x="735" y="-274" on="1"/>
        <pt x="711" y="-274" on="0"/>
        <pt x="666" y="-261" on="0"/>
        <pt x="631" y="-233" on="0"/>
        <pt x="610" y="-188" on="0"/>
        <pt x="610" y="-156" on="1"/>
        <pt x="610" y="-118" on="0"/>
        <pt x="658" y="-44" on="0"/>
        <pt x="698" y="-10" on="1"/>
        <pt x="689" y="-10" on="0"/>
        <pt x="670" y="-12" on="0"/>
        <pt x="659" y="-12" on="1"/>
        <pt x="549" y="-12" on="0"/>
        <pt x="393" y="94" on="0"/>
        <pt x="286" y="274" on="0"/>
        <pt x="221" y="513" on="0"/>
        <pt x="183" y="781" on="0"/>
        <pt x="166" y="1061" on="0"/>
        <pt x="160" y="1192" on="1"/>
        <pt x="-41" y="1311" on="1"/>
        <pt x="659" y="1384" on="1"/>
        <pt x="440" y="1221" on="1"/>
        <pt x="438" y="1190" on="0"/>
        <pt x="438" y="1129" on="0"/>
        <pt x="438" y="1098" on="1"/>
        <pt x="438" y="1028" on="0"/>
        <pt x="438" y="868" on="0"/>
        <pt x="444" y="701" on="0"/>
        <pt x="456" y="534" on="0"/>
        <pt x="479" y="380" on="0"/>
        <pt x="515" y="248" on="0"/>
        <pt x="569" y="150" on="0"/>
        <pt x="642" y="94" on="0"/>
        <pt x="690" y="94" on="1"/>
        <pt x="754" y="94" on="0"/>
        <pt x="860" y="162" on="0"/>
        <pt x="936" y="307" on="0"/>
        <pt x="979" y="535" on="0"/>
        <pt x="979" y="696" on="1"/>
        <pt x="979" y="892" on="0"/>
        <pt x="952" y="1136" on="0"/>
        <pt x="940" y="1196" on="1"/>
        <pt x="737" y="1292" on="1"/>
      </contour>
    </TTGlyph>
    <TTGlyph name="Uring" xMin="-41" yMin="-12" xMax="1288" yMax="1777">
      <component glyphName="U" x="0" y="0" flags="0x204"/>
      <component glyphName="ring" x="438" y="311" flags="0x4"/>
    </TTGlyph>
    <TTGlyph name="Utilde" xMin="-41" yMin="-12" xMax="1288" yMax="1681">
      <component glyphName="U" x="0" y="0" flags="0x204"/>
      <component glyphName="tilde" x="395" y="270" flags="0x4"/>
    </TTGlyph>
    <TTGlyph name="V" xMin="-57" yMin="-14" xMax="1360" yMax="1411">
      <contour>
        <pt x="1360" y="1251" on="1"/>
        <pt x="1122" y="1165" on="1"/>
        <pt x="825" y="158" on="1"/>
        <pt x="995" y="41" on="1"/>
        <pt x="338" y="-14" on="1"/>
        <pt x="516" y="193" on="1"/>
        <pt x="129" y="1161" on="1"/>
        <pt x="-57" y="1251" on="1"/>
        <pt x="549" y="1411" on="1"/>
        <pt x="403" y="1270" on="1"/>
        <pt x="655" y="213" on="1"/>
        <pt x="981" y="1169" on="1"/>
        <pt x="827" y="1393" on="1"/>
      </contour>
    </TTGlyph>
    <TTGlyph name="W" xMin="-76" yMin="-14" xMax="1618" yMax="1411">
      <contour>
        <pt x="1618" y="1325" on="1"/>
        <pt x="1366" y="1169" on="1"/>
        <pt x="1208" y="213" on="1"/>
        <pt x="1399" y="57" on="1"/>
        <pt x="827" y="57" on="1"/>
        <pt x="930" y="160" on="1"/>
        <pt x="811" y="934" on="1"/>
        <pt x="651" y="117" on="1"/>
        <pt x="817" y="-14" on="1"/>
        <pt x="240" y="16" on="1"/>
        <pt x="434" y="166" on="1"/>
        <pt x="152" y="1180" on="1"/>
        <pt x="-76" y="1292" on="1"/>
        <pt x="631" y="1411" on="1"/>
        <pt x="430" y="1264" on="1"/>
        <pt x="553" y="315" on="1"/>
        <pt x="723" y="995" on="1"/>
        <pt x="588" y="1092" on="1"/>
        <pt x="1110" y="1159" on="1"/>
        <pt x="936" y="1020" on="1"/>
        <pt x="1061" y="385" on="1"/>
        <pt x="1229" y="1217" on="1"/>
        <pt x="1038" y="1366" on="1"/>
      </contour>
    </TTGlyph>
    <TTGlyph name="Wacute" xMin="-76" yMin="-14" xMax="1618" yMax="1692">
      <component glyphName="W" x="0" y="0" flags="0x204"/>
      <component glyphName="acute" x="834" y="217" flags="0x4"/>
    </TTGlyph>
    <TTGlyph name="Wcircumflex" xMin="-76" yMin="-14" xMax="1618" yMax="1775">
      <component glyphName="W" x="0" y="0" flags="0x204"/>
      <component glyphName="circumflex" x="555" y="311" flags="0x4"/>
    </TTGlyph>
    <TTGlyph name="Wdieresis" xMin="-76" yMin="-14" xMax="1618" yMax="1685">
      <component glyphName="W" x="0" y="0" flags="0x204"/>
      <component glyphName="dieresis" x="592" y="305" flags="0x4"/>
    </TTGlyph>
    <TTGlyph name="Wgrave" xMin="-76" yMin="-14" xMax="1618" yMax="1721">
      <component glyphName="W" x="0" y="0" flags="0x204"/>
      <component glyphName="grave" x="475" y="246" flags="0x4"/>
    </TTGlyph>
    <TTGlyph name="X" xMin="-39" yMin="-51" xMax="1380" yMax="1393">
      <contour>
        <pt x="1380" y="1247" on="1"/>
        <pt x="1165" y="1163" on="1"/>
        <pt x="780" y="672" on="1"/>
        <pt x="1063" y="176" on="1"/>
        <pt x="1366" y="123" on="1"/>
        <pt x="735" y="-51" on="1"/>
        <pt x="915" y="176" on="1"/>
        <pt x="664" y="520" on="1"/>
        <pt x="377" y="156" on="1"/>
        <pt x="545" y="-18" on="1"/>
        <pt x="-39" y="119" on="1"/>
        <pt x="264" y="205" on="1"/>
        <pt x="563" y="657" on="1"/>
        <pt x="195" y="1159" on="1"/>
        <pt x="-2" y="1204" on="1"/>
        <pt x="623" y="1393" on="1"/>
        <pt x="475" y="1208" on="1"/>
        <pt x="684" y="842" on="1"/>
        <pt x="918" y="1194" on="1"/>
        <pt x="731" y="1366" on="1"/>
      </contour>
    </TTGlyph>
    <TTGlyph name="Y" xMin="-78" yMin="-18" xMax="1395" yMax="1403">
      <contour>
        <pt x="1395" y="1280" on="1"/>
        <pt x="1141" y="1161" on="1"/>
        <pt x="711" y="535" on="1"/>
        <pt x="735" y="172" on="1"/>
        <pt x="934" y="27" on="1"/>
        <pt x="254" y="-18" on="1"/>
        <pt x="479" y="131" on="1"/>
        <pt x="555" y="539" on="1"/>
        <pt x="164" y="1153" on="1"/>
        <pt x="-78" y="1239" on="1"/>
        <pt x="608" y="1403" on="1"/>
        <pt x="420" y="1233" on="1"/>
        <pt x="645" y="651" on="1"/>
        <pt x="913" y="1217" on="1"/>
        <pt x="748" y="1389" on="1"/>
      </contour>
    </TTGlyph>
    <TTGlyph name="Yacute" xMin="-78" yMin="-18" xMax="1395" yMax="1758">
      <component glyphName="Y" x="0" y="0" flags="0x204"/>
      <component glyphName="acute" x="657" y="283" flags="0x4"/>
    </TTGlyph>
    <TTGlyph name="Ycircumflex" xMin="-78" yMin="-18" xMax="1395" yMax="1769">
      <component glyphName="Y" x="0" y="0" flags="0x204"/>
      <component glyphName="circumflex" x="401" y="305" flags="0x4"/>
    </TTGlyph>
    <TTGlyph name="Ydieresis" xMin="-78" yMin="-18" xMax="1395" yMax="1683">
      <component glyphName="Y" x="0" y="0" flags="0x204"/>
      <component glyphName="dieresis" x="395" y="303" flags="0x4"/>
    </TTGlyph>
    <TTGlyph name="Ygrave" xMin="-78" yMin="-18" xMax="1395" yMax="1809">
      <component glyphName="Y" x="0" y="0" flags="0x204"/>
      <component glyphName="grave" x="299" y="334" flags="0x4"/>
    </TTGlyph>
    <TTGlyph name="Z" xMin="55" yMin="-18" xMax="1124" yMax="1409">
      <contour>
        <pt x="289" y="143" on="1"/>
        <pt x="920" y="205" on="1"/>
        <pt x="1124" y="535" on="1"/>
        <pt x="1049" y="-18" on="1"/>
        <pt x="55" y="29" on="1"/>
        <pt x="725" y="1165" on="1"/>
        <pt x="236" y="1051" on="1"/>
        <pt x="115" y="809" on="1"/>
        <pt x="86" y="1409" on="1"/>
        <pt x="193" y="1282" on="1"/>
        <pt x="1124" y="1327" on="1"/>
      </contour>
    </TTGlyph>
    <TTGlyph name="Zacute" xMin="55" yMin="-18" xMax="1124" yMax="1727">
      <component glyphName="Z" x="0" y="0" flags="0x204"/>
      <component glyphName="acute" x="557" y="252" flags="0x4"/>
    </TTGlyph>
    <TTGlyph name="Zcaron" xMin="55" yMin="-18" xMax="1124" yMax="1687">
      <component glyphName="Z" x="0" y="0" flags="0x204"/>
      <component glyphName="caron" x="342" y="223" flags="0x4"/>
    </TTGlyph>
    <TTGlyph name="Zdotaccent" xMin="55" yMin="-18" xMax="1124" yMax="1585">
      <component glyphName="Z" x="0" y="0" flags="0x204"/>
      <component glyphName="dotaccent" x="502" y="186" flags="0x4"/>
    </TTGlyph>
    <TTGlyph name="a" xMin="53" yMin="-29" xMax="1059" yMax="1051">
      <contour>
        <pt x="930" y="623" on="1"/>
        <pt x="930" y="570" on="0"/>
        <pt x="918" y="448" on="0"/>
        <pt x="895" y="322" on="0"/>
        <pt x="864" y="201" on="0"/>
        <pt x="846" y="150" on="1"/>
        <pt x="1059" y="0" on="1"/>
        <pt x="682" y="16" on="1"/>
        <pt x="705" y="139" on="1"/>
        <pt x="645" y="64" on="0"/>
        <pt x="488" y="-15" on="0"/>
        <pt x="385" y="-23" on="1"/>
        <pt x="301" y="-29" on="0"/>
        <pt x="176" y="6" on="0"/>
        <pt x="93" y="79" on="0"/>
        <pt x="53" y="186" on="0"/>
        <pt x="53" y="252" on="1"/>
        <pt x="53" y="313" on="0"/>
        <pt x="113" y="428" on="0"/>
        <pt x="226" y="516" on="0"/>
        <pt x="390" y="569" on="0"/>
        <pt x="494" y="569" on="1"/>
        <pt x="542" y="569" on="0"/>
        <pt x="667" y="551" on="0"/>
        <pt x="723" y="522" on="1"/>
        <pt x="718" y="583" on="0"/>
        <pt x="691" y="710" on="0"/>
        <pt x="639" y="814" on="0"/>
        <pt x="556" y="879" on="0"/>
        <pt x="494" y="879" on="1"/>
        <pt x="441" y="879" on="0"/>
        <pt x="341" y="835" on="0"/>
        <pt x="254" y="753" on="0"/>
        <pt x="184" y="635" on="0"/>
        <pt x="160" y="561" on="1"/>
        <pt x="76" y="1051" on="1"/>
        <pt x="203" y="856" on="1"/>
        <pt x="250" y="914" on="0"/>
        <pt x="346" y="983" on="0"/>
        <pt x="441" y="1020" on="0"/>
        <pt x="530" y="1032" on="0"/>
        <pt x="571" y="1032" on="1"/>
        <pt x="648" y="1028" on="0"/>
        <pt x="779" y="973" on="0"/>
        <pt x="875" y="870" on="0"/>
        <pt x="930" y="720" on="0"/>
      </contour>
      <contour>
        <pt x="723" y="303" on="1"/>
        <pt x="725" y="331" on="0"/>
        <pt x="727" y="383" on="0"/>
        <pt x="727" y="408" on="1"/>
        <pt x="727" y="420" on="1"/>
        <pt x="691" y="434" on="0"/>
        <pt x="618" y="449" on="0"/>
        <pt x="556" y="456" on="0"/>
        <pt x="513" y="457" on="0"/>
        <pt x="506" y="457" on="1"/>
        <pt x="449" y="455" on="0"/>
        <pt x="365" y="417" on="0"/>
        <pt x="310" y="360" on="0"/>
        <pt x="283" y="290" on="0"/>
        <pt x="283" y="256" on="1"/>
        <pt x="283" y="179" on="0"/>
        <pt x="358" y="100" on="0"/>
        <pt x="430" y="100" on="1"/>
        <pt x="478" y="100" on="0"/>
        <pt x="564" y="134" on="0"/>
        <pt x="639" y="191" on="0"/>
        <pt x="700" y="264" on="0"/>
      </contour>
    </TTGlyph>
    <TTGlyph name="aacute" xMin="53" yMin="-29" xMax="1059" yMax="1451">
      <component glyphName="a" x="0" y="0" flags="0x204"/>
      <component glyphName="acute" x="479" y="-24" flags="0x4"/>
    </TTGlyph>
    <TTGlyph name="abreve" xMin="53" yMin="-29" xMax="1059" yMax="1349">
      <component glyphName="a" x="0" y="0" flags="0x204"/>
      <component glyphName="breve" x="311" y="-83" flags="0x4"/>
    </TTGlyph>
    <TTGlyph name="acircumflex" xMin="53" yMin="-29" xMax="1059" yMax="1395">
      <component glyphName="a" x="0" y="0" flags="0x204"/>
      <component glyphName="circumflex" x="262" y="-69" flags="0x4"/>
    </TTGlyph>
    <TTGlyph name="acute" xMin="0" yMin="1104" xMax="369" yMax="1475">
      <contour>
        <pt x="0" y="1104" on="1"/>
        <pt x="147" y="1475" on="1"/>
        <pt x="369" y="1417" on="1"/>
      </contour>
    </TTGlyph>
    <TTGlyph name="adieresis" xMin="53" yMin="-29" xMax="1059" yMax="1311">
      <component glyphName="a" x="0" y="0" flags="0x204"/>
      <component glyphName="dieresis" x="283" y="-69" flags="0x4"/>
    </TTGlyph>
    <TTGlyph name="ae" xMin="53" yMin="-33" xMax="1612" yMax="1051">
      <contour>
        <pt x="963" y="367" on="1"/>
        <pt x="976" y="311" on="0"/>
        <pt x="1020" y="204" on="0"/>
        <pt x="1083" y="120" on="0"/>
        <pt x="1168" y="68" on="0"/>
        <pt x="1221" y="68" on="1"/>
        <pt x="1291" y="68" on="0"/>
        <pt x="1395" y="126" on="0"/>
        <pt x="1461" y="215" on="0"/>
        <pt x="1487" y="322" on="0"/>
        <pt x="1479" y="371" on="1"/>
        <pt x="1507" y="360" on="0"/>
        <pt x="1544" y="324" on="0"/>
        <pt x="1565" y="281" on="0"/>
        <pt x="1573" y="236" on="0"/>
        <pt x="1573" y="215" on="1"/>
        <pt x="1573" y="167" on="0"/>
        <pt x="1517" y="78" on="0"/>
        <pt x="1416" y="9" on="0"/>
        <pt x="1278" y="-33" on="0"/>
        <pt x="1196" y="-33" on="1"/>
        <pt x="1124" y="-33" on="0"/>
        <pt x="999" y="5" on="0"/>
        <pt x="895" y="74" on="0"/>
        <pt x="814" y="170" on="0"/>
        <pt x="786" y="229" on="1"/>
        <pt x="753" y="179" on="0"/>
        <pt x="664" y="92" on="0"/>
        <pt x="560" y="24" on="0"/>
        <pt x="444" y="-18" on="0"/>
        <pt x="385" y="-23" on="1"/>
        <pt x="301" y="-29" on="0"/>
        <pt x="176" y="6" on="0"/>
        <pt x="93" y="79" on="0"/>
        <pt x="53" y="186" on="0"/>
        <pt x="53" y="252" on="1"/>
        <pt x="53" y="313" on="0"/>
        <pt x="113" y="428" on="0"/>
        <pt x="226" y="516" on="0"/>
        <pt x="390" y="569" on="0"/>
        <pt x="494" y="569" on="1"/>
        <pt x="542" y="569" on="0"/>
        <pt x="667" y="551" on="0"/>
        <pt x="723" y="522" on="1"/>
        <pt x="718" y="583" on="0"/>
        <pt x="691" y="710" on="0"/>
        <pt x="639" y="814" on="0"/>
        <pt x="556" y="879" on="0"/>
        <pt x="494" y="879" on="1"/>
        <pt x="441" y="879" on="0"/>
        <pt x="341" y="835" on="0"/>
        <pt x="254" y="753" on="0"/>
        <pt x="184" y="635" on="0"/>
        <pt x="160" y="561" on="1"/>
        <pt x="76" y="1051" on="1"/>
        <pt x="203" y="856" on="1"/>
        <pt x="250" y="914" on="0"/>
        <pt x="346" y="983" on="0"/>
        <pt x="441" y="1020" on="0"/>
        <pt x="530" y="1032" on="0"/>
        <pt x="571" y="1032" on="1"/>
        <pt x="661" y="1027" on="0"/>
        <pt x="807" y="953" on="0"/>
        <pt x="856" y="885" on="1"/>
        <pt x="918" y="953" on="0"/>
        <pt x="1100" y="1024" on="0"/>
        <pt x="1219" y="1016" on="1"/>
        <pt x="1301" y="1010" on="0"/>
        <pt x="1439" y="928" on="0"/>
        <pt x="1542" y="799" on="0"/>
        <pt x="1605" y="633" on="0"/>
        <pt x="1612" y="543" on="1"/>
      </contour>
      <contour>
        <pt x="750" y="315" on="1"/>
        <pt x="727" y="366" on="0"/>
        <pt x="727" y="408" on="1"/>
        <pt x="727" y="420" on="1"/>
        <pt x="691" y="434" on="0"/>
        <pt x="618" y="449" on="0"/>
        <pt x="556" y="456" on="0"/>
        <pt x="513" y="457" on="0"/>
        <pt x="506" y="457" on="1"/>
        <pt x="449" y="455" on="0"/>
        <pt x="365" y="417" on="0"/>
        <pt x="310" y="360" on="0"/>
        <pt x="283" y="290" on="0"/>
        <pt x="283" y="256" on="1"/>
        <pt x="283" y="179" on="0"/>
        <pt x="358" y="100" on="0"/>
        <pt x="430" y="100" on="1"/>
        <pt x="474" y="100" on="0"/>
        <pt x="564" y="138" on="0"/>
        <pt x="648" y="200" on="0"/>
        <pt x="722" y="277" on="0"/>
      </contour>
      <contour>
        <pt x="944" y="528" on="1"/>
        <pt x="944" y="516" on="0"/>
        <pt x="944" y="489" on="0"/>
        <pt x="946" y="475" on="1"/>
        <pt x="1378" y="657" on="1"/>
        <pt x="1357" y="723" on="0"/>
        <pt x="1303" y="817" on="0"/>
        <pt x="1245" y="877" on="0"/>
        <pt x="1186" y="905" on="0"/>
        <pt x="1159" y="905" on="1"/>
        <pt x="1117" y="905" on="0"/>
        <pt x="1053" y="873" on="0"/>
        <pt x="1006" y="818" on="0"/>
        <pt x="973" y="744" on="0"/>
        <pt x="953" y="660" on="0"/>
        <pt x="944" y="571" on="0"/>
      </contour>
    </TTGlyph>
    <TTGlyph name="aeacute" xMin="53" yMin="-33" xMax="1612" yMax="1413">
      <component glyphName="ae" x="0" y="0" flags="0x204"/>
      <component glyphName="acute" x="834" y="-62" flags="0x4"/>
    </TTGlyph>
    <TTGlyph name="agrave" xMin="53" yMin="-29" xMax="1059" yMax="1445">
      <component glyphName="a" x="0" y="0" flags="0x204"/>
      <component glyphName="grave" x="182" y="-30" flags="0x4"/>
    </TTGlyph>
    <TTGlyph name="amacron" xMin="53" yMin="-29" xMax="1059" yMax="1274">
      <component glyphName="a" x="0" y="0" flags="0x204"/>
      <component glyphName="macron" x="266" y="-112" flags="0x4"/>
    </TTGlyph>
    <TTGlyph name="ampersand" xMin="31" yMin="-20" xMax="1264" yMax="1358">
      <contour>
        <pt x="330" y="1061" on="1"/>
        <pt x="330" y="1132" on="0"/>
        <pt x="379" y="1243" on="0"/>
        <pt x="464" y="1319" on="0"/>
        <pt x="576" y="1358" on="0"/>
        <pt x="639" y="1358" on="1"/>
        <pt x="698" y="1358" on="0"/>
        <pt x="786" y="1324" on="0"/>
        <pt x="844" y="1266" on="0"/>
        <pt x="872" y="1186" on="0"/>
        <pt x="872" y="1141" on="1"/>
        <pt x="872" y="1095" on="0"/>
        <pt x="845" y="998" on="0"/>
        <pt x="792" y="904" on="0"/>
        <pt x="716" y="818" on="0"/>
        <pt x="668" y="782" on="1"/>
        <pt x="660" y="777" on="0"/>
        <pt x="647" y="767" on="0"/>
        <pt x="641" y="762" on="1"/>
        <pt x="686" y="662" on="0"/>
        <pt x="804" y="477" on="0"/>
        <pt x="864" y="399" on="1"/>
        <pt x="898" y="458" on="0"/>
        <pt x="928" y="571" on="0"/>
        <pt x="928" y="625" on="1"/>
        <pt x="928" y="682" on="0"/>
        <pt x="902" y="771" on="0"/>
        <pt x="887" y="797" on="1"/>
        <pt x="888" y="797" on="0"/>
        <pt x="915" y="784" on="0"/>
        <pt x="954" y="758" on="0"/>
        <pt x="999" y="716" on="0"/>
        <pt x="1037" y="659" on="0"/>
        <pt x="1063" y="585" on="0"/>
        <pt x="1063" y="539" on="1"/>
        <pt x="1061" y="483" on="0"/>
        <pt x="1008" y="351" on="0"/>
        <pt x="958" y="285" on="1"/>
        <pt x="980" y="259" on="0"/>
        <pt x="1016" y="219" on="0"/>
        <pt x="1030" y="205" on="1"/>
        <pt x="1046" y="188" on="0"/>
        <pt x="1059" y="176" on="1"/>
        <pt x="1264" y="215" on="1"/>
        <pt x="1004" y="-20" on="1"/>
        <pt x="980" y="-2" on="0"/>
        <pt x="951" y="23" on="1"/>
        <pt x="926" y="44" on="0"/>
        <pt x="859" y="105" on="0"/>
        <pt x="821" y="143" on="1"/>
        <pt x="735" y="77" on="0"/>
        <pt x="514" y="-8" on="0"/>
        <pt x="383" y="-8" on="1"/>
        <pt x="291" y="-8" on="0"/>
        <pt x="159" y="36" on="0"/>
        <pt x="72" y="117" on="0"/>
        <pt x="31" y="231" on="0"/>
        <pt x="31" y="301" on="1"/>
        <pt x="31" y="394" on="0"/>
        <pt x="98" y="530" on="0"/>
        <pt x="204" y="632" on="0"/>
        <pt x="337" y="709" on="0"/>
        <pt x="403" y="743" on="1"/>
        <pt x="371" y="822" on="0"/>
        <pt x="330" y="987" on="0"/>
      </contour>
      <contour>
        <pt x="502" y="547" on="1"/>
        <pt x="491" y="564" on="0"/>
        <pt x="470" y="603" on="0"/>
        <pt x="459" y="623" on="1"/>
        <pt x="374" y="553" on="0"/>
        <pt x="287" y="426" on="0"/>
        <pt x="287" y="352" on="1"/>
        <pt x="287" y="307" on="0"/>
        <pt x="319" y="231" on="0"/>
        <pt x="376" y="177" on="0"/>
        <pt x="453" y="147" on="0"/>
        <pt x="498" y="147" on="1"/>
        <pt x="549" y="147" on="0"/>
        <pt x="663" y="191" on="0"/>
        <pt x="725" y="242" on="1"/>
        <pt x="666" y="308" on="0"/>
        <pt x="550" y="462" on="0"/>
      </contour>
      <contour>
        <pt x="741" y="1133" on="1"/>
        <pt x="741" y="1152" on="0"/>
        <pt x="734" y="1195" on="0"/>
        <pt x="716" y="1231" on="0"/>
        <pt x="682" y="1255" on="0"/>
        <pt x="655" y="1255" on="1"/>
        <pt x="627" y="1255" on="0"/>
        <pt x="594" y="1227" on="0"/>
        <pt x="577" y="1179" on="0"/>
        <pt x="570" y="1117" on="0"/>
        <pt x="569" y="1083" on="1"/>
        <pt x="566" y="1029" on="0"/>
        <pt x="584" y="917" on="0"/>
        <pt x="602" y="860" on="1"/>
        <pt x="671" y="919" on="0"/>
        <pt x="741" y="1063" on="0"/>
      </contour>
    </TTGlyph>
    <TTGlyph name="aogonek" xMin="53" yMin="-264" xMax="1059" yMax="1051">
      <contour>
        <pt x="930" y="623" on="1"/>
        <pt x="930" y="570" on="0"/>
        <pt x="918" y="448" on="0"/>
        <pt x="895" y="322" on="0"/>
        <pt x="864" y="201" on="0"/>
        <pt x="846" y="150" on="1"/>
        <pt x="1059" y="0" on="1"/>
        <pt x="846" y="8" on="1"/>
        <pt x="812" y="-24" on="0"/>
        <pt x="768" y="-91" on="0"/>
        <pt x="768" y="-119" on="1"/>
        <pt x="768" y="-139" on="0"/>
        <pt x="797" y="-162" on="0"/>
        <pt x="817" y="-162" on="1"/>
        <pt x="840" y="-162" on="0"/>
        <pt x="886" y="-141" on="0"/>
        <pt x="901" y="-129" on="1"/>
        <pt x="926" y="-176" on="1"/>
        <pt x="920" y="-195" on="0"/>
        <pt x="889" y="-227" on="0"/>
        <pt x="852" y="-251" on="0"/>
        <pt x="812" y="-264" on="0"/>
        <pt x="797" y="-264" on="1"/>
        <pt x="773" y="-264" on="0"/>
        <pt x="728" y="-251" on="0"/>
        <pt x="693" y="-223" on="0"/>
        <pt x="672" y="-177" on="0"/>
        <pt x="672" y="-145" on="1"/>
        <pt x="672" y="-105" on="0"/>
        <pt x="728" y="-23" on="0"/>
        <pt x="774" y="12" on="1"/>
        <pt x="682" y="16" on="1"/>
        <pt x="705" y="139" on="1"/>
        <pt x="645" y="64" on="0"/>
        <pt x="488" y="-15" on="0"/>
        <pt x="385" y="-23" on="1"/>
        <pt x="301" y="-29" on="0"/>
        <pt x="176" y="6" on="0"/>
        <pt x="93" y="79" on="0"/>
        <pt x="53" y="186" on="0"/>
        <pt x="53" y="252" on="1"/>
        <pt x="53" y="313" on="0"/>
        <pt x="113" y="428" on="0"/>
        <pt x="226" y="516" on="0"/>
        <pt x="390" y="569" on="0"/>
        <pt x="494" y="569" on="1"/>
        <pt x="542" y="569" on="0"/>
        <pt x="667" y="551" on="0"/>
        <pt x="723" y="522" on="1"/>
        <pt x="718" y="583" on="0"/>
        <pt x="691" y="710" on="0"/>
        <pt x="639" y="814" on="0"/>
        <pt x="556" y="879" on="0"/>
        <pt x="494" y="879" on="1"/>
        <pt x="441" y="879" on="0"/>
        <pt x="341" y="835" on="0"/>
        <pt x="254" y="753" on="0"/>
        <pt x="184" y="635" on="0"/>
        <pt x="160" y="561" on="1"/>
        <pt x="76" y="1051" on="1"/>
        <pt x="203" y="856" on="1"/>
        <pt x="250" y="914" on="0"/>
        <pt x="346" y="983" on="0"/>
        <pt x="441" y="1020" on="0"/>
        <pt x="530" y="1032" on="0"/>
        <pt x="571" y="1032" on="1"/>
        <pt x="648" y="1028" on="0"/>
        <pt x="779" y="973" on="0"/>
        <pt x="875" y="870" on="0"/>
        <pt x="930" y="720" on="0"/>
      </contour>
      <contour>
        <pt x="723" y="303" on="1"/>
        <pt x="725" y="331" on="0"/>
        <pt x="727" y="383" on="0"/>
        <pt x="727" y="408" on="1"/>
        <pt x="727" y="420" on="1"/>
        <pt x="691" y="434" on="0"/>
        <pt x="618" y="449" on="0"/>
        <pt x="556" y="456" on="0"/>
        <pt x="513" y="457" on="0"/>
        <pt x="506" y="457" on="1"/>
        <pt x="449" y="455" on="0"/>
        <pt x="365" y="417" on="0"/>
        <pt x="310" y="360" on="0"/>
        <pt x="283" y="290" on="0"/>
        <pt x="283" y="256" on="1"/>
        <pt x="283" y="179" on="0"/>
        <pt x="358" y="100" on="0"/>
        <pt x="430" y="100" on="1"/>
        <pt x="478" y="100" on="0"/>
        <pt x="564" y="134" on="0"/>
        <pt x="639" y="191" on="0"/>
        <pt x="700" y="264" on="0"/>
      </contour>
    </TTGlyph>
    <TTGlyph name="approxequal" xMin="111" yMin="342" xMax="885" yMax="1012">
      <contour>
        <pt x="885" y="907" on="1"/>
        <pt x="861" y="855" on="0"/>
        <pt x="796" y="781" on="0"/>
        <pt x="727" y="733" on="0"/>
        <pt x="661" y="711" on="0"/>
        <pt x="637" y="711" on="1"/>
        <pt x="604" y="711" on="0"/>
        <pt x="531" y="740" on="0"/>
        <pt x="456" y="774" on="0"/>
        <pt x="383" y="803" on="0"/>
        <pt x="350" y="803" on="1"/>
        <pt x="304" y="803" on="0"/>
        <pt x="217" y="772" on="0"/>
        <pt x="174" y="737" on="1"/>
        <pt x="111" y="823" on="1"/>
        <pt x="140" y="873" on="0"/>
        <pt x="206" y="944" on="0"/>
        <pt x="274" y="990" on="0"/>
        <pt x="338" y="1012" on="0"/>
        <pt x="365" y="1012" on="1"/>
        <pt x="398" y="1012" on="0"/>
        <pt x="478" y="982" on="0"/>
        <pt x="554" y="945" on="0"/>
        <pt x="620" y="915" on="0"/>
        <pt x="639" y="915" on="1"/>
        <pt x="663" y="915" on="0"/>
        <pt x="706" y="917" on="0"/>
        <pt x="751" y="932" on="0"/>
        <pt x="799" y="962" on="0"/>
        <pt x="827" y="991" on="1"/>
      </contour>
      <contour>
        <pt x="885" y="539" on="1"/>
        <pt x="861" y="486" on="0"/>
        <pt x="796" y="412" on="0"/>
        <pt x="727" y="364" on="0"/>
        <pt x="661" y="342" on="0"/>
        <pt x="637" y="342" on="1"/>
        <pt x="604" y="342" on="0"/>
        <pt x="531" y="371" on="0"/>
        <pt x="456" y="405" on="0"/>
        <pt x="383" y="434" on="0"/>
        <pt x="350" y="434" on="1"/>
        <pt x="304" y="434" on="0"/>
        <pt x="217" y="404" on="0"/>
        <pt x="174" y="369" on="1"/>
        <pt x="111" y="455" on="1"/>
        <pt x="140" y="505" on="0"/>
        <pt x="206" y="576" on="0"/>
        <pt x="274" y="622" on="0"/>
        <pt x="338" y="643" on="0"/>
        <pt x="365" y="643" on="1"/>
        <pt x="398" y="643" on="0"/>
        <pt x="478" y="613" on="0"/>
        <pt x="554" y="577" on="0"/>
        <pt x="620" y="547" on="0"/>
        <pt x="639" y="547" on="1"/>
        <pt x="663" y="547" on="0"/>
        <pt x="706" y="549" on="0"/>
        <pt x="751" y="564" on="0"/>
        <pt x="799" y="594" on="0"/>
        <pt x="827" y="623" on="1"/>
      </contour>
    </TTGlyph>
    <TTGlyph name="aring" xMin="53" yMin="-29" xMax="1059" yMax="1466">
      <component glyphName="a" x="0" y="0" flags="0x204"/>
      <component glyphName="ring" x="287" y="0" flags="0x4"/>
    </TTGlyph>
    <TTGlyph name="asciicircum" xMin="90" yMin="967" xMax="629" yMax="1442">
      <contour>
        <pt x="354" y="1143" on="1"/>
        <pt x="90" y="967" on="1"/>
        <pt x="360" y="1442" on="1"/>
        <pt x="629" y="991" on="1"/>
      </contour>
    </TTGlyph>
    <TTGlyph name="asciitilde" xMin="106" yMin="526" xMax="881" yMax="827">
      <contour>
        <pt x="881" y="723" on="1"/>
        <pt x="857" y="671" on="0"/>
        <pt x="792" y="596" on="0"/>
        <pt x="723" y="548" on="0"/>
        <pt x="657" y="526" on="0"/>
        <pt x="633" y="526" on="1"/>
        <pt x="600" y="526" on="0"/>
        <pt x="527" y="555" on="0"/>
        <pt x="452" y="589" on="0"/>
        <pt x="379" y="618" on="0"/>
        <pt x="346" y="618" on="1"/>
        <pt x="300" y="618" on="0"/>
        <pt x="213" y="588" on="0"/>
        <pt x="170" y="553" on="1"/>
        <pt x="106" y="639" on="1"/>
        <pt x="135" y="689" on="0"/>
        <pt x="202" y="760" on="0"/>
        <pt x="269" y="806" on="0"/>
        <pt x="333" y="827" on="0"/>
        <pt x="360" y="827" on="1"/>
        <pt x="393" y="827" on="0"/>
        <pt x="473" y="797" on="0"/>
        <pt x="550" y="761" on="0"/>
        <pt x="616" y="731" on="0"/>
        <pt x="635" y="731" on="1"/>
        <pt x="659" y="731" on="0"/>
        <pt x="702" y="733" on="0"/>
        <pt x="747" y="748" on="0"/>
        <pt x="795" y="778" on="0"/>
        <pt x="823" y="807" on="1"/>
      </contour>
    </TTGlyph>
    <TTGlyph name="asterisk" xMin="72" yMin="649" xMax="821" yMax="1432">
      <contour>
        <pt x="305" y="649" on="1"/>
        <pt x="403" y="961" on="1"/>
        <pt x="188" y="758" on="1"/>
        <pt x="72" y="942" on="1"/>
        <pt x="352" y="1030" on="1"/>
        <pt x="84" y="1104" on="1"/>
        <pt x="211" y="1323" on="1"/>
        <pt x="393" y="1133" on="1"/>
        <pt x="305" y="1417" on="1"/>
        <pt x="588" y="1432" on="1"/>
        <pt x="489" y="1118" on="1"/>
        <pt x="705" y="1323" on="1"/>
        <pt x="821" y="1139" on="1"/>
        <pt x="539" y="1051" on="1"/>
        <pt x="809" y="977" on="1"/>
        <pt x="682" y="758" on="1"/>
        <pt x="498" y="946" on="1"/>
        <pt x="588" y="664" on="1"/>
      </contour>
    </TTGlyph>
    <TTGlyph name="at" xMin="66" yMin="-86" xMax="1292" yMax="1133">
      <contour>
        <pt x="975" y="532" on="1"/>
        <pt x="975" y="478" on="0"/>
        <pt x="955" y="364" on="0"/>
        <pt x="931" y="258" on="0"/>
        <pt x="911" y="168" on="0"/>
        <pt x="911" y="137" on="1"/>
        <pt x="911" y="116" on="0"/>
        <pt x="933" y="86" on="0"/>
        <pt x="954" y="86" on="1"/>
        <pt x="985" y="86" on="0"/>
        <pt x="1045" y="142" on="0"/>
        <pt x="1092" y="252" on="0"/>
        <pt x="1120" y="413" on="0"/>
        <pt x="1120" y="518" on="1"/>
        <pt x="1120" y="623" on="0"/>
        <pt x="1080" y="806" on="0"/>
        <pt x="987" y="942" on="0"/>
        <pt x="834" y="1020" on="0"/>
        <pt x="721" y="1020" on="1"/>
        <pt x="608" y="1020" on="0"/>
        <pt x="430" y="933" on="0"/>
        <pt x="306" y="780" on="0"/>
        <pt x="240" y="574" on="0"/>
        <pt x="240" y="455" on="1"/>
        <pt x="240" y="372" on="0"/>
        <pt x="277" y="243" on="0"/>
        <pt x="336" y="147" on="0"/>
        <pt x="411" y="82" on="0"/>
        <pt x="487" y="41" on="0"/>
        <pt x="558" y="23" on="0"/>
        <pt x="584" y="23" on="1"/>
        <pt x="622" y="23" on="0"/>
        <pt x="691" y="47" on="0"/>
        <pt x="717" y="61" on="1"/>
        <pt x="748" y="78" on="0"/>
        <pt x="774" y="100" on="1"/>
        <pt x="774" y="62" on="0"/>
        <pt x="725" y="-5" on="0"/>
        <pt x="652" y="-56" on="0"/>
        <pt x="568" y="-86" on="0"/>
        <pt x="532" y="-86" on="1"/>
        <pt x="487" y="-86" on="0"/>
        <pt x="383" y="-59" on="0"/>
        <pt x="279" y="-3" on="0"/>
        <pt x="184" y="85" on="0"/>
        <pt x="110" y="208" on="0"/>
        <pt x="66" y="367" on="0"/>
        <pt x="66" y="467" on="1"/>
        <pt x="66" y="594" on="0"/>
        <pt x="129" y="792" on="0"/>
        <pt x="233" y="940" on="0"/>
        <pt x="368" y="1042" on="0"/>
        <pt x="511" y="1105" on="0"/>
        <pt x="654" y="1133" on="0"/>
        <pt x="713" y="1133" on="1"/>
        <pt x="772" y="1133" on="0"/>
        <pt x="904" y="1107" on="0"/>
        <pt x="1033" y="1047" on="0"/>
        <pt x="1150" y="951" on="0"/>
        <pt x="1239" y="809" on="0"/>
        <pt x="1292" y="620" on="0"/>
        <pt x="1292" y="498" on="1"/>
        <pt x="1292" y="375" on="0"/>
        <pt x="1250" y="205" on="0"/>
        <pt x="1183" y="93" on="0"/>
        <pt x="1102" y="32" on="0"/>
        <pt x="1023" y="2" on="0"/>
        <pt x="957" y="-4" on="0"/>
        <pt x="938" y="-4" on="1"/>
        <pt x="913" y="-4" on="0"/>
        <pt x="865" y="9" on="0"/>
        <pt x="827" y="37" on="0"/>
        <pt x="803" y="80" on="0"/>
        <pt x="803" y="111" on="1"/>
        <pt x="803" y="149" on="0"/>
        <pt x="809" y="193" on="1"/>
        <pt x="731" y="111" on="0"/>
        <pt x="596" y="111" on="1"/>
        <pt x="498" y="111" on="0"/>
        <pt x="403" y="212" on="0"/>
        <pt x="403" y="295" on="1"/>
        <pt x="403" y="335" on="0"/>
        <pt x="442" y="411" on="0"/>
        <pt x="516" y="469" on="0"/>
        <pt x="622" y="504" on="0"/>
        <pt x="690" y="504" on="1"/>
        <pt x="718" y="504" on="0"/>
        <pt x="794" y="493" on="0"/>
        <pt x="829" y="477" on="1"/>
        <pt x="826" y="515" on="0"/>
        <pt x="809" y="591" on="0"/>
        <pt x="777" y="652" on="0"/>
        <pt x="727" y="690" on="0"/>
        <pt x="690" y="690" on="1"/>
        <pt x="658" y="690" on="0"/>
        <pt x="596" y="661" on="0"/>
        <pt x="540" y="609" on="0"/>
        <pt x="491" y="536" on="0"/>
        <pt x="471" y="492" on="1"/>
        <pt x="428" y="811" on="1"/>
        <pt x="506" y="692" on="1"/>
        <pt x="537" y="726" on="0"/>
        <pt x="600" y="769" on="0"/>
        <pt x="660" y="793" on="0"/>
        <pt x="715" y="801" on="0"/>
        <pt x="739" y="801" on="1"/>
        <pt x="790" y="799" on="0"/>
        <pt x="876" y="762" on="0"/>
        <pt x="939" y="694" on="0"/>
        <pt x="975" y="596" on="0"/>
      </contour>
      <contour>
        <pt x="829" y="328" on="1"/>
        <pt x="831" y="343" on="0"/>
        <pt x="834" y="377" on="0"/>
        <pt x="834" y="395" on="1"/>
        <pt x="812" y="404" on="0"/>
        <pt x="771" y="414" on="0"/>
        <pt x="736" y="419" on="0"/>
        <pt x="709" y="420" on="0"/>
        <pt x="702" y="420" on="1"/>
        <pt x="667" y="420" on="0"/>
        <pt x="614" y="396" on="0"/>
        <pt x="580" y="360" on="0"/>
        <pt x="563" y="317" on="0"/>
        <pt x="563" y="297" on="1"/>
        <pt x="563" y="251" on="0"/>
        <pt x="607" y="205" on="0"/>
        <pt x="649" y="205" on="1"/>
        <pt x="676" y="205" on="0"/>
        <pt x="727" y="225" on="0"/>
        <pt x="773" y="259" on="0"/>
        <pt x="813" y="303" on="0"/>
      </contour>
    </TTGlyph>
    <TTGlyph name="atilde" xMin="53" yMin="-29" xMax="1059" yMax="1320">
      <component glyphName="a" x="0" y="0" flags="0x204"/>
      <component glyphName="tilde" x="221" y="-91" flags="0x4"/>
    </TTGlyph>
    <TTGlyph name="b" xMin="-145" yMin="-43" xMax="993" yMax="1309">
      <contour>
        <pt x="532" y="-23" on="1"/>
        <pt x="478" y="-23" on="0"/>
        <pt x="386" y="11" on="0"/>
        <pt x="314" y="69" on="0"/>
        <pt x="261" y="146" on="0"/>
        <pt x="246" y="190" on="1"/>
        <pt x="145" y="-43" on="1"/>
        <pt x="106" y="1151" on="1"/>
        <pt x="-145" y="1249" on="1"/>
        <pt x="385" y="1309" on="1"/>
        <pt x="365" y="1163" on="0"/>
        <pt x="337" y="934" on="0"/>
        <pt x="328" y="844" on="1"/>
        <pt x="382" y="925" on="0"/>
        <pt x="537" y="1026" on="0"/>
        <pt x="637" y="1026" on="1"/>
        <pt x="711" y="1026" on="0"/>
        <pt x="821" y="990" on="0"/>
        <pt x="900" y="927" on="0"/>
        <pt x="951" y="842" on="0"/>
        <pt x="981" y="746" on="0"/>
        <pt x="993" y="644" on="0"/>
        <pt x="993" y="594" on="1"/>
        <pt x="993" y="459" on="0"/>
        <pt x="934" y="232" on="0"/>
        <pt x="819" y="68" on="0"/>
        <pt x="646" y="-23" on="0"/>
      </contour>
      <contour>
        <pt x="547" y="872" on="1"/>
        <pt x="505" y="872" on="0"/>
        <pt x="431" y="830" on="0"/>
        <pt x="370" y="758" on="0"/>
        <pt x="323" y="663" on="0"/>
        <pt x="307" y="610" on="1"/>
        <pt x="305" y="581" on="0"/>
        <pt x="303" y="540" on="0"/>
        <pt x="303" y="526" on="1"/>
        <pt x="302" y="509" on="0"/>
        <pt x="303" y="498" on="1"/>
        <pt x="303" y="382" on="0"/>
        <pt x="337" y="230" on="0"/>
        <pt x="395" y="139" on="0"/>
        <pt x="472" y="102" on="0"/>
        <pt x="514" y="102" on="1"/>
        <pt x="556" y="102" on="0"/>
        <pt x="644" y="166" on="0"/>
        <pt x="717" y="286" on="0"/>
        <pt x="764" y="456" on="0"/>
        <pt x="764" y="563" on="1"/>
        <pt x="764" y="638" on="0"/>
        <pt x="728" y="754" on="0"/>
        <pt x="667" y="832" on="0"/>
        <pt x="589" y="872" on="0"/>
      </contour>
    </TTGlyph>
    <TTGlyph name="backslash" xMin="47" yMin="-35" xMax="958" yMax="1378">
      <contour>
        <pt x="47" y="1319" on="1"/>
        <pt x="299" y="1378" on="1"/>
        <pt x="958" y="14" on="1"/>
        <pt x="870" y="-35" on="1"/>
      </contour>
    </TTGlyph>
    <TTGlyph name="bar" xMin="150" yMin="-156" xMax="373" yMax="1593">
      <contour>
        <pt x="184" y="-156" on="1"/>
        <pt x="150" y="1593" on="1"/>
        <pt x="373" y="1565" on="1"/>
        <pt x="305" y="-156" on="1"/>
      </contour>
    </TTGlyph>
    <TTGlyph name="braceleft" xMin="8" yMin="-195" xMax="602" yMax="1507">
      <contour>
        <pt x="391" y="1507" on="1"/>
        <pt x="430" y="1507" on="0"/>
        <pt x="501" y="1491" on="0"/>
        <pt x="558" y="1471" on="0"/>
        <pt x="596" y="1453" on="0"/>
        <pt x="602" y="1452" on="1"/>
        <pt x="594" y="1451" on="0"/>
        <pt x="555" y="1441" on="0"/>
        <pt x="507" y="1420" on="0"/>
        <pt x="455" y="1387" on="0"/>
        <pt x="413" y="1340" on="0"/>
        <pt x="385" y="1279" on="0"/>
        <pt x="385" y="1241" on="1"/>
        <pt x="385" y="1185" on="0"/>
        <pt x="401" y="1084" on="0"/>
        <pt x="401" y="1040" on="1"/>
        <pt x="401" y="960" on="0"/>
        <pt x="375" y="841" on="0"/>
        <pt x="335" y="756" on="0"/>
        <pt x="287" y="702" on="0"/>
        <pt x="245" y="671" on="0"/>
        <pt x="213" y="659" on="0"/>
        <pt x="209" y="659" on="1"/>
        <pt x="310" y="647" on="0"/>
        <pt x="391" y="510" on="0"/>
        <pt x="391" y="387" on="1"/>
        <pt x="391" y="357" on="0"/>
        <pt x="383" y="291" on="0"/>
        <pt x="373" y="219" on="0"/>
        <pt x="365" y="142" on="0"/>
        <pt x="365" y="100" on="1"/>
        <pt x="365" y="65" on="0"/>
        <pt x="384" y="10" on="0"/>
        <pt x="416" y="-34" on="0"/>
        <pt x="456" y="-67" on="0"/>
        <pt x="477" y="-79" on="1"/>
        <pt x="526" y="-107" on="0"/>
        <pt x="590" y="-119" on="1"/>
        <pt x="557" y="-140" on="0"/>
        <pt x="519" y="-157" on="1"/>
        <pt x="487" y="-171" on="0"/>
        <pt x="403" y="-195" on="0"/>
        <pt x="358" y="-195" on="1"/>
        <pt x="298" y="-195" on="0"/>
        <pt x="214" y="-152" on="0"/>
        <pt x="161" y="-85" on="0"/>
        <pt x="137" y="-2" on="0"/>
        <pt x="137" y="37" on="1"/>
        <pt x="137" y="82" on="0"/>
        <pt x="154" y="177" on="0"/>
        <pt x="173" y="274" on="0"/>
        <pt x="190" y="369" on="0"/>
        <pt x="190" y="414" on="1"/>
        <pt x="190" y="473" on="0"/>
        <pt x="163" y="554" on="0"/>
        <pt x="121" y="607" on="0"/>
        <pt x="74" y="636" on="0"/>
        <pt x="34" y="650" on="0"/>
        <pt x="8" y="653" on="0"/>
        <pt x="10" y="653" on="1"/>
        <pt x="60" y="680" on="0"/>
        <pt x="100" y="712" on="1"/>
        <pt x="117" y="725" on="0"/>
        <pt x="149" y="756" on="0"/>
        <pt x="175" y="789" on="0"/>
        <pt x="190" y="824" on="0"/>
        <pt x="190" y="842" on="1"/>
        <pt x="190" y="860" on="0"/>
        <pt x="179" y="936" on="0"/>
        <pt x="165" y="1033" on="0"/>
        <pt x="154" y="1146" on="0"/>
        <pt x="154" y="1202" on="1"/>
        <pt x="154" y="1274" on="0"/>
        <pt x="181" y="1387" on="0"/>
        <pt x="239" y="1465" on="0"/>
        <pt x="329" y="1507" on="0"/>
      </contour>
    </TTGlyph>
    <TTGlyph name="braceright" xMin="2" yMin="-195" xMax="595" yMax="1507">
      <contour>
        <pt x="213" y="1507" on="1"/>
        <pt x="275" y="1507" on="0"/>
        <pt x="365" y="1465" on="0"/>
        <pt x="423" y="1387" on="0"/>
        <pt x="451" y="1274" on="0"/>
        <pt x="451" y="1202" on="1"/>
        <pt x="451" y="1146" on="0"/>
        <pt x="439" y="1033" on="0"/>
        <pt x="426" y="936" on="0"/>
        <pt x="414" y="860" on="0"/>
        <pt x="414" y="842" on="1"/>
        <pt x="414" y="824" on="0"/>
        <pt x="429" y="789" on="0"/>
        <pt x="455" y="756" on="0"/>
        <pt x="487" y="725" on="0"/>
        <pt x="504" y="712" on="1"/>
        <pt x="544" y="680" on="0"/>
        <pt x="594" y="653" on="1"/>
        <pt x="595" y="653" on="0"/>
        <pt x="570" y="650" on="0"/>
        <pt x="530" y="636" on="0"/>
        <pt x="482" y="607" on="0"/>
        <pt x="441" y="554" on="0"/>
        <pt x="414" y="473" on="0"/>
        <pt x="414" y="414" on="1"/>
        <pt x="414" y="369" on="0"/>
        <pt x="431" y="274" on="0"/>
        <pt x="450" y="177" on="0"/>
        <pt x="467" y="82" on="0"/>
        <pt x="467" y="37" on="1"/>
        <pt x="467" y="-2" on="0"/>
        <pt x="443" y="-85" on="0"/>
        <pt x="390" y="-152" on="0"/>
        <pt x="306" y="-195" on="0"/>
        <pt x="246" y="-195" on="1"/>
        <pt x="201" y="-195" on="0"/>
        <pt x="117" y="-171" on="0"/>
        <pt x="85" y="-157" on="1"/>
        <pt x="47" y="-140" on="0"/>
        <pt x="14" y="-119" on="1"/>
        <pt x="77" y="-107" on="0"/>
        <pt x="127" y="-79" on="1"/>
        <pt x="148" y="-67" on="0"/>
        <pt x="189" y="-34" on="0"/>
        <pt x="220" y="10" on="0"/>
        <pt x="240" y="65" on="0"/>
        <pt x="240" y="100" on="1"/>
        <pt x="240" y="142" on="0"/>
        <pt x="232" y="219" on="0"/>
        <pt x="221" y="291" on="0"/>
        <pt x="213" y="357" on="0"/>
        <pt x="213" y="387" on="1"/>
        <pt x="213" y="510" on="0"/>
        <pt x="294" y="647" on="0"/>
        <pt x="395" y="659" on="1"/>
        <pt x="391" y="659" on="0"/>
        <pt x="359" y="671" on="0"/>
        <pt x="317" y="702" on="0"/>
        <pt x="269" y="756" on="0"/>
        <pt x="229" y="841" on="0"/>
        <pt x="203" y="960" on="0"/>
        <pt x="203" y="1040" on="1"/>
        <pt x="203" y="1084" on="0"/>
        <pt x="219" y="1185" on="0"/>
        <pt x="219" y="1241" on="1"/>
        <pt x="219" y="1279" on="0"/>
        <pt x="191" y="1340" on="0"/>
        <pt x="149" y="1387" on="0"/>
        <pt x="97" y="1420" on="0"/>
        <pt x="49" y="1441" on="0"/>
        <pt x="10" y="1451" on="0"/>
        <pt x="2" y="1452" on="1"/>
        <pt x="8" y="1453" on="0"/>
        <pt x="47" y="1471" on="0"/>
        <pt x="104" y="1491" on="0"/>
        <pt x="175" y="1507" on="0"/>
      </contour>
    </TTGlyph>
    <TTGlyph name="bracketleft" xMin="131" yMin="-145" xMax="670" yMax="1491">
      <contour>
        <pt x="422" y="1274" on="1"/>
        <pt x="358" y="27" on="1"/>
        <pt x="596" y="-119" on="1"/>
        <pt x="205" y="-145" on="1"/>
        <pt x="131" y="1475" on="1"/>
        <pt x="670" y="1491" on="1"/>
      </contour>
    </TTGlyph>
    <TTGlyph name="bracketright" xMin="-37" yMin="-145" xMax="502" yMax="1491">
      <contour>
        <pt x="37" y="-119" on="1"/>
        <pt x="272" y="27" on="1"/>
        <pt x="209" y="1274" on="1"/>
        <pt x="-37" y="1491" on="1"/>
        <pt x="502" y="1475" on="1"/>
        <pt x="428" y="-145" on="1"/>
      </contour>
    </TTGlyph>
    <TTGlyph name="breve" xMin="41" yMin="1157" xMax="371" yMax="1432">
      <contour>
        <pt x="332" y="1432" on="1"/>
        <pt x="371" y="1373" on="0"/>
        <pt x="371" y="1319" on="1"/>
        <pt x="371" y="1284" on="0"/>
        <pt x="345" y="1225" on="0"/>
        <pt x="300" y="1182" on="0"/>
        <pt x="238" y="1157" on="0"/>
        <pt x="203" y="1157" on="1"/>
        <pt x="164" y="1157" on="0"/>
        <pt x="104" y="1184" on="0"/>
        <pt x="63" y="1230" on="0"/>
        <pt x="41" y="1290" on="0"/>
        <pt x="41" y="1323" on="1"/>
        <pt x="41" y="1345" on="0"/>
        <pt x="48" y="1387" on="0"/>
        <pt x="59" y="1407" on="1"/>
        <pt x="135" y="1405" on="1"/>
        <pt x="135" y="1393" on="0"/>
        <pt x="133" y="1375" on="0"/>
        <pt x="133" y="1366" on="1"/>
        <pt x="133" y="1334" on="0"/>
        <pt x="149" y="1296" on="0"/>
        <pt x="172" y="1275" on="0"/>
        <pt x="195" y="1268" on="0"/>
        <pt x="201" y="1268" on="1"/>
        <pt x="232" y="1268" on="0"/>
        <pt x="272" y="1298" on="0"/>
        <pt x="272" y="1339" on="1"/>
        <pt x="272" y="1356" on="0"/>
        <pt x="264" y="1394" on="0"/>
        <pt x="258" y="1419" on="1"/>
      </contour>
    </TTGlyph>
    <TTGlyph name="brokenbar" xMin="143" yMin="-156" xMax="367" yMax="1593">
      <contour>
        <pt x="178" y="858" on="1"/>
        <pt x="143" y="1593" on="1"/>
        <pt x="367" y="1565" on="1"/>
        <pt x="322" y="866" on="1"/>
      </contour>
      <contour>
        <pt x="330" y="553" on="1"/>
        <pt x="360" y="-156" on="1"/>
        <pt x="158" y="-156" on="1"/>
        <pt x="184" y="563" on="1"/>
      </contour>
    </TTGlyph>
    <TTGlyph name="bullet" xMin="150" yMin="543" xMax="539" yMax="860">
      <contour>
        <pt x="539" y="698" on="1"/>
        <pt x="539" y="656" on="0"/>
        <pt x="497" y="597" on="0"/>
        <pt x="436" y="560" on="0"/>
        <pt x="369" y="543" on="0"/>
        <pt x="344" y="543" on="1"/>
        <pt x="317" y="543" on="0"/>
        <pt x="250" y="560" on="0"/>
        <pt x="190" y="597" on="0"/>
        <pt x="150" y="656" on="0"/>
        <pt x="150" y="698" on="1"/>
        <pt x="150" y="742" on="0"/>
        <pt x="190" y="803" on="0"/>
        <pt x="250" y="842" on="0"/>
        <pt x="317" y="860" on="0"/>
        <pt x="344" y="860" on="1"/>
        <pt x="369" y="860" on="0"/>
        <pt x="436" y="842" on="0"/>
        <pt x="497" y="803" on="0"/>
        <pt x="539" y="742" on="0"/>
      </contour>
    </TTGlyph>
    <TTGlyph name="c" xMin="55" yMin="-63" xMax="997" yMax="1069">
      <contour>
        <pt x="532" y="999" on="1"/>
        <pt x="616" y="999" on="0"/>
        <pt x="753" y="926" on="0"/>
        <pt x="795" y="864" on="1"/>
        <pt x="997" y="1069" on="1"/>
        <pt x="831" y="528" on="1"/>
        <pt x="822" y="612" on="0"/>
        <pt x="784" y="729" on="0"/>
        <pt x="735" y="806" on="0"/>
        <pt x="682" y="848" on="0"/>
        <pt x="637" y="868" on="0"/>
        <pt x="604" y="872" on="0"/>
        <pt x="600" y="872" on="1"/>
        <pt x="528" y="872" on="0"/>
        <pt x="412" y="816" on="0"/>
        <pt x="329" y="708" on="0"/>
        <pt x="285" y="551" on="0"/>
        <pt x="285" y="451" on="1"/>
        <pt x="285" y="355" on="0"/>
        <pt x="331" y="208" on="0"/>
        <pt x="407" y="108" on="0"/>
        <pt x="505" y="57" on="0"/>
        <pt x="557" y="57" on="1"/>
        <pt x="618" y="57" on="0"/>
        <pt x="722" y="112" on="0"/>
        <pt x="796" y="202" on="0"/>
        <pt x="833" y="319" on="0"/>
        <pt x="827" y="381" on="1"/>
        <pt x="839" y="370" on="0"/>
        <pt x="866" y="338" on="0"/>
        <pt x="889" y="299" on="0"/>
        <pt x="903" y="254" on="0"/>
        <pt x="903" y="231" on="1"/>
        <pt x="903" y="163" on="0"/>
        <pt x="838" y="54" on="0"/>
        <pt x="736" y="-22" on="0"/>
        <pt x="608" y="-63" on="0"/>
        <pt x="545" y="-63" on="1"/>
        <pt x="518" y="-63" on="0"/>
        <pt x="425" y="-51" on="0"/>
        <pt x="316" y="-14" on="0"/>
        <pt x="204" y="56" on="0"/>
        <pt x="113" y="172" on="0"/>
        <pt x="55" y="342" on="0"/>
        <pt x="55" y="461" on="1"/>
        <pt x="55" y="567" on="0"/>
        <pt x="104" y="730" on="0"/>
        <pt x="185" y="850" on="0"/>
        <pt x="287" y="930" on="0"/>
        <pt x="393" y="978" on="0"/>
        <pt x="494" y="999" on="0"/>
      </contour>
    </TTGlyph>
    <TTGlyph name="cacute" xMin="55" yMin="-63" xMax="997" yMax="1433">
      <component glyphName="c" x="0" y="0" flags="0x204"/>
      <component glyphName="acute" x="528" y="-42" flags="0x4"/>
    </TTGlyph>
    <TTGlyph name="caron" xMin="55" yMin="1141" xMax="500" yMax="1464">
      <contour>
        <pt x="276" y="1141" on="1"/>
        <pt x="55" y="1462" on="1"/>
        <pt x="279" y="1329" on="1"/>
        <pt x="500" y="1464" on="1"/>
      </contour>
    </TTGlyph>
    <TTGlyph name="ccaron" xMin="55" yMin="-63" xMax="997" yMax="1379">
      <component glyphName="c" x="0" y="0" flags="0x204"/>
      <component glyphName="caron" x="264" y="-85" flags="0x4"/>
    </TTGlyph>
    <TTGlyph name="ccedilla" xMin="55" yMin="-373" xMax="997" yMax="1069">
      <contour>
        <pt x="375" y="-240" on="1"/>
        <pt x="387" y="-255" on="0"/>
        <pt x="431" y="-287" on="0"/>
        <pt x="457" y="-287" on="1"/>
        <pt x="483" y="-287" on="0"/>
        <pt x="518" y="-249" on="0"/>
        <pt x="518" y="-221" on="1"/>
        <pt x="518" y="-206" on="0"/>
        <pt x="499" y="-189" on="0"/>
        <pt x="472" y="-179" on="0"/>
        <pt x="440" y="-176" on="0"/>
        <pt x="428" y="-176" on="1"/>
        <pt x="409" y="-176" on="0"/>
        <pt x="396" y="-177" on="0"/>
        <pt x="387" y="-180" on="1"/>
        <pt x="471" y="-57" on="1"/>
        <pt x="434" y="-52" on="0"/>
        <pt x="343" y="-26" on="0"/>
        <pt x="251" y="23" on="0"/>
        <pt x="164" y="99" on="0"/>
        <pt x="96" y="210" on="0"/>
        <pt x="55" y="362" on="0"/>
        <pt x="55" y="461" on="1"/>
        <pt x="55" y="567" on="0"/>
        <pt x="104" y="730" on="0"/>
        <pt x="185" y="850" on="0"/>
        <pt x="287" y="930" on="0"/>
        <pt x="393" y="978" on="0"/>
        <pt x="494" y="999" on="0"/>
        <pt x="532" y="999" on="1"/>
        <pt x="616" y="999" on="0"/>
        <pt x="753" y="926" on="0"/>
        <pt x="795" y="864" on="1"/>
        <pt x="997" y="1069" on="1"/>
        <pt x="831" y="528" on="1"/>
        <pt x="822" y="612" on="0"/>
        <pt x="784" y="729" on="0"/>
        <pt x="735" y="806" on="0"/>
        <pt x="682" y="848" on="0"/>
        <pt x="637" y="868" on="0"/>
        <pt x="604" y="872" on="0"/>
        <pt x="600" y="872" on="1"/>
        <pt x="528" y="872" on="0"/>
        <pt x="412" y="816" on="0"/>
        <pt x="329" y="708" on="0"/>
        <pt x="285" y="551" on="0"/>
        <pt x="285" y="451" on="1"/>
        <pt x="285" y="355" on="0"/>
        <pt x="331" y="208" on="0"/>
        <pt x="407" y="108" on="0"/>
        <pt x="505" y="57" on="0"/>
        <pt x="557" y="57" on="1"/>
        <pt x="618" y="57" on="0"/>
        <pt x="722" y="112" on="0"/>
        <pt x="796" y="202" on="0"/>
        <pt x="833" y="319" on="0"/>
        <pt x="827" y="381" on="1"/>
        <pt x="839" y="370" on="0"/>
        <pt x="866" y="338" on="0"/>
        <pt x="889" y="299" on="0"/>
        <pt x="903" y="254" on="0"/>
        <pt x="903" y="231" on="1"/>
        <pt x="903" y="163" on="0"/>
        <pt x="838" y="54" on="0"/>
        <pt x="736" y="-22" on="0"/>
        <pt x="608" y="-63" on="0"/>
        <pt x="545" y="-63" on="1"/>
        <pt x="535" y="-63" on="1"/>
        <pt x="508" y="-125" on="1"/>
        <pt x="523" y="-125" on="0"/>
        <pt x="559" y="-139" on="0"/>
        <pt x="592" y="-168" on="0"/>
        <pt x="614" y="-213" on="0"/>
        <pt x="614" y="-244" on="1"/>
        <pt x="614" y="-309" on="0"/>
        <pt x="537" y="-373" on="0"/>
        <pt x="477" y="-373" on="1"/>
        <pt x="459" y="-373" on="0"/>
        <pt x="419" y="-359" on="0"/>
        <pt x="383" y="-334" on="0"/>
        <pt x="353" y="-301" on="0"/>
        <pt x="346" y="-283" on="1"/>
      </contour>
    </TTGlyph>
    <TTGlyph name="ccircumflex" xMin="55" yMin="-63" xMax="997" yMax="1348">
      <component glyphName="c" x="0" y="0" flags="0x204"/>
      <component glyphName="circumflex" x="225" y="-116" flags="0x4"/>
    </TTGlyph>
    <TTGlyph name="cdotaccent" xMin="55" yMin="-63" xMax="997" yMax="1283">
      <component glyphName="c" x="0" y="0" flags="0x204"/>
      <component glyphName="dotaccent" x="424" y="-116" flags="0x4"/>
    </TTGlyph>
    <TTGlyph name="cedilla" xMin="0" yMin="-309" xMax="268" yMax="43">
      <contour>
        <pt x="29" y="-176" on="1"/>
        <pt x="41" y="-192" on="0"/>
        <pt x="85" y="-223" on="0"/>
        <pt x="111" y="-223" on="1"/>
        <pt x="137" y="-223" on="0"/>
        <pt x="172" y="-186" on="0"/>
        <pt x="172" y="-158" on="1"/>
        <pt x="172" y="-143" on="0"/>
        <pt x="153" y="-126" on="0"/>
        <pt x="126" y="-116" on="0"/>
        <pt x="94" y="-113" on="0"/>
        <pt x="82" y="-113" on="1"/>
        <pt x="63" y="-113" on="0"/>
        <pt x="50" y="-114" on="0"/>
        <pt x="41" y="-117" on="1"/>
        <pt x="152" y="43" on="1"/>
        <pt x="209" y="43" on="1"/>
        <pt x="162" y="-61" on="1"/>
        <pt x="177" y="-61" on="0"/>
        <pt x="213" y="-75" on="0"/>
        <pt x="246" y="-104" on="0"/>
        <pt x="268" y="-149" on="0"/>
        <pt x="268" y="-180" on="1"/>
        <pt x="268" y="-245" on="0"/>
        <pt x="191" y="-309" on="0"/>
        <pt x="131" y="-309" on="1"/>
        <pt x="113" y="-309" on="0"/>
        <pt x="73" y="-295" on="0"/>
        <pt x="36" y="-270" on="0"/>
        <pt x="7" y="-237" on="0"/>
        <pt x="0" y="-219" on="1"/>
      </contour>
    </TTGlyph>
    <TTGlyph name="cent" xMin="70" yMin="-379" xMax="823" yMax="1374">
      <contour>
        <pt x="475" y="897" on="1"/>
        <pt x="534" y="892" on="0"/>
        <pt x="631" y="836" on="0"/>
        <pt x="662" y="791" on="1"/>
        <pt x="823" y="954" on="1"/>
        <pt x="690" y="522" on="1"/>
        <pt x="683" y="590" on="0"/>
        <pt x="653" y="683" on="0"/>
        <pt x="614" y="744" on="0"/>
        <pt x="572" y="778" on="0"/>
        <pt x="535" y="794" on="0"/>
        <pt x="509" y="797" on="0"/>
        <pt x="506" y="797" on="1"/>
        <pt x="448" y="797" on="0"/>
        <pt x="355" y="752" on="0"/>
        <pt x="289" y="666" on="0"/>
        <pt x="254" y="541" on="0"/>
        <pt x="254" y="461" on="1"/>
        <pt x="254" y="384" on="0"/>
        <pt x="291" y="266" on="0"/>
        <pt x="351" y="186" on="0"/>
        <pt x="429" y="145" on="0"/>
        <pt x="471" y="145" on="1"/>
        <pt x="519" y="145" on="0"/>
        <pt x="603" y="189" on="0"/>
        <pt x="662" y="261" on="0"/>
        <pt x="692" y="354" on="0"/>
        <pt x="688" y="403" on="1"/>
        <pt x="697" y="395" on="0"/>
        <pt x="718" y="370" on="0"/>
        <pt x="736" y="339" on="0"/>
        <pt x="748" y="303" on="0"/>
        <pt x="748" y="285" on="1"/>
        <pt x="748" y="232" on="0"/>
        <pt x="699" y="146" on="0"/>
        <pt x="620" y="85" on="0"/>
        <pt x="522" y="50" on="0"/>
        <pt x="473" y="49" on="1"/>
        <pt x="508" y="-379" on="1"/>
        <pt x="362" y="-346" on="1"/>
        <pt x="410" y="51" on="1"/>
        <pt x="381" y="55" on="0"/>
        <pt x="308" y="75" on="0"/>
        <pt x="232" y="114" on="0"/>
        <pt x="160" y="174" on="0"/>
        <pt x="104" y="265" on="0"/>
        <pt x="70" y="388" on="0"/>
        <pt x="70" y="469" on="1"/>
        <pt x="70" y="545" on="0"/>
        <pt x="102" y="665" on="0"/>
        <pt x="155" y="757" on="0"/>
        <pt x="224" y="822" on="0"/>
        <pt x="299" y="866" on="0"/>
        <pt x="375" y="890" on="0"/>
        <pt x="408" y="895" on="1"/>
        <pt x="352" y="1374" on="1"/>
        <pt x="530" y="1352" on="1"/>
      </contour>
    </TTGlyph>
    <TTGlyph name="circumflex" xMin="55" yMin="1141" xMax="500" yMax="1464">
      <contour>
        <pt x="500" y="1141" on="1"/>
        <pt x="279" y="1276" on="1"/>
        <pt x="55" y="1143" on="1"/>
        <pt x="276" y="1464" on="1"/>
      </contour>
    </TTGlyph>
    <TTGlyph name="colon" xMin="115" yMin="-63" xMax="418" yMax="942">
      <contour>
        <pt x="418" y="57" on="1"/>
        <pt x="418" y="25" on="0"/>
        <pt x="385" y="-21" on="0"/>
        <pt x="337" y="-50" on="0"/>
        <pt x="285" y="-63" on="0"/>
        <pt x="266" y="-63" on="1"/>
        <pt x="245" y="-63" on="0"/>
        <pt x="193" y="-50" on="0"/>
        <pt x="147" y="-21" on="0"/>
        <pt x="115" y="25" on="0"/>
        <pt x="115" y="57" on="1"/>
        <pt x="115" y="91" on="0"/>
        <pt x="147" y="139" on="0"/>
        <pt x="193" y="170" on="0"/>
        <pt x="245" y="184" on="0"/>
        <pt x="266" y="184" on="1"/>
        <pt x="285" y="184" on="0"/>
        <pt x="337" y="170" on="0"/>
        <pt x="385" y="139" on="0"/>
        <pt x="418" y="91" on="0"/>
      </contour>
      <contour>
        <pt x="418" y="815" on="1"/>
        <pt x="418" y="783" on="0"/>
        <pt x="385" y="737" on="0"/>
        <pt x="337" y="708" on="0"/>
        <pt x="285" y="694" on="0"/>
        <pt x="266" y="694" on="1"/>
        <pt x="245" y="694" on="0"/>
        <pt x="193" y="708" on="0"/>
        <pt x="147" y="737" on="0"/>
        <pt x="115" y="783" on="0"/>
        <pt x="115" y="815" on="1"/>
        <pt x="115" y="849" on="0"/>
        <pt x="147" y="897" on="0"/>
        <pt x="193" y="928" on="0"/>
        <pt x="245" y="942" on="0"/>
        <pt x="266" y="942" on="1"/>
        <pt x="285" y="942" on="0"/>
        <pt x="337" y="928" on="0"/>
        <pt x="385" y="897" on="0"/>
        <pt x="418" y="849" on="0"/>
      </contour>
    </TTGlyph>
    <TTGlyph name="comma" xMin="68" yMin="-174" xMax="383" yMax="184">
      <contour>
        <pt x="383" y="68" on="1"/>
        <pt x="383" y="17" on="0"/>
        <pt x="343" y="-62" on="0"/>
        <pt x="276" y="-121" on="0"/>
        <pt x="189" y="-162" on="0"/>
        <pt x="141" y="-174" on="1"/>
        <pt x="151" y="-158" on="0"/>
        <pt x="168" y="-133" on="0"/>
        <pt x="181" y="-106" on="0"/>
        <pt x="188" y="-72" on="0"/>
        <pt x="188" y="-47" on="1"/>
        <pt x="170" y="-43" on="0"/>
        <pt x="128" y="-26" on="0"/>
        <pt x="92" y="3" on="0"/>
        <pt x="68" y="42" on="0"/>
        <pt x="68" y="68" on="1"/>
        <pt x="68" y="99" on="0"/>
        <pt x="102" y="143" on="0"/>
        <pt x="152" y="171" on="0"/>
        <pt x="208" y="184" on="0"/>
        <pt x="229" y="184" on="1"/>
        <pt x="251" y="184" on="0"/>
        <pt x="305" y="171" on="0"/>
        <pt x="352" y="143" on="0"/>
        <pt x="383" y="99" on="0"/>
      </contour>
    </TTGlyph>
    <TTGlyph name="copyright" xMin="90" yMin="98" xMax="1157" yMax="1198">
      <contour>
        <pt x="1157" y="649" on="1"/>
        <pt x="1157" y="519" on="0"/>
        <pt x="1069" y="315" on="0"/>
        <pt x="921" y="173" on="0"/>
        <pt x="728" y="98" on="0"/>
        <pt x="623" y="98" on="1"/>
        <pt x="519" y="98" on="0"/>
        <pt x="327" y="170" on="0"/>
        <pt x="179" y="306" on="0"/>
        <pt x="90" y="499" on="0"/>
        <pt x="90" y="621" on="1"/>
        <pt x="90" y="745" on="0"/>
        <pt x="173" y="956" on="0"/>
        <pt x="319" y="1111" on="0"/>
        <pt x="520" y="1198" on="0"/>
        <pt x="637" y="1198" on="1"/>
        <pt x="736" y="1198" on="0"/>
        <pt x="923" y="1125" on="0"/>
        <pt x="1069" y="985" on="0"/>
        <pt x="1157" y="780" on="0"/>
      </contour>
      <contour>
        <pt x="1051" y="651" on="1"/>
        <pt x="1051" y="770" on="0"/>
        <pt x="967" y="948" on="0"/>
        <pt x="901" y="1008" on="1"/>
        <pt x="774" y="735" on="1"/>
        <pt x="760" y="881" on="1"/>
        <pt x="744" y="901" on="0"/>
        <pt x="707" y="924" on="0"/>
        <pt x="673" y="935" on="0"/>
        <pt x="646" y="938" on="0"/>
        <pt x="639" y="938" on="1"/>
        <pt x="598" y="938" on="0"/>
        <pt x="529" y="896" on="0"/>
        <pt x="478" y="820" on="0"/>
        <pt x="449" y="712" on="0"/>
        <pt x="449" y="645" on="1"/>
        <pt x="449" y="579" on="0"/>
        <pt x="478" y="469" on="0"/>
        <pt x="529" y="390" on="0"/>
        <pt x="596" y="346" on="0"/>
        <pt x="635" y="346" on="1"/>
        <pt x="674" y="346" on="0"/>
        <pt x="730" y="385" on="0"/>
        <pt x="765" y="444" on="0"/>
        <pt x="782" y="515" on="0"/>
        <pt x="782" y="547" on="1"/>
        <pt x="782" y="553" on="0"/>
        <pt x="782" y="565" on="0"/>
        <pt x="780" y="573" on="1"/>
        <pt x="812" y="552" on="0"/>
        <pt x="844" y="496" on="0"/>
        <pt x="844" y="467" on="1"/>
        <pt x="844" y="440" on="0"/>
        <pt x="817" y="379" on="0"/>
        <pt x="765" y="328" on="0"/>
        <pt x="689" y="295" on="0"/>
        <pt x="639" y="295" on="1"/>
        <pt x="579" y="295" on="0"/>
        <pt x="461" y="333" on="0"/>
        <pt x="368" y="416" on="0"/>
        <pt x="311" y="547" on="0"/>
        <pt x="311" y="639" on="1"/>
        <pt x="311" y="728" on="0"/>
        <pt x="364" y="865" on="0"/>
        <pt x="451" y="958" on="0"/>
        <pt x="560" y="1006" on="0"/>
        <pt x="616" y="1006" on="1"/>
        <pt x="666" y="1006" on="0"/>
        <pt x="760" y="970" on="0"/>
        <pt x="791" y="936" on="1"/>
        <pt x="891" y="1016" on="1"/>
        <pt x="829" y="1068" on="0"/>
        <pt x="681" y="1120" on="0"/>
        <pt x="606" y="1120" on="1"/>
        <pt x="514" y="1120" on="0"/>
        <pt x="357" y="1052" on="0"/>
        <pt x="240" y="926" on="0"/>
        <pt x="174" y="745" on="0"/>
        <pt x="174" y="631" on="1"/>
        <pt x="174" y="524" on="0"/>
        <pt x="240" y="356" on="0"/>
        <pt x="354" y="241" on="0"/>
        <pt x="507" y="180" on="0"/>
        <pt x="594" y="180" on="1"/>
        <pt x="681" y="180" on="0"/>
        <pt x="845" y="241" on="0"/>
        <pt x="973" y="361" on="0"/>
        <pt x="1051" y="537" on="0"/>
      </contour>
    </TTGlyph>
    <TTGlyph name="currency" xMin="41" yMin="420" xMax="809" yMax="1178">
      <contour>
        <pt x="575" y="801" on="1"/>
        <pt x="575" y="858" on="0"/>
        <pt x="543" y="950" on="0"/>
        <pt x="489" y="1013" on="0"/>
        <pt x="421" y="1047" on="0"/>
        <pt x="385" y="1047" on="1"/>
        <pt x="343" y="1047" on="0"/>
        <pt x="274" y="1007" on="0"/>
        <pt x="225" y="938" on="0"/>
        <pt x="197" y="845" on="0"/>
        <pt x="197" y="793" on="1"/>
        <pt x="197" y="739" on="0"/>
        <pt x="224" y="652" on="0"/>
        <pt x="273" y="590" on="0"/>
        <pt x="340" y="557" on="0"/>
        <pt x="379" y="557" on="1"/>
        <pt x="418" y="557" on="0"/>
        <pt x="489" y="590" on="0"/>
        <pt x="543" y="653" on="0"/>
        <pt x="575" y="744" on="0"/>
      </contour>
      <contour>
        <pt x="145" y="1178" on="1"/>
        <pt x="231" y="1071" on="1"/>
        <pt x="270" y="1106" on="0"/>
        <pt x="367" y="1147" on="0"/>
        <pt x="426" y="1147" on="1"/>
        <pt x="485" y="1147" on="0"/>
        <pt x="586" y="1106" on="0"/>
        <pt x="627" y="1071" on="1"/>
        <pt x="731" y="1157" on="1"/>
        <pt x="809" y="1001" on="1"/>
        <pt x="707" y="954" on="1"/>
        <pt x="719" y="922" on="0"/>
        <pt x="733" y="851" on="0"/>
        <pt x="733" y="813" on="1"/>
        <pt x="733" y="751" on="0"/>
        <pt x="702" y="649" on="0"/>
        <pt x="676" y="608" on="1"/>
        <pt x="770" y="532" on="1"/>
        <pt x="614" y="420" on="1"/>
        <pt x="555" y="502" on="1"/>
        <pt x="523" y="486" on="0"/>
        <pt x="453" y="471" on="0"/>
        <pt x="418" y="471" on="1"/>
        <pt x="365" y="471" on="0"/>
        <pt x="274" y="503" on="0"/>
        <pt x="236" y="532" on="1"/>
        <pt x="168" y="430" on="1"/>
        <pt x="66" y="557" on="1"/>
        <pt x="154" y="635" on="1"/>
        <pt x="137" y="672" on="0"/>
        <pt x="120" y="762" on="0"/>
        <pt x="123" y="815" on="1"/>
        <pt x="126" y="881" on="0"/>
        <pt x="147" y="936" on="1"/>
        <pt x="41" y="1006" on="1"/>
      </contour>
    </TTGlyph>
    <TTGlyph name="d" xMin="57" yMin="-41" xMax="1110" yMax="1282">
      <contour>
        <pt x="889" y="125" on="1"/>
        <pt x="1110" y="43" on="1"/>
        <pt x="748" y="-27" on="1"/>
        <pt x="752" y="168" on="1"/>
        <pt x="728" y="127" on="0"/>
        <pt x="666" y="52" on="0"/>
        <pt x="589" y="-6" on="0"/>
        <pt x="495" y="-41" on="0"/>
        <pt x="440" y="-41" on="1"/>
        <pt x="362" y="-39" on="0"/>
        <pt x="223" y="27" on="0"/>
        <pt x="118" y="150" on="0"/>
        <pt x="57" y="329" on="0"/>
        <pt x="57" y="444" on="1"/>
        <pt x="57" y="584" on="0"/>
        <pt x="123" y="794" on="0"/>
        <pt x="237" y="934" on="0"/>
        <pt x="390" y="1004" on="0"/>
        <pt x="477" y="1004" on="1"/>
        <pt x="565" y="1004" on="0"/>
        <pt x="716" y="929" on="0"/>
        <pt x="764" y="866" on="1"/>
        <pt x="768" y="1102" on="1"/>
        <pt x="524" y="1194" on="1"/>
        <pt x="1018" y="1282" on="1"/>
      </contour>
      <contour>
        <pt x="471" y="86" on="1"/>
        <pt x="474" y="86" on="0"/>
        <pt x="508" y="90" on="0"/>
        <pt x="558" y="107" on="0"/>
        <pt x="619" y="141" on="0"/>
        <pt x="680" y="202" on="0"/>
        <pt x="736" y="294" on="0"/>
        <pt x="756" y="360" on="1"/>
        <pt x="762" y="686" on="1"/>
        <pt x="747" y="722" on="0"/>
        <pt x="702" y="788" on="0"/>
        <pt x="647" y="839" on="0"/>
        <pt x="580" y="870" on="0"/>
        <pt x="543" y="870" on="1"/>
        <pt x="474" y="870" on="0"/>
        <pt x="377" y="802" on="0"/>
        <pt x="314" y="682" on="0"/>
        <pt x="285" y="518" on="0"/>
        <pt x="285" y="422" on="1"/>
        <pt x="285" y="351" on="0"/>
        <pt x="309" y="228" on="0"/>
        <pt x="355" y="138" on="0"/>
        <pt x="425" y="86" on="0"/>
      </contour>
    </TTGlyph>
    <TTGlyph name="dagger" xMin="70" yMin="-156" xMax="737" yMax="1593">
      <contour>
        <pt x="324" y="-156" on="1"/>
        <pt x="299" y="1036" on="1"/>
        <pt x="70" y="1051" on="1"/>
        <pt x="80" y="1200" on="1"/>
        <pt x="295" y="1219" on="1"/>
        <pt x="289" y="1593" on="1"/>
        <pt x="512" y="1565" on="1"/>
        <pt x="498" y="1235" on="1"/>
        <pt x="737" y="1255" on="1"/>
        <pt x="737" y="1008" on="1"/>
        <pt x="489" y="1024" on="1"/>
        <pt x="444" y="-156" on="1"/>
      </contour>
    </TTGlyph>
    <TTGlyph name="daggerdbl" xMin="70" yMin="-156" xMax="737" yMax="1593">
      <contour>
        <pt x="313" y="344" on="1"/>
        <pt x="299" y="1036" on="1"/>
        <pt x="70" y="1051" on="1"/>
        <pt x="80" y="1200" on="1"/>
        <pt x="295" y="1219" on="1"/>
        <pt x="289" y="1593" on="1"/>
        <pt x="512" y="1565" on="1"/>
        <pt x="498" y="1235" on="1"/>
        <pt x="737" y="1255" on="1"/>
        <pt x="737" y="1008" on="1"/>
        <pt x="489" y="1024" on="1"/>
        <pt x="463" y="352" on="1"/>
        <pt x="659" y="360" on="1"/>
        <pt x="649" y="211" on="1"/>
        <pt x="459" y="215" on="1"/>
        <pt x="444" y="-156" on="1"/>
        <pt x="324" y="-156" on="1"/>
        <pt x="315" y="219" on="1"/>
        <pt x="152" y="225" on="1"/>
        <pt x="152" y="338" on="1"/>
      </contour>
    </TTGlyph>
    <TTGlyph name="dcaron" xMin="57" yMin="-41" xMax="1350" yMax="1362">
      <component glyphName="d" x="0" y="0" flags="0x4"/>
      <component glyphName="uni0315" x="1022" y="0" flags="0x4"/>
    </TTGlyph>
    <TTGlyph name="dcroat" xMin="57" yMin="-41" xMax="1110" yMax="1294">
      <contour>
        <pt x="991" y="1042" on="1"/>
        <pt x="889" y="125" on="1"/>
        <pt x="1110" y="43" on="1"/>
        <pt x="748" y="-27" on="1"/>
        <pt x="752" y="168" on="1"/>
        <pt x="728" y="127" on="0"/>
        <pt x="666" y="52" on="0"/>
        <pt x="589" y="-6" on="0"/>
        <pt x="495" y="-41" on="0"/>
        <pt x="440" y="-41" on="1"/>
        <pt x="362" y="-39" on="0"/>
        <pt x="223" y="27" on="0"/>
        <pt x="118" y="150" on="0"/>
        <pt x="57" y="329" on="0"/>
        <pt x="57" y="444" on="1"/>
        <pt x="57" y="584" on="0"/>
        <pt x="123" y="794" on="0"/>
        <pt x="237" y="934" on="0"/>
        <pt x="390" y="1004" on="0"/>
        <pt x="477" y="1004" on="1"/>
        <pt x="565" y="1004" on="0"/>
        <pt x="716" y="929" on="0"/>
        <pt x="764" y="866" on="1"/>
        <pt x="768" y="1047" on="1"/>
        <pt x="582" y="1051" on="1"/>
        <pt x="596" y="1241" on="1"/>
        <pt x="774" y="1214" on="1"/>
        <pt x="776" y="1294" on="1"/>
        <pt x="1018" y="1282" on="1"/>
        <pt x="1006" y="1180" on="1"/>
        <pt x="1083" y="1169" on="1"/>
        <pt x="1069" y="1040" on="1"/>
      </contour>
      <contour>
        <pt x="471" y="86" on="1"/>
        <pt x="474" y="86" on="0"/>
        <pt x="508" y="90" on="0"/>
        <pt x="558" y="107" on="0"/>
        <pt x="619" y="141" on="0"/>
        <pt x="680" y="202" on="0"/>
        <pt x="736" y="294" on="0"/>
        <pt x="756" y="360" on="1"/>
        <pt x="762" y="686" on="1"/>
        <pt x="747" y="722" on="0"/>
        <pt x="702" y="788" on="0"/>
        <pt x="647" y="839" on="0"/>
        <pt x="580" y="870" on="0"/>
        <pt x="543" y="870" on="1"/>
        <pt x="474" y="870" on="0"/>
        <pt x="377" y="802" on="0"/>
        <pt x="314" y="682" on="0"/>
        <pt x="285" y="518" on="0"/>
        <pt x="285" y="422" on="1"/>
        <pt x="285" y="351" on="0"/>
        <pt x="309" y="228" on="0"/>
        <pt x="355" y="138" on="0"/>
        <pt x="425" y="86" on="0"/>
      </contour>
    </TTGlyph>
    <TTGlyph name="degree" xMin="74" yMin="989" xMax="469" yMax="1339">
      <contour>
        <pt x="469" y="1163" on="1"/>
        <pt x="469" y="1125" on="0"/>
        <pt x="437" y="1062" on="0"/>
        <pt x="383" y="1015" on="0"/>
        <pt x="311" y="989" on="0"/>
        <pt x="272" y="989" on="1"/>
        <pt x="232" y="989" on="0"/>
        <pt x="160" y="1015" on="0"/>
        <pt x="106" y="1062" on="0"/>
        <pt x="74" y="1125" on="0"/>
        <pt x="74" y="1163" on="1"/>
        <pt x="74" y="1201" on="0"/>
        <pt x="106" y="1265" on="0"/>
        <pt x="160" y="1312" on="0"/>
        <pt x="232" y="1339" on="0"/>
        <pt x="272" y="1339" on="1"/>
        <pt x="311" y="1339" on="0"/>
        <pt x="383" y="1312" on="0"/>
        <pt x="437" y="1265" on="0"/>
        <pt x="469" y="1201" on="0"/>
      </contour>
      <contour>
        <pt x="344" y="1163" on="1"/>
        <pt x="344" y="1183" on="0"/>
        <pt x="334" y="1223" on="0"/>
        <pt x="315" y="1254" on="0"/>
        <pt x="288" y="1274" on="0"/>
        <pt x="272" y="1274" on="1"/>
        <pt x="256" y="1274" on="0"/>
        <pt x="229" y="1254" on="0"/>
        <pt x="210" y="1223" on="0"/>
        <pt x="199" y="1183" on="0"/>
        <pt x="199" y="1163" on="1"/>
        <pt x="199" y="1144" on="0"/>
        <pt x="210" y="1105" on="0"/>
        <pt x="229" y="1074" on="0"/>
        <pt x="256" y="1055" on="0"/>
        <pt x="272" y="1055" on="1"/>
        <pt x="284" y="1055" on="0"/>
        <pt x="310" y="1074" on="0"/>
        <pt x="331" y="1105" on="0"/>
        <pt x="344" y="1144" on="0"/>
      </contour>
    </TTGlyph>
    <TTGlyph name="dieresis" xMin="0" yMin="1155" xMax="524" yMax="1380">
      <contour>
        <pt x="524" y="1268" on="1"/>
        <pt x="524" y="1245" on="0"/>
        <pt x="507" y="1205" on="0"/>
        <pt x="477" y="1173" on="0"/>
        <pt x="436" y="1155" on="0"/>
        <pt x="412" y="1155" on="1"/>
        <pt x="389" y="1155" on="0"/>
        <pt x="349" y="1173" on="0"/>
        <pt x="319" y="1205" on="0"/>
        <pt x="301" y="1245" on="0"/>
        <pt x="301" y="1268" on="1"/>
        <pt x="301" y="1291" on="0"/>
        <pt x="319" y="1332" on="0"/>
        <pt x="349" y="1362" on="0"/>
        <pt x="389" y="1380" on="0"/>
        <pt x="412" y="1380" on="1"/>
        <pt x="436" y="1380" on="0"/>
        <pt x="477" y="1362" on="0"/>
        <pt x="507" y="1332" on="0"/>
        <pt x="524" y="1291" on="0"/>
      </contour>
      <contour>
        <pt x="217" y="1262" on="1"/>
        <pt x="217" y="1239" on="0"/>
        <pt x="200" y="1200" on="0"/>
        <pt x="171" y="1172" on="0"/>
        <pt x="132" y="1155" on="0"/>
        <pt x="109" y="1155" on="1"/>
        <pt x="86" y="1155" on="0"/>
        <pt x="47" y="1172" on="0"/>
        <pt x="17" y="1200" on="0"/>
        <pt x="0" y="1239" on="0"/>
        <pt x="0" y="1262" on="1"/>
        <pt x="0" y="1285" on="0"/>
        <pt x="17" y="1324" on="0"/>
        <pt x="47" y="1353" on="0"/>
        <pt x="86" y="1370" on="0"/>
        <pt x="109" y="1370" on="1"/>
        <pt x="155" y="1370" on="0"/>
        <pt x="217" y="1308" on="0"/>
      </contour>
    </TTGlyph>
    <TTGlyph name="divide" xMin="66" yMin="317" xMax="733" yMax="1069">
      <contour>
        <pt x="66" y="616" on="1"/>
        <pt x="76" y="766" on="1"/>
        <pt x="733" y="821" on="1"/>
        <pt x="733" y="573" on="1"/>
      </contour>
      <contour>
        <pt x="528" y="414" on="1"/>
        <pt x="528" y="388" on="0"/>
        <pt x="502" y="351" on="0"/>
        <pt x="464" y="328" on="0"/>
        <pt x="422" y="317" on="0"/>
        <pt x="406" y="317" on="1"/>
        <pt x="389" y="317" on="0"/>
        <pt x="348" y="328" on="0"/>
        <pt x="310" y="351" on="0"/>
        <pt x="285" y="388" on="0"/>
        <pt x="285" y="414" on="1"/>
        <pt x="285" y="441" on="0"/>
        <pt x="310" y="480" on="0"/>
        <pt x="348" y="505" on="0"/>
        <pt x="389" y="516" on="0"/>
        <pt x="406" y="516" on="1"/>
        <pt x="422" y="516" on="0"/>
        <pt x="464" y="505" on="0"/>
        <pt x="502" y="480" on="0"/>
        <pt x="528" y="441" on="0"/>
      </contour>
      <contour>
        <pt x="528" y="967" on="1"/>
        <pt x="528" y="941" on="0"/>
        <pt x="502" y="904" on="0"/>
        <pt x="464" y="881" on="0"/>
        <pt x="422" y="870" on="0"/>
        <pt x="406" y="870" on="1"/>
        <pt x="389" y="870" on="0"/>
        <pt x="348" y="881" on="0"/>
        <pt x="310" y="904" on="0"/>
        <pt x="285" y="941" on="0"/>
        <pt x="285" y="967" on="1"/>
        <pt x="285" y="994" on="0"/>
        <pt x="310" y="1033" on="0"/>
        <pt x="348" y="1058" on="0"/>
        <pt x="389" y="1069" on="0"/>
        <pt x="406" y="1069" on="1"/>
        <pt x="422" y="1069" on="0"/>
        <pt x="464" y="1058" on="0"/>
        <pt x="502" y="1033" on="0"/>
        <pt x="528" y="994" on="0"/>
      </contour>
    </TTGlyph>
    <TTGlyph name="dollar" xMin="63" yMin="-195" xMax="743" yMax="1559">
      <contour>
        <pt x="422" y="1096" on="1"/>
        <pt x="475" y="1089" on="0"/>
        <pt x="573" y="1051" on="0"/>
        <pt x="610" y="1022" on="1"/>
        <pt x="743" y="1186" on="1"/>
        <pt x="684" y="784" on="1"/>
        <pt x="674" y="826" on="0"/>
        <pt x="626" y="908" on="0"/>
        <pt x="556" y="973" on="0"/>
        <pt x="463" y="1012" on="0"/>
        <pt x="408" y="1012" on="1"/>
        <pt x="377" y="1012" on="0"/>
        <pt x="321" y="998" on="0"/>
        <pt x="278" y="968" on="0"/>
        <pt x="252" y="921" on="0"/>
        <pt x="252" y="889" on="1"/>
        <pt x="252" y="851" on="0"/>
        <pt x="294" y="802" on="0"/>
        <pt x="363" y="769" on="0"/>
        <pt x="451" y="746" on="0"/>
        <pt x="544" y="720" on="0"/>
        <pt x="632" y="686" on="0"/>
        <pt x="701" y="632" on="0"/>
        <pt x="743" y="551" on="0"/>
        <pt x="743" y="492" on="1"/>
        <pt x="743" y="426" on="0"/>
        <pt x="691" y="332" on="0"/>
        <pt x="610" y="272" on="0"/>
        <pt x="512" y="244" on="0"/>
        <pt x="465" y="244" on="1"/>
        <pt x="453" y="244" on="0"/>
        <pt x="428" y="244" on="0"/>
        <pt x="416" y="246" on="1"/>
        <pt x="455" y="-195" on="1"/>
        <pt x="309" y="-162" on="1"/>
        <pt x="358" y="258" on="1"/>
        <pt x="309" y="272" on="0"/>
        <pt x="219" y="321" on="0"/>
        <pt x="184" y="352" on="1"/>
        <pt x="63" y="190" on="1"/>
        <pt x="102" y="588" on="1"/>
        <pt x="127" y="532" on="0"/>
        <pt x="199" y="438" on="0"/>
        <pt x="287" y="369" on="0"/>
        <pt x="388" y="330" on="0"/>
        <pt x="442" y="330" on="1"/>
        <pt x="505" y="330" on="0"/>
        <pt x="582" y="383" on="0"/>
        <pt x="582" y="432" on="1"/>
        <pt x="582" y="464" on="0"/>
        <pt x="540" y="507" on="0"/>
        <pt x="470" y="538" on="0"/>
        <pt x="381" y="564" on="0"/>
        <pt x="289" y="595" on="0"/>
        <pt x="200" y="636" on="0"/>
        <pt x="130" y="698" on="0"/>
        <pt x="88" y="787" on="0"/>
        <pt x="88" y="850" on="1"/>
        <pt x="88" y="899" on="0"/>
        <pt x="114" y="973" on="0"/>
        <pt x="157" y="1027" on="0"/>
        <pt x="212" y="1062" on="0"/>
        <pt x="271" y="1084" on="0"/>
        <pt x="329" y="1094" on="0"/>
        <pt x="352" y="1096" on="1"/>
        <pt x="297" y="1559" on="1"/>
        <pt x="475" y="1536" on="1"/>
      </contour>
    </TTGlyph>
    <TTGlyph name="dotaccent" xMin="0" yMin="1190" xMax="209" yMax="1399">
      <contour>
        <pt x="209" y="1294" on="1"/>
        <pt x="209" y="1273" on="0"/>
        <pt x="192" y="1235" on="0"/>
        <pt x="164" y="1206" on="0"/>
        <pt x="126" y="1190" on="0"/>
        <pt x="104" y="1190" on="1"/>
        <pt x="83" y="1190" on="0"/>
        <pt x="45" y="1206" on="0"/>
        <pt x="16" y="1235" on="0"/>
        <pt x="0" y="1273" on="0"/>
        <pt x="0" y="1294" on="1"/>
        <pt x="0" y="1316" on="0"/>
        <pt x="16" y="1354" on="0"/>
        <pt x="45" y="1382" on="0"/>
        <pt x="83" y="1399" on="0"/>
        <pt x="104" y="1399" on="1"/>
        <pt x="126" y="1399" on="0"/>
        <pt x="164" y="1382" on="0"/>
        <pt x="192" y="1354" on="0"/>
        <pt x="209" y="1316" on="0"/>
      </contour>
    </TTGlyph>
    <TTGlyph name="dotlessi" xMin="-29" yMin="-10" xMax="539" yMax="997">
      <contour>
        <pt x="33" y="-10" on="1"/>
        <pt x="190" y="113" on="1"/>
        <pt x="156" y="803" on="1"/>
        <pt x="-29" y="924" on="1"/>
        <pt x="401" y="997" on="1"/>
        <pt x="324" y="195" on="1"/>
        <pt x="539" y="61" on="1"/>
      </contour>
    </TTGlyph>
    <TTGlyph name="dotlessj" xMin="-340" yMin="-469" xMax="391" yMax="1008">
      <contour>
        <pt x="-84" y="-199" on="1"/>
        <pt x="-30" y="-199" on="0"/>
        <pt x="52" y="-133" on="0"/>
        <pt x="112" y="-21" on="0"/>
        <pt x="153" y="127" on="0"/>
        <pt x="179" y="293" on="0"/>
        <pt x="193" y="467" on="0"/>
        <pt x="199" y="629" on="0"/>
        <pt x="201" y="769" on="0"/>
        <pt x="201" y="819" on="1"/>
        <pt x="-57" y="930" on="1"/>
        <pt x="340" y="1008" on="1"/>
        <pt x="351" y="956" on="0"/>
        <pt x="370" y="821" on="0"/>
        <pt x="383" y="669" on="0"/>
        <pt x="391" y="511" on="0"/>
        <pt x="391" y="436" on="1"/>
        <pt x="391" y="343" on="0"/>
        <pt x="374" y="159" on="0"/>
        <pt x="333" y="-7" on="0"/>
        <pt x="267" y="-150" on="0"/>
        <pt x="168" y="-254" on="0"/>
        <pt x="34" y="-313" on="0"/>
        <pt x="-53" y="-313" on="1"/>
        <pt x="-81" y="-313" on="0"/>
        <pt x="-144" y="-305" on="0"/>
        <pt x="-176" y="-293" on="1"/>
        <pt x="-223" y="-469" on="1"/>
        <pt x="-340" y="-45" on="1"/>
        <pt x="-308" y="-93" on="0"/>
        <pt x="-238" y="-154" on="0"/>
        <pt x="-171" y="-187" on="0"/>
        <pt x="-109" y="-199" on="0"/>
      </contour>
    </TTGlyph>
    <TTGlyph name="e" xMin="55" yMin="-33" xMax="938" yMax="1023">
      <contour>
        <pt x="289" y="367" on="1"/>
        <pt x="302" y="311" on="0"/>
        <pt x="346" y="204" on="0"/>
        <pt x="410" y="120" on="0"/>
        <pt x="494" y="68" on="0"/>
        <pt x="547" y="68" on="1"/>
        <pt x="617" y="68" on="0"/>
        <pt x="721" y="126" on="0"/>
        <pt x="787" y="215" on="0"/>
        <pt x="813" y="322" on="0"/>
        <pt x="805" y="371" on="1"/>
        <pt x="833" y="360" on="0"/>
        <pt x="870" y="324" on="0"/>
        <pt x="891" y="281" on="0"/>
        <pt x="899" y="236" on="0"/>
        <pt x="899" y="215" on="1"/>
        <pt x="899" y="167" on="0"/>
        <pt x="843" y="78" on="0"/>
        <pt x="742" y="9" on="0"/>
        <pt x="604" y="-33" on="0"/>
        <pt x="522" y="-33" on="1"/>
        <pt x="412" y="-33" on="0"/>
        <pt x="239" y="53" on="0"/>
        <pt x="119" y="200" on="0"/>
        <pt x="55" y="398" on="0"/>
        <pt x="55" y="510" on="1"/>
        <pt x="55" y="624" on="0"/>
        <pt x="119" y="817" on="0"/>
        <pt x="244" y="953" on="0"/>
        <pt x="426" y="1023" on="0"/>
        <pt x="545" y="1016" on="1"/>
        <pt x="627" y="1010" on="0"/>
        <pt x="765" y="928" on="0"/>
        <pt x="868" y="799" on="0"/>
        <pt x="931" y="633" on="0"/>
        <pt x="938" y="543" on="1"/>
      </contour>
      <contour>
        <pt x="270" y="528" on="1"/>
        <pt x="270" y="514" on="0"/>
        <pt x="270" y="487" on="0"/>
        <pt x="272" y="473" on="1"/>
        <pt x="711" y="633" on="1"/>
        <pt x="689" y="705" on="0"/>
        <pt x="634" y="808" on="0"/>
        <pt x="574" y="874" on="0"/>
        <pt x="513" y="905" on="0"/>
        <pt x="485" y="905" on="1"/>
        <pt x="443" y="905" on="0"/>
        <pt x="379" y="873" on="0"/>
        <pt x="332" y="818" on="0"/>
        <pt x="299" y="744" on="0"/>
        <pt x="279" y="660" on="0"/>
        <pt x="270" y="571" on="0"/>
      </contour>
    </TTGlyph>
    <TTGlyph name="eacute" xMin="55" yMin="-33" xMax="938" yMax="1431">
      <component glyphName="e" x="0" y="0" flags="0x204"/>
      <component glyphName="acute" x="393" y="-44" flags="0x4"/>
    </TTGlyph>
    <TTGlyph name="ebreve" xMin="55" yMin="-33" xMax="938" yMax="1349">
      <component glyphName="e" x="0" y="0" flags="0x204"/>
      <component glyphName="breve" x="264" y="-83" flags="0x4"/>
    </TTGlyph>
    <TTGlyph name="ecaron" xMin="55" yMin="-33" xMax="938" yMax="1389">
      <component glyphName="e" x="0" y="0" flags="0x204"/>
      <component glyphName="caron" x="213" y="-75" flags="0x4"/>
    </TTGlyph>
    <TTGlyph name="ecircumflex" xMin="55" yMin="-33" xMax="938" yMax="1359">
      <component glyphName="e" x="0" y="0" flags="0x204"/>
      <component glyphName="circumflex" x="184" y="-105" flags="0x4"/>
    </TTGlyph>
    <TTGlyph name="edieresis" xMin="55" yMin="-33" xMax="938" yMax="1303">
      <component glyphName="e" x="0" y="0" flags="0x204"/>
      <component glyphName="dieresis" x="195" y="-77" flags="0x4"/>
    </TTGlyph>
    <TTGlyph name="edotaccent" xMin="55" yMin="-33" xMax="938" yMax="1287">
      <component glyphName="e" x="0" y="0" flags="0x204"/>
      <component glyphName="dotaccent" x="387" y="-112" flags="0x4"/>
    </TTGlyph>
    <TTGlyph name="egrave" xMin="55" yMin="-33" xMax="938" yMax="1431">
      <component glyphName="e" x="0" y="0" flags="0x204"/>
      <component glyphName="grave" x="94" y="-44" flags="0x4"/>
    </TTGlyph>
    <TTGlyph name="eight" xMin="57" yMin="-59" xMax="1133" yMax="1401">
      <contour>
        <pt x="1133" y="377" on="1"/>
        <pt x="1133" y="269" on="0"/>
        <pt x="1045" y="105" on="0"/>
        <pt x="897" y="-4" on="0"/>
        <pt x="703" y="-59" on="0"/>
        <pt x="596" y="-59" on="1"/>
        <pt x="488" y="-59" on="0"/>
        <pt x="293" y="6" on="0"/>
        <pt x="145" y="123" on="0"/>
        <pt x="57" y="282" on="0"/>
        <pt x="57" y="377" on="1"/>
        <pt x="57" y="432" on="0"/>
        <pt x="90" y="549" on="0"/>
        <pt x="159" y="653" on="0"/>
        <pt x="263" y="735" on="0"/>
        <pt x="334" y="756" on="1"/>
        <pt x="294" y="780" on="0"/>
        <pt x="237" y="847" on="0"/>
        <pt x="201" y="921" on="0"/>
        <pt x="184" y="994" on="0"/>
        <pt x="184" y="1026" on="1"/>
        <pt x="184" y="1120" on="0"/>
        <pt x="254" y="1261" on="0"/>
        <pt x="372" y="1355" on="0"/>
        <pt x="526" y="1401" on="0"/>
        <pt x="610" y="1401" on="1"/>
        <pt x="695" y="1401" on="0"/>
        <pt x="850" y="1348" on="0"/>
        <pt x="967" y="1251" on="0"/>
        <pt x="1036" y="1112" on="0"/>
        <pt x="1036" y="1026" on="1"/>
        <pt x="1036" y="988" on="0"/>
        <pt x="1014" y="911" on="0"/>
        <pt x="970" y="838" on="0"/>
        <pt x="904" y="773" on="0"/>
        <pt x="860" y="748" on="1"/>
        <pt x="917" y="729" on="0"/>
        <pt x="1017" y="656" on="0"/>
        <pt x="1090" y="559" on="0"/>
        <pt x="1133" y="441" on="0"/>
      </contour>
      <contour>
        <pt x="889" y="377" on="1"/>
        <pt x="889" y="448" on="0"/>
        <pt x="834" y="566" on="0"/>
        <pt x="749" y="650" on="0"/>
        <pt x="645" y="696" on="0"/>
        <pt x="596" y="696" on="1"/>
        <pt x="550" y="696" on="0"/>
        <pt x="447" y="655" on="0"/>
        <pt x="360" y="575" on="0"/>
        <pt x="303" y="455" on="0"/>
        <pt x="303" y="377" on="1"/>
        <pt x="303" y="299" on="0"/>
        <pt x="360" y="179" on="0"/>
        <pt x="447" y="98" on="0"/>
        <pt x="550" y="57" on="0"/>
        <pt x="596" y="57" on="1"/>
        <pt x="647" y="57" on="0"/>
        <pt x="752" y="98" on="0"/>
        <pt x="836" y="179" on="0"/>
        <pt x="889" y="299" on="0"/>
      </contour>
      <contour>
        <pt x="805" y="1044" on="1"/>
        <pt x="805" y="1100" on="0"/>
        <pt x="770" y="1194" on="0"/>
        <pt x="711" y="1262" on="0"/>
        <pt x="637" y="1300" on="0"/>
        <pt x="598" y="1300" on="1"/>
        <pt x="560" y="1300" on="0"/>
        <pt x="489" y="1262" on="0"/>
        <pt x="434" y="1190" on="0"/>
        <pt x="401" y="1088" on="0"/>
        <pt x="401" y="1024" on="1"/>
        <pt x="401" y="971" on="0"/>
        <pt x="434" y="885" on="0"/>
        <pt x="490" y="824" on="0"/>
        <pt x="563" y="791" on="0"/>
        <pt x="604" y="791" on="1"/>
        <pt x="660" y="791" on="0"/>
        <pt x="737" y="840" on="0"/>
        <pt x="784" y="914" on="0"/>
        <pt x="805" y="1003" on="0"/>
      </contour>
    </TTGlyph>
    <TTGlyph name="ellipsis" xMin="68" yMin="-63" xMax="1280" yMax="184">
      <contour>
        <pt x="371" y="57" on="1"/>
        <pt x="371" y="25" on="0"/>
        <pt x="338" y="-21" on="0"/>
        <pt x="290" y="-50" on="0"/>
        <pt x="238" y="-63" on="0"/>
        <pt x="219" y="-63" on="1"/>
        <pt x="198" y="-63" on="0"/>
        <pt x="146" y="-50" on="0"/>
        <pt x="100" y="-21" on="0"/>
        <pt x="68" y="25" on="0"/>
        <pt x="68" y="57" on="1"/>
        <pt x="68" y="91" on="0"/>
        <pt x="100" y="139" on="0"/>
        <pt x="146" y="170" on="0"/>
        <pt x="198" y="184" on="0"/>
        <pt x="219" y="184" on="1"/>
        <pt x="238" y="184" on="0"/>
        <pt x="290" y="170" on="0"/>
        <pt x="338" y="139" on="0"/>
        <pt x="371" y="91" on="0"/>
      </contour>
      <contour>
        <pt x="825" y="57" on="1"/>
        <pt x="825" y="25" on="0"/>
        <pt x="792" y="-21" on="0"/>
        <pt x="745" y="-50" on="0"/>
        <pt x="693" y="-63" on="0"/>
        <pt x="674" y="-63" on="1"/>
        <pt x="653" y="-63" on="0"/>
        <pt x="600" y="-50" on="0"/>
        <pt x="554" y="-21" on="0"/>
        <pt x="522" y="25" on="0"/>
        <pt x="522" y="57" on="1"/>
        <pt x="522" y="91" on="0"/>
        <pt x="554" y="139" on="0"/>
        <pt x="600" y="170" on="0"/>
        <pt x="653" y="184" on="0"/>
        <pt x="674" y="184" on="1"/>
        <pt x="693" y="184" on="0"/>
        <pt x="745" y="170" on="0"/>
        <pt x="792" y="139" on="0"/>
        <pt x="825" y="91" on="0"/>
      </contour>
      <contour>
        <pt x="1280" y="57" on="1"/>
        <pt x="1280" y="25" on="0"/>
        <pt x="1247" y="-21" on="0"/>
        <pt x="1200" y="-50" on="0"/>
        <pt x="1147" y="-63" on="0"/>
        <pt x="1128" y="-63" on="1"/>
        <pt x="1107" y="-63" on="0"/>
        <pt x="1055" y="-50" on="0"/>
        <pt x="1009" y="-21" on="0"/>
        <pt x="977" y="25" on="0"/>
        <pt x="977" y="57" on="1"/>
        <pt x="977" y="91" on="0"/>
        <pt x="1009" y="139" on="0"/>
        <pt x="1055" y="170" on="0"/>
        <pt x="1107" y="184" on="0"/>
        <pt x="1128" y="184" on="1"/>
        <pt x="1147" y="184" on="0"/>
        <pt x="1200" y="170" on="0"/>
        <pt x="1247" y="139" on="0"/>
        <pt x="1280" y="91" on="0"/>
      </contour>
    </TTGlyph>
    <TTGlyph name="emacron" xMin="55" yMin="-33" xMax="938" yMax="1250">
      <component glyphName="e" x="0" y="0" flags="0x204"/>
      <component glyphName="macron" x="236" y="-136" flags="0x4"/>
    </TTGlyph>
    <TTGlyph name="emdash" xMin="111" yMin="573" xMax="1239" yMax="821">
      <contour>
        <pt x="111" y="616" on="1"/>
        <pt x="121" y="766" on="1"/>
        <pt x="1239" y="821" on="1"/>
        <pt x="1239" y="573" on="1"/>
      </contour>
    </TTGlyph>
    <TTGlyph name="endash" xMin="111" yMin="573" xMax="932" yMax="821">
      <contour>
        <pt x="111" y="616" on="1"/>
        <pt x="121" y="766" on="1"/>
        <pt x="932" y="821" on="1"/>
        <pt x="932" y="573" on="1"/>
      </contour>
    </TTGlyph>
    <TTGlyph name="eng" xMin="-18" yMin="-512" xMax="973" yMax="1040">
      <contour>
        <pt x="973" y="621" on="1"/>
        <pt x="973" y="558" on="0"/>
        <pt x="966" y="406" on="0"/>
        <pt x="947" y="245" on="0"/>
        <pt x="913" y="81" on="0"/>
        <pt x="861" y="-70" on="0"/>
        <pt x="787" y="-202" on="0"/>
        <pt x="688" y="-300" on="0"/>
        <pt x="560" y="-356" on="0"/>
        <pt x="479" y="-356" on="1"/>
        <pt x="451" y="-356" on="0"/>
        <pt x="388" y="-348" on="0"/>
        <pt x="356" y="-336" on="1"/>
        <pt x="309" y="-512" on="1"/>
        <pt x="193" y="-88" on="1"/>
        <pt x="225" y="-136" on="0"/>
        <pt x="295" y="-197" on="0"/>
        <pt x="362" y="-230" on="0"/>
        <pt x="424" y="-242" on="0"/>
        <pt x="449" y="-242" on="1"/>
        <pt x="499" y="-242" on="0"/>
        <pt x="588" y="-176" on="0"/>
        <pt x="662" y="-68" on="0"/>
        <pt x="721" y="70" on="0"/>
        <pt x="762" y="212" on="0"/>
        <pt x="784" y="348" on="0"/>
        <pt x="784" y="399" on="1"/>
        <pt x="784" y="437" on="0"/>
        <pt x="779" y="534" on="0"/>
        <pt x="762" y="634" on="0"/>
        <pt x="731" y="730" on="0"/>
        <pt x="681" y="805" on="0"/>
        <pt x="608" y="850" on="0"/>
        <pt x="557" y="850" on="1"/>
        <pt x="498" y="850" on="0"/>
        <pt x="376" y="772" on="0"/>
        <pt x="324" y="696" on="1"/>
        <pt x="324" y="143" on="1"/>
        <pt x="489" y="25" on="1"/>
        <pt x="-6" y="-10" on="1"/>
        <pt x="125" y="135" on="1"/>
        <pt x="195" y="862" on="1"/>
        <pt x="-18" y="967" on="1"/>
        <pt x="324" y="1001" on="1"/>
        <pt x="324" y="850" on="1"/>
        <pt x="353" y="890" on="0"/>
        <pt x="423" y="960" on="0"/>
        <pt x="501" y="1011" on="0"/>
        <pt x="586" y="1040" on="0"/>
        <pt x="631" y="1040" on="1"/>
        <pt x="718" y="1040" on="0"/>
        <pt x="846" y="976" on="0"/>
        <pt x="931" y="863" on="0"/>
        <pt x="973" y="710" on="0"/>
      </contour>
    </TTGlyph>
    <TTGlyph name="eogonek" xMin="55" yMin="-258" xMax="938" yMax="1023">
      <contour>
        <pt x="289" y="367" on="1"/>
        <pt x="302" y="311" on="0"/>
        <pt x="346" y="204" on="0"/>
        <pt x="410" y="120" on="0"/>
        <pt x="494" y="68" on="0"/>
        <pt x="547" y="68" on="1"/>
        <pt x="617" y="68" on="0"/>
        <pt x="721" y="126" on="0"/>
        <pt x="787" y="215" on="0"/>
        <pt x="813" y="322" on="0"/>
        <pt x="805" y="371" on="1"/>
        <pt x="833" y="360" on="0"/>
        <pt x="870" y="324" on="0"/>
        <pt x="891" y="281" on="0"/>
        <pt x="899" y="236" on="0"/>
        <pt x="899" y="215" on="1"/>
        <pt x="899" y="158" on="0"/>
        <pt x="822" y="56" on="0"/>
        <pt x="754" y="20" on="1"/>
        <pt x="719" y="-14" on="0"/>
        <pt x="672" y="-84" on="0"/>
        <pt x="672" y="-113" on="1"/>
        <pt x="672" y="-133" on="0"/>
        <pt x="701" y="-156" on="0"/>
        <pt x="721" y="-156" on="1"/>
        <pt x="744" y="-156" on="0"/>
        <pt x="789" y="-135" on="0"/>
        <pt x="805" y="-123" on="1"/>
        <pt x="829" y="-170" on="1"/>
        <pt x="823" y="-189" on="0"/>
        <pt x="793" y="-221" on="0"/>
        <pt x="755" y="-245" on="0"/>
        <pt x="715" y="-258" on="0"/>
        <pt x="700" y="-258" on="1"/>
        <pt x="676" y="-258" on="0"/>
        <pt x="631" y="-245" on="0"/>
        <pt x="596" y="-217" on="0"/>
        <pt x="575" y="-171" on="0"/>
        <pt x="575" y="-139" on="1"/>
        <pt x="575" y="-110" on="0"/>
        <pt x="605" y="-49" on="0"/>
        <pt x="633" y="-20" on="1"/>
        <pt x="582" y="-33" on="0"/>
        <pt x="522" y="-33" on="1"/>
        <pt x="412" y="-33" on="0"/>
        <pt x="239" y="53" on="0"/>
        <pt x="119" y="200" on="0"/>
        <pt x="55" y="398" on="0"/>
        <pt x="55" y="510" on="1"/>
        <pt x="55" y="624" on="0"/>
        <pt x="119" y="817" on="0"/>
        <pt x="244" y="953" on="0"/>
        <pt x="426" y="1023" on="0"/>
        <pt x="545" y="1016" on="1"/>
        <pt x="627" y="1010" on="0"/>
        <pt x="765" y="928" on="0"/>
        <pt x="868" y="799" on="0"/>
        <pt x="931" y="633" on="0"/>
        <pt x="938" y="543" on="1"/>
      </contour>
      <contour>
        <pt x="270" y="528" on="1"/>
        <pt x="270" y="514" on="0"/>
        <pt x="270" y="487" on="0"/>
        <pt x="272" y="473" on="1"/>
        <pt x="711" y="633" on="1"/>
        <pt x="689" y="705" on="0"/>
        <pt x="634" y="808" on="0"/>
        <pt x="574" y="874" on="0"/>
        <pt x="513" y="905" on="0"/>
        <pt x="485" y="905" on="1"/>
        <pt x="443" y="905" on="0"/>
        <pt x="379" y="873" on="0"/>
        <pt x="332" y="818" on="0"/>
        <pt x="299" y="744" on="0"/>
        <pt x="279" y="660" on="0"/>
        <pt x="270" y="571" on="0"/>
      </contour>
    </TTGlyph>
    <TTGlyph name="equal" xMin="127" yMin="428" xMax="784" yMax="965">
      <contour>
        <pt x="137" y="760" on="1"/>
        <pt x="127" y="909" on="1"/>
        <pt x="784" y="965" on="1"/>
        <pt x="768" y="717" on="1"/>
      </contour>
      <contour>
        <pt x="131" y="428" on="1"/>
        <pt x="127" y="647" on="1"/>
        <pt x="768" y="606" on="1"/>
        <pt x="784" y="455" on="1"/>
      </contour>
    </TTGlyph>
    <TTGlyph name="eth" xMin="49" yMin="-29" xMax="1008" yMax="1491">
      <contour>
        <pt x="715" y="1298" on="1"/>
        <pt x="767" y="1240" on="0"/>
        <pt x="872" y="1084" on="0"/>
        <pt x="956" y="887" on="0"/>
        <pt x="1008" y="646" on="0"/>
        <pt x="1008" y="502" on="1"/>
        <pt x="1008" y="375" on="0"/>
        <pt x="928" y="178" on="0"/>
        <pt x="793" y="42" on="0"/>
        <pt x="615" y="-29" on="0"/>
        <pt x="518" y="-29" on="1"/>
        <pt x="416" y="-29" on="0"/>
        <pt x="241" y="47" on="0"/>
        <pt x="115" y="186" on="0"/>
        <pt x="49" y="385" on="0"/>
        <pt x="57" y="508" on="1"/>
        <pt x="64" y="623" on="0"/>
        <pt x="138" y="813" on="0"/>
        <pt x="262" y="949" on="0"/>
        <pt x="429" y="1024" on="0"/>
        <pt x="530" y="1024" on="1"/>
        <pt x="611" y="1024" on="0"/>
        <pt x="680" y="999" on="1"/>
        <pt x="657" y="1062" on="0"/>
        <pt x="606" y="1166" on="0"/>
        <pt x="580" y="1208" on="1"/>
        <pt x="369" y="1069" on="1"/>
        <pt x="338" y="1221" on="1"/>
        <pt x="506" y="1313" on="1"/>
        <pt x="486" y="1337" on="0"/>
        <pt x="454" y="1373" on="0"/>
        <pt x="442" y="1384" on="1"/>
        <pt x="428" y="1397" on="0"/>
        <pt x="416" y="1407" on="1"/>
        <pt x="487" y="1491" on="1"/>
        <pt x="505" y="1480" on="0"/>
        <pt x="528" y="1464" on="1"/>
        <pt x="548" y="1450" on="0"/>
        <pt x="600" y="1410" on="0"/>
        <pt x="631" y="1382" on="1"/>
        <pt x="784" y="1466" on="1"/>
        <pt x="854" y="1393" on="1"/>
      </contour>
      <contour>
        <pt x="762" y="485" on="1"/>
        <pt x="762" y="575" on="0"/>
        <pt x="711" y="717" on="0"/>
        <pt x="627" y="816" on="0"/>
        <pt x="520" y="868" on="0"/>
        <pt x="463" y="868" on="1"/>
        <pt x="399" y="868" on="0"/>
        <pt x="291" y="806" on="0"/>
        <pt x="212" y="698" on="0"/>
        <pt x="168" y="553" on="0"/>
        <pt x="168" y="471" on="1"/>
        <pt x="168" y="388" on="0"/>
        <pt x="212" y="252" on="0"/>
        <pt x="290" y="155" on="0"/>
        <pt x="395" y="102" on="0"/>
        <pt x="457" y="102" on="1"/>
        <pt x="517" y="102" on="0"/>
        <pt x="628" y="156" on="0"/>
        <pt x="712" y="255" on="0"/>
        <pt x="762" y="397" on="0"/>
      </contour>
    </TTGlyph>
    <TTGlyph name="exclam" xMin="94" yMin="-63" xMax="459" yMax="1393">
      <contour>
        <pt x="309" y="297" on="1"/>
        <pt x="190" y="303" on="1"/>
        <pt x="195" y="1393" on="1"/>
        <pt x="459" y="1360" on="1"/>
      </contour>
      <contour>
        <pt x="397" y="57" on="1"/>
        <pt x="397" y="25" on="0"/>
        <pt x="364" y="-21" on="0"/>
        <pt x="317" y="-50" on="0"/>
        <pt x="265" y="-63" on="0"/>
        <pt x="246" y="-63" on="1"/>
        <pt x="225" y="-63" on="0"/>
        <pt x="172" y="-50" on="0"/>
        <pt x="126" y="-21" on="0"/>
        <pt x="94" y="25" on="0"/>
        <pt x="94" y="57" on="1"/>
        <pt x="94" y="91" on="0"/>
        <pt x="126" y="139" on="0"/>
        <pt x="172" y="170" on="0"/>
        <pt x="225" y="184" on="0"/>
        <pt x="246" y="184" on="1"/>
        <pt x="265" y="184" on="0"/>
        <pt x="317" y="170" on="0"/>
        <pt x="364" y="139" on="0"/>
        <pt x="397" y="91" on="0"/>
      </contour>
    </TTGlyph>
    <TTGlyph name="exclamdown" xMin="76" yMin="-330" xMax="440" yMax="1126">
      <contour>
        <pt x="225" y="766" on="1"/>
        <pt x="344" y="760" on="1"/>
        <pt x="340" y="-330" on="1"/>
        <pt x="76" y="-297" on="1"/>
      </contour>
      <contour>
        <pt x="137" y="1006" on="1"/>
        <pt x="137" y="1038" on="0"/>
        <pt x="170" y="1084" on="0"/>
        <pt x="218" y="1113" on="0"/>
        <pt x="270" y="1126" on="0"/>
        <pt x="289" y="1126" on="1"/>
        <pt x="310" y="1126" on="0"/>
        <pt x="362" y="1113" on="0"/>
        <pt x="408" y="1084" on="0"/>
        <pt x="440" y="1038" on="0"/>
        <pt x="440" y="1006" on="1"/>
        <pt x="440" y="972" on="0"/>
        <pt x="408" y="924" on="0"/>
        <pt x="362" y="893" on="0"/>
        <pt x="310" y="879" on="0"/>
        <pt x="289" y="879" on="1"/>
        <pt x="270" y="879" on="0"/>
        <pt x="218" y="893" on="0"/>
        <pt x="170" y="924" on="0"/>
        <pt x="137" y="972" on="0"/>
      </contour>
    </TTGlyph>
    <TTGlyph name="f" xMin="14" yMin="12" xMax="881" yMax="1444">
      <contour>
        <pt x="354" y="803" on="1"/>
        <pt x="354" y="774" on="1"/>
        <pt x="354" y="687" on="0"/>
        <pt x="350" y="526" on="0"/>
        <pt x="345" y="370" on="0"/>
        <pt x="341" y="218" on="0"/>
        <pt x="340" y="141" on="1"/>
        <pt x="571" y="12" on="1"/>
        <pt x="33" y="12" on="1"/>
        <pt x="213" y="135" on="1"/>
        <pt x="191" y="337" on="0"/>
        <pt x="166" y="666" on="0"/>
        <pt x="160" y="778" on="1"/>
        <pt x="14" y="762" on="1"/>
        <pt x="152" y="981" on="1"/>
        <pt x="159" y="1075" on="0"/>
        <pt x="203" y="1234" on="0"/>
        <pt x="284" y="1350" on="0"/>
        <pt x="406" y="1415" on="0"/>
        <pt x="492" y="1415" on="1"/>
        <pt x="522" y="1415" on="0"/>
        <pt x="586" y="1404" on="0"/>
        <pt x="647" y="1382" on="0"/>
        <pt x="701" y="1348" on="0"/>
        <pt x="719" y="1325" on="1"/>
        <pt x="881" y="1444" on="1"/>
        <pt x="723" y="1044" on="1"/>
        <pt x="721" y="1105" on="0"/>
        <pt x="694" y="1192" on="0"/>
        <pt x="655" y="1250" on="0"/>
        <pt x="609" y="1283" on="0"/>
        <pt x="569" y="1300" on="0"/>
        <pt x="541" y="1305" on="0"/>
        <pt x="539" y="1305" on="1"/>
        <pt x="491" y="1302" on="0"/>
        <pt x="427" y="1246" on="0"/>
        <pt x="386" y="1148" on="0"/>
        <pt x="364" y="1013" on="0"/>
        <pt x="358" y="932" on="1"/>
        <pt x="723" y="932" on="1"/>
        <pt x="649" y="840" on="1"/>
      </contour>
    </TTGlyph>
    <TTGlyph name="fi" xMin="14" yMin="-10" xMax="1262" yMax="1419">
      <contour>
        <pt x="1135" y="1239" on="1"/>
        <pt x="1135" y="1209" on="0"/>
        <pt x="1111" y="1156" on="0"/>
        <pt x="1069" y="1115" on="0"/>
        <pt x="1015" y="1092" on="0"/>
        <pt x="985" y="1092" on="1"/>
        <pt x="937" y="1092" on="0"/>
        <pt x="863" y="1141" on="0"/>
        <pt x="846" y="1180" on="1"/>
        <pt x="818" y="1216" on="0"/>
        <pt x="756" y="1265" on="0"/>
        <pt x="690" y="1296" on="0"/>
        <pt x="623" y="1309" on="0"/>
        <pt x="592" y="1309" on="1"/>
        <pt x="529" y="1309" on="0"/>
        <pt x="445" y="1261" on="0"/>
        <pt x="392" y="1167" on="0"/>
        <pt x="366" y="1030" on="0"/>
        <pt x="360" y="942" on="1"/>
        <pt x="1124" y="997" on="1"/>
        <pt x="1047" y="195" on="1"/>
        <pt x="1262" y="61" on="1"/>
        <pt x="756" y="-10" on="1"/>
        <pt x="924" y="121" on="1"/>
        <pt x="877" y="852" on="1"/>
        <pt x="354" y="797" on="1"/>
        <pt x="354" y="774" on="1"/>
        <pt x="354" y="687" on="0"/>
        <pt x="350" y="526" on="0"/>
        <pt x="345" y="370" on="0"/>
        <pt x="341" y="218" on="0"/>
        <pt x="340" y="141" on="1"/>
        <pt x="571" y="12" on="1"/>
        <pt x="33" y="12" on="1"/>
        <pt x="213" y="135" on="1"/>
        <pt x="191" y="336" on="0"/>
        <pt x="166" y="664" on="0"/>
        <pt x="160" y="776" on="1"/>
        <pt x="14" y="762" on="1"/>
        <pt x="152" y="981" on="1"/>
        <pt x="161" y="1095" on="0"/>
        <pt x="242" y="1260" on="0"/>
        <pt x="375" y="1367" on="0"/>
        <pt x="556" y="1419" on="0"/>
        <pt x="664" y="1419" on="1"/>
        <pt x="764" y="1419" on="0"/>
        <pt x="919" y="1394" on="0"/>
        <pt x="985" y="1386" on="1"/>
        <pt x="1015" y="1386" on="0"/>
        <pt x="1069" y="1363" on="0"/>
        <pt x="1111" y="1323" on="0"/>
        <pt x="1135" y="1270" on="0"/>
      </contour>
    </TTGlyph>
    <TTGlyph name="five" xMin="55" yMin="-41" xMax="1102" yMax="1509">
      <contour>
        <pt x="180" y="1305" on="1"/>
        <pt x="969" y="1362" on="1"/>
        <pt x="1102" y="1509" on="1"/>
        <pt x="1012" y="956" on="1"/>
        <pt x="958" y="1141" on="1"/>
        <pt x="299" y="1196" on="1"/>
        <pt x="324" y="932" on="1"/>
        <pt x="366" y="943" on="0"/>
        <pt x="460" y="956" on="0"/>
        <pt x="500" y="959" on="1"/>
        <pt x="547" y="963" on="0"/>
        <pt x="592" y="963" on="1"/>
        <pt x="689" y="963" on="0"/>
        <pt x="869" y="897" on="0"/>
        <pt x="1007" y="772" on="0"/>
        <pt x="1090" y="591" on="0"/>
        <pt x="1090" y="477" on="1"/>
        <pt x="1090" y="377" on="0"/>
        <pt x="1043" y="223" on="0"/>
        <pt x="962" y="108" on="0"/>
        <pt x="853" y="29" on="0"/>
        <pt x="727" y="-20" on="0"/>
        <pt x="592" y="-41" on="0"/>
        <pt x="526" y="-41" on="1"/>
        <pt x="410" y="-41" on="0"/>
        <pt x="234" y="27" on="0"/>
        <pt x="115" y="139" on="0"/>
        <pt x="55" y="283" on="0"/>
        <pt x="55" y="360" on="1"/>
        <pt x="55" y="375" on="0"/>
        <pt x="62" y="421" on="0"/>
        <pt x="81" y="473" on="0"/>
        <pt x="115" y="524" on="0"/>
        <pt x="169" y="566" on="0"/>
        <pt x="245" y="592" on="0"/>
        <pt x="297" y="592" on="1"/>
        <pt x="311" y="592" on="1"/>
        <pt x="279" y="545" on="0"/>
        <pt x="244" y="426" on="0"/>
        <pt x="244" y="365" on="1"/>
        <pt x="244" y="310" on="0"/>
        <pt x="273" y="204" on="0"/>
        <pt x="336" y="120" on="0"/>
        <pt x="433" y="68" on="0"/>
        <pt x="502" y="68" on="1"/>
        <pt x="598" y="68" on="0"/>
        <pt x="728" y="141" on="0"/>
        <pt x="806" y="254" on="0"/>
        <pt x="840" y="393" on="0"/>
        <pt x="840" y="459" on="1"/>
        <pt x="840" y="537" on="0"/>
        <pt x="786" y="668" on="0"/>
        <pt x="688" y="763" on="0"/>
        <pt x="549" y="817" on="0"/>
        <pt x="465" y="817" on="1"/>
        <pt x="423" y="817" on="0"/>
        <pt x="321" y="809" on="0"/>
        <pt x="221" y="791" on="0"/>
        <pt x="132" y="761" on="0"/>
        <pt x="104" y="739" on="1"/>
      </contour>
    </TTGlyph>
    <TTGlyph name="fl" xMin="14" yMin="-4" xMax="1178" yMax="1415">
      <contour>
        <pt x="354" y="803" on="1"/>
        <pt x="354" y="774" on="1"/>
        <pt x="354" y="687" on="0"/>
        <pt x="350" y="526" on="0"/>
        <pt x="345" y="370" on="0"/>
        <pt x="341" y="218" on="0"/>
        <pt x="340" y="141" on="1"/>
        <pt x="571" y="12" on="1"/>
        <pt x="33" y="12" on="1"/>
        <pt x="213" y="135" on="1"/>
        <pt x="191" y="337" on="0"/>
        <pt x="166" y="666" on="0"/>
        <pt x="160" y="778" on="1"/>
        <pt x="14" y="762" on="1"/>
        <pt x="152" y="981" on="1"/>
        <pt x="159" y="1075" on="0"/>
        <pt x="225" y="1234" on="0"/>
        <pt x="331" y="1350" on="0"/>
        <pt x="475" y="1415" on="0"/>
        <pt x="561" y="1415" on="1"/>
        <pt x="633" y="1415" on="0"/>
        <pt x="762" y="1402" on="0"/>
        <pt x="885" y="1372" on="0"/>
        <pt x="1005" y="1324" on="0"/>
        <pt x="1069" y="1290" on="1"/>
        <pt x="977" y="125" on="1"/>
        <pt x="1178" y="45" on="1"/>
        <pt x="676" y="-4" on="1"/>
        <pt x="862" y="143" on="1"/>
        <pt x="825" y="1204" on="1"/>
        <pt x="806" y="1229" on="0"/>
        <pt x="754" y="1268" on="0"/>
        <pt x="695" y="1296" on="0"/>
        <pt x="630" y="1311" on="0"/>
        <pt x="598" y="1311" on="1"/>
        <pt x="534" y="1311" on="0"/>
        <pt x="449" y="1260" on="0"/>
        <pt x="395" y="1162" on="0"/>
        <pt x="366" y="1022" on="0"/>
        <pt x="360" y="932" on="1"/>
        <pt x="723" y="932" on="1"/>
        <pt x="649" y="840" on="1"/>
      </contour>
    </TTGlyph>
    <TTGlyph name="florin" xMin="-133" yMin="-469" xMax="997" yMax="1444">
      <contour>
        <pt x="102" y="-199" on="1"/>
        <pt x="146" y="-199" on="0"/>
        <pt x="210" y="-145" on="0"/>
        <pt x="254" y="-51" on="0"/>
        <pt x="280" y="77" on="0"/>
        <pt x="292" y="226" on="0"/>
        <pt x="294" y="389" on="0"/>
        <pt x="289" y="553" on="0"/>
        <pt x="280" y="711" on="0"/>
        <pt x="276" y="780" on="1"/>
        <pt x="131" y="762" on="1"/>
        <pt x="268" y="979" on="1"/>
        <pt x="267" y="1073" on="0"/>
        <pt x="309" y="1233" on="0"/>
        <pt x="394" y="1350" on="0"/>
        <pt x="522" y="1415" on="0"/>
        <pt x="608" y="1415" on="1"/>
        <pt x="638" y="1415" on="0"/>
        <pt x="703" y="1404" on="0"/>
        <pt x="764" y="1382" on="0"/>
        <pt x="817" y="1348" on="0"/>
        <pt x="836" y="1325" on="1"/>
        <pt x="997" y="1444" on="1"/>
        <pt x="840" y="1044" on="1"/>
        <pt x="838" y="1105" on="0"/>
        <pt x="811" y="1192" on="0"/>
        <pt x="772" y="1250" on="0"/>
        <pt x="726" y="1283" on="0"/>
        <pt x="686" y="1300" on="0"/>
        <pt x="657" y="1305" on="0"/>
        <pt x="655" y="1305" on="1"/>
        <pt x="605" y="1302" on="0"/>
        <pt x="542" y="1252" on="0"/>
        <pt x="506" y="1159" on="0"/>
        <pt x="493" y="1022" on="0"/>
        <pt x="492" y="932" on="1"/>
        <pt x="840" y="932" on="1"/>
        <pt x="766" y="840" on="1"/>
        <pt x="492" y="805" on="1"/>
        <pt x="492" y="724" on="0"/>
        <pt x="496" y="541" on="0"/>
        <pt x="496" y="436" on="1"/>
        <pt x="496" y="343" on="0"/>
        <pt x="491" y="159" on="0"/>
        <pt x="468" y="-7" on="0"/>
        <pt x="423" y="-150" on="0"/>
        <pt x="342" y="-254" on="0"/>
        <pt x="220" y="-313" on="0"/>
        <pt x="133" y="-313" on="1"/>
        <pt x="105" y="-313" on="0"/>
        <pt x="55" y="-306" on="0"/>
        <pt x="29" y="-295" on="1"/>
        <pt x="-16" y="-469" on="1"/>
        <pt x="-133" y="-45" on="1"/>
        <pt x="-101" y="-93" on="0"/>
        <pt x="-38" y="-154" on="0"/>
        <pt x="22" y="-187" on="0"/>
        <pt x="78" y="-199" on="0"/>
      </contour>
    </TTGlyph>
    <TTGlyph name="four" xMin="45" yMin="-16" xMax="1253" yMax="1374">
      <contour>
        <pt x="1253" y="1341" on="1"/>
        <pt x="1055" y="1210" on="1"/>
        <pt x="973" y="180" on="1"/>
        <pt x="1237" y="57" on="1"/>
        <pt x="594" y="-16" on="1"/>
        <pt x="836" y="193" on="1"/>
        <pt x="827" y="489" on="1"/>
        <pt x="45" y="444" on="1"/>
        <pt x="258" y="1192" on="1"/>
        <pt x="84" y="1296" on="1"/>
        <pt x="719" y="1374" on="1"/>
        <pt x="506" y="1251" on="1"/>
        <pt x="242" y="633" on="1"/>
        <pt x="825" y="610" on="1"/>
        <pt x="809" y="1196" on="1"/>
        <pt x="643" y="1280" on="1"/>
      </contour>
    </TTGlyph>
    <TTGlyph name="fraction" xMin="-18" yMin="180" xMax="745" yMax="1241">
      <contour>
        <pt x="37" y="180" on="1"/>
        <pt x="-18" y="219" on="1"/>
        <pt x="598" y="1241" on="1"/>
        <pt x="745" y="1143" on="1"/>
      </contour>
    </TTGlyph>
    <TTGlyph name="g" xMin="59" yMin="-414" xMax="1120" yMax="1030">
      <contour>
        <pt x="1120" y="1030" on="1"/>
        <pt x="930" y="864" on="1"/>
        <pt x="941" y="781" on="0"/>
        <pt x="952" y="612" on="0"/>
        <pt x="952" y="528" on="1"/>
        <pt x="952" y="334" on="0"/>
        <pt x="913" y="5" on="0"/>
        <pt x="810" y="-233" on="0"/>
        <pt x="628" y="-367" on="0"/>
        <pt x="485" y="-367" on="1"/>
        <pt x="458" y="-367" on="0"/>
        <pt x="401" y="-352" on="0"/>
        <pt x="348" y="-328" on="0"/>
        <pt x="300" y="-298" on="0"/>
        <pt x="281" y="-283" on="1"/>
        <pt x="164" y="-414" on="1"/>
        <pt x="137" y="20" on="1"/>
        <pt x="189" y="-73" on="0"/>
        <pt x="292" y="-178" on="0"/>
        <pt x="380" y="-231" on="0"/>
        <pt x="450" y="-244" on="0"/>
        <pt x="469" y="-244" on="1"/>
        <pt x="493" y="-244" on="0"/>
        <pt x="544" y="-239" on="0"/>
        <pt x="593" y="-217" on="0"/>
        <pt x="640" y="-170" on="0"/>
        <pt x="681" y="-88" on="0"/>
        <pt x="714" y="37" on="0"/>
        <pt x="725" y="127" on="1"/>
        <pt x="701" y="92" on="0"/>
        <pt x="643" y="31" on="0"/>
        <pt x="572" y="-14" on="0"/>
        <pt x="490" y="-41" on="0"/>
        <pt x="442" y="-41" on="1"/>
        <pt x="365" y="-39" on="0"/>
        <pt x="226" y="27" on="0"/>
        <pt x="121" y="150" on="0"/>
        <pt x="59" y="329" on="0"/>
        <pt x="59" y="444" on="1"/>
        <pt x="59" y="584" on="0"/>
        <pt x="125" y="796" on="0"/>
        <pt x="239" y="938" on="0"/>
        <pt x="392" y="1007" on="0"/>
        <pt x="479" y="1004" on="1"/>
        <pt x="561" y="1000" on="0"/>
        <pt x="683" y="929" on="0"/>
        <pt x="725" y="877" on="1"/>
        <pt x="723" y="901" on="0"/>
        <pt x="718" y="953" on="0"/>
        <pt x="715" y="981" on="1"/>
      </contour>
      <contour>
        <pt x="743" y="465" on="1"/>
        <pt x="743" y="524" on="0"/>
        <pt x="740" y="643" on="0"/>
        <pt x="737" y="709" on="1"/>
        <pt x="721" y="741" on="0"/>
        <pt x="680" y="800" on="0"/>
        <pt x="631" y="844" on="0"/>
        <pt x="576" y="870" on="0"/>
        <pt x="545" y="870" on="1"/>
        <pt x="476" y="870" on="0"/>
        <pt x="379" y="802" on="0"/>
        <pt x="316" y="682" on="0"/>
        <pt x="287" y="518" on="0"/>
        <pt x="287" y="422" on="1"/>
        <pt x="287" y="351" on="0"/>
        <pt x="311" y="228" on="0"/>
        <pt x="357" y="138" on="0"/>
        <pt x="427" y="86" on="0"/>
        <pt x="473" y="86" on="1"/>
        <pt x="476" y="86" on="0"/>
        <pt x="506" y="89" on="0"/>
        <pt x="551" y="104" on="0"/>
        <pt x="607" y="132" on="0"/>
        <pt x="665" y="182" on="0"/>
        <pt x="719" y="257" on="0"/>
        <pt x="741" y="311" on="1"/>
        <pt x="743" y="346" on="0"/>
        <pt x="743" y="423" on="0"/>
      </contour>
    </TTGlyph>
    <TTGlyph name="gbreve" xMin="59" yMin="-414" xMax="1120" yMax="1331">
      <component glyphName="g" x="0" y="0" flags="0x204"/>
      <component glyphName="breve" x="301" y="-101" flags="0x4"/>
    </TTGlyph>
    <TTGlyph name="gcircumflex" xMin="59" yMin="-414" xMax="1120" yMax="1383">
      <component glyphName="g" x="0" y="0" flags="0x204"/>
      <component glyphName="circumflex" x="264" y="-81" flags="0x4"/>
    </TTGlyph>
    <TTGlyph name="gcommaaccent" xMin="59" yMin="-414" xMax="1120" yMax="1362">
      <component glyphName="g" x="0" y="0" flags="0x204"/>
      <component glyphName="uni0312" x="336" y="0" flags="0x4"/>
    </TTGlyph>
    <TTGlyph name="gdotaccent" xMin="59" yMin="-414" xMax="1120" yMax="1273">
      <component glyphName="g" x="0" y="0" flags="0x204"/>
      <component glyphName="dotaccent" x="408" y="-126" flags="0x4"/>
    </TTGlyph>
    <TTGlyph name="germandbls" xMin="14" yMin="-117" xMax="1315" yMax="1415">
      <contour>
        <pt x="879" y="1143" on="1"/>
        <pt x="879" y="1093" on="0"/>
        <pt x="852" y="1011" on="0"/>
        <pt x="813" y="943" on="0"/>
        <pt x="766" y="886" on="0"/>
        <pt x="727" y="833" on="0"/>
        <pt x="700" y="783" on="0"/>
        <pt x="700" y="756" on="1"/>
        <pt x="700" y="708" on="0"/>
        <pt x="753" y="648" on="0"/>
        <pt x="839" y="607" on="0"/>
        <pt x="950" y="578" on="0"/>
        <pt x="1065" y="546" on="0"/>
        <pt x="1176" y="503" on="0"/>
        <pt x="1262" y="435" on="0"/>
        <pt x="1315" y="334" on="0"/>
        <pt x="1315" y="260" on="1"/>
        <pt x="1315" y="177" on="0"/>
        <pt x="1250" y="60" on="0"/>
        <pt x="1148" y="-15" on="0"/>
        <pt x="1024" y="-49" on="0"/>
        <pt x="965" y="-49" on="1"/>
        <pt x="917" y="-49" on="0"/>
        <pt x="821" y="-29" on="0"/>
        <pt x="731" y="7" on="0"/>
        <pt x="649" y="57" on="0"/>
        <pt x="616" y="86" on="1"/>
        <pt x="465" y="-117" on="1"/>
        <pt x="512" y="379" on="1"/>
        <pt x="544" y="311" on="0"/>
        <pt x="634" y="193" on="0"/>
        <pt x="744" y="106" on="0"/>
        <pt x="870" y="57" on="0"/>
        <pt x="938" y="57" on="1"/>
        <pt x="1016" y="57" on="0"/>
        <pt x="1112" y="124" on="0"/>
        <pt x="1112" y="186" on="1"/>
        <pt x="1112" y="226" on="0"/>
        <pt x="1059" y="279" on="0"/>
        <pt x="972" y="319" on="0"/>
        <pt x="862" y="351" on="0"/>
        <pt x="746" y="389" on="0"/>
        <pt x="636" y="440" on="0"/>
        <pt x="549" y="517" on="0"/>
        <pt x="496" y="628" on="0"/>
        <pt x="496" y="707" on="1"/>
        <pt x="496" y="740" on="0"/>
        <pt x="521" y="811" on="0"/>
        <pt x="558" y="883" on="0"/>
        <pt x="602" y="956" on="0"/>
        <pt x="639" y="1028" on="0"/>
        <pt x="664" y="1096" on="0"/>
        <pt x="664" y="1128" on="1"/>
        <pt x="664" y="1172" on="0"/>
        <pt x="647" y="1233" on="0"/>
        <pt x="620" y="1272" on="0"/>
        <pt x="589" y="1294" on="0"/>
        <pt x="561" y="1303" on="0"/>
        <pt x="541" y="1305" on="0"/>
        <pt x="539" y="1305" on="1"/>
        <pt x="480" y="1302" on="0"/>
        <pt x="410" y="1220" on="0"/>
        <pt x="371" y="1078" on="0"/>
        <pt x="356" y="886" on="0"/>
        <pt x="354" y="774" on="1"/>
        <pt x="354" y="725" on="0"/>
        <pt x="353" y="607" on="0"/>
        <pt x="351" y="481" on="0"/>
        <pt x="349" y="353" on="0"/>
        <pt x="348" y="294" on="1"/>
        <pt x="345" y="155" on="0"/>
        <pt x="342" y="10" on="1"/>
        <pt x="33" y="12" on="1"/>
        <pt x="213" y="135" on="1"/>
        <pt x="190" y="350" on="0"/>
        <pt x="164" y="692" on="0"/>
        <pt x="158" y="805" on="1"/>
        <pt x="14" y="762" on="1"/>
        <pt x="152" y="981" on="1"/>
        <pt x="159" y="1075" on="0"/>
        <pt x="216" y="1234" on="0"/>
        <pt x="312" y="1350" on="0"/>
        <pt x="446" y="1415" on="0"/>
        <pt x="532" y="1415" on="1"/>
        <pt x="596" y="1415" on="0"/>
        <pt x="720" y="1383" on="0"/>
        <pt x="818" y="1317" on="0"/>
        <pt x="879" y="1214" on="0"/>
      </contour>
    </TTGlyph>
    <TTGlyph name="grave" xMin="0" yMin="1104" xMax="385" yMax="1475">
      <contour>
        <pt x="0" y="1401" on="1"/>
        <pt x="240" y="1475" on="1"/>
        <pt x="385" y="1104" on="1"/>
      </contour>
    </TTGlyph>
    <TTGlyph name="greater" xMin="90" yMin="279" xMax="727" yMax="1143">
      <contour>
        <pt x="182" y="279" on="1"/>
        <pt x="90" y="528" on="1"/>
        <pt x="578" y="696" on="1"/>
        <pt x="94" y="909" on="1"/>
        <pt x="197" y="1143" on="1"/>
        <pt x="727" y="690" on="1"/>
      </contour>
    </TTGlyph>
    <TTGlyph name="guillemotleft" xMin="55" yMin="180" xMax="971" yMax="872">
      <contour>
        <pt x="55" y="510" on="1"/>
        <pt x="479" y="872" on="1"/>
        <pt x="561" y="686" on="1"/>
        <pt x="174" y="514" on="1"/>
        <pt x="565" y="381" on="1"/>
        <pt x="492" y="180" on="1"/>
      </contour>
      <contour>
        <pt x="461" y="530" on="1"/>
        <pt x="885" y="872" on="1"/>
        <pt x="967" y="686" on="1"/>
        <pt x="580" y="532" on="1"/>
        <pt x="971" y="381" on="1"/>
        <pt x="897" y="180" on="1"/>
      </contour>
    </TTGlyph>
</ttFont>
